<?xml version="1.0" encoding="UTF-8" standalone="no"?>
<!DOCTYPE svg PUBLIC "-//W3C//DTD SVG 1.1//EN"
 "http://www.w3.org/Graphics/SVG/1.1/DTD/svg11.dtd">
<!-- Generated by graphviz version 11.0.0 (20240428.1522)
 -->
<!-- Title: G Pages: 1 -->
<svg width="3477pt" height="1820pt"
 viewBox="0.00 0.00 3477.45 1820.00" xmlns="http://www.w3.org/2000/svg" xmlns:xlink="http://www.w3.org/1999/xlink">
<g id="graph0" class="graph" transform="scale(1 1) rotate(0) translate(21.6 1798.4)">
<title>G</title>
<polygon fill="#111111" stroke="none" points="-21.6,21.6 -21.6,-1798.4 3455.85,-1798.4 3455.85,21.6 -21.6,21.6"/>
<!-- _assets/katex/katex.min.css -->
<g id="node1" class="node">
<title>_assets/katex/katex.min.css</title>
<path fill="none" stroke="#cfffac" d="M480.96,-67.5C480.96,-67.5 305.04,-67.5 305.04,-67.5 300.96,-67.5 296.88,-63.42 296.88,-59.33 296.88,-59.33 296.88,-51.17 296.88,-51.17 296.88,-47.08 300.96,-43 305.04,-43 305.04,-43 480.96,-43 480.96,-43 485.04,-43 489.12,-47.08 489.12,-51.17 489.12,-51.17 489.12,-59.33 489.12,-59.33 489.12,-63.42 485.04,-67.5 480.96,-67.5"/>
<text text-anchor="middle" x="393" y="-50.2" font-family="Arial" font-size="14.00" fill="#cfffac">_assets/katex/katex.min.css</text>
</g>
<!-- app/edit/components/gestaltViewer.tsx -->
<g id="node2" class="node">
<title>app/edit/components/gestaltViewer.tsx</title>
<path fill="none" stroke="#c6c5fe" d="M515.08,-1023.5C515.08,-1023.5 270.92,-1023.5 270.92,-1023.5 266.83,-1023.5 262.75,-1019.42 262.75,-1015.33 262.75,-1015.33 262.75,-1007.17 262.75,-1007.17 262.75,-1003.08 266.83,-999 270.92,-999 270.92,-999 515.08,-999 515.08,-999 519.17,-999 523.25,-1003.08 523.25,-1007.17 523.25,-1007.17 523.25,-1015.33 523.25,-1015.33 523.25,-1019.42 519.17,-1023.5 515.08,-1023.5"/>
<text text-anchor="middle" x="393" y="-1006.2" font-family="Arial" font-size="14.00" fill="#c6c5fe">app/edit/components/gestaltViewer.tsx</text>
</g>
<!-- app/edit/editorContext.ts -->
<g id="node3" class="node">
<title>app/edit/editorContext.ts</title>
<path fill="none" stroke="#ff6c60" d="M1976.33,-1275.5C1976.33,-1275.5 1822.17,-1275.5 1822.17,-1275.5 1818.08,-1275.5 1814,-1271.42 1814,-1267.33 1814,-1267.33 1814,-1259.17 1814,-1259.17 1814,-1255.08 1818.08,-1251 1822.17,-1251 1822.17,-1251 1976.33,-1251 1976.33,-1251 1980.42,-1251 1984.5,-1255.08 1984.5,-1259.17 1984.5,-1259.17 1984.5,-1267.33 1984.5,-1267.33 1984.5,-1271.42 1980.42,-1275.5 1976.33,-1275.5"/>
<text text-anchor="middle" x="1899.25" y="-1258.2" font-family="Arial" font-size="14.00" fill="#ff6c60">app/edit/editorContext.ts</text>
</g>
<!-- app/edit/components/gestaltViewer.tsx&#45;&gt;app/edit/editorContext.ts -->
<g id="edge1" class="edge">
<title>app/edit/components/gestaltViewer.tsx&#45;&gt;app/edit/editorContext.ts</title>
<path fill="none" stroke="#757575" d="M523.52,-1016.22C547.58,-1018.83 572.34,-1022.66 595.25,-1028.25 612.09,-1032.36 614.66,-1038.24 631.25,-1043.25 1057.48,-1171.97 1588.55,-1233.65 1802.43,-1254.63"/>
<polygon fill="#757575" stroke="#757575" points="1801.81,-1258.08 1812.1,-1255.57 1802.49,-1251.11 1801.81,-1258.08"/>
</g>
<!-- gestalt/editor/gestaltEditor.ts -->
<g id="node4" class="node">
<title>gestalt/editor/gestaltEditor.ts</title>
<path fill="none" stroke="#ff6c60" d="M2325.33,-772.5C2325.33,-772.5 2145.67,-772.5 2145.67,-772.5 2141.58,-772.5 2137.5,-768.42 2137.5,-764.33 2137.5,-764.33 2137.5,-756.17 2137.5,-756.17 2137.5,-752.08 2141.58,-748 2145.67,-748 2145.67,-748 2325.33,-748 2325.33,-748 2329.42,-748 2333.5,-752.08 2333.5,-756.17 2333.5,-756.17 2333.5,-764.33 2333.5,-764.33 2333.5,-768.42 2329.42,-772.5 2325.33,-772.5"/>
<text text-anchor="middle" x="2235.5" y="-755.2" font-family="Arial" font-size="14.00" fill="#ff6c60">gestalt/editor/gestaltEditor.ts</text>
</g>
<!-- app/edit/components/gestaltViewer.tsx&#45;&gt;gestalt/editor/gestaltEditor.ts -->
<g id="edge2" class="edge">
<title>app/edit/components/gestaltViewer.tsx&#45;&gt;gestalt/editor/gestaltEditor.ts</title>
<path fill="none" stroke="#757575" d="M523.68,-1015.58C694.47,-1020.91 1004.15,-1029.25 1268.88,-1029.25 1268.88,-1029.25 1268.88,-1029.25 1618.38,-1029.25 1786.11,-1029.25 1836.04,-1024.73 1988.25,-954.25 2084.21,-909.81 2176.36,-821.07 2215.21,-780.88"/>
<polygon fill="#757575" stroke="#757575" points="2217.66,-783.38 2222.04,-773.73 2212.6,-778.54 2217.66,-783.38"/>
</g>
<!-- utils/util.ts -->
<g id="node5" class="node">
<title>utils/util.ts</title>
<path fill="none" stroke="#cfffac" d="M1929.46,-945.5C1929.46,-945.5 1869.04,-945.5 1869.04,-945.5 1864.96,-945.5 1860.88,-941.42 1860.88,-937.33 1860.88,-937.33 1860.88,-929.17 1860.88,-929.17 1860.88,-925.08 1864.96,-921 1869.04,-921 1869.04,-921 1929.46,-921 1929.46,-921 1933.54,-921 1937.62,-925.08 1937.62,-929.17 1937.62,-929.17 1937.62,-937.33 1937.62,-937.33 1937.62,-941.42 1933.54,-945.5 1929.46,-945.5"/>
<text text-anchor="middle" x="1899.25" y="-928.2" font-family="Arial" font-size="14.00" fill="#cfffac">utils/util.ts</text>
</g>
<!-- app/edit/components/gestaltViewer.tsx&#45;&gt;utils/util.ts -->
<g id="edge3" class="edge">
<title>app/edit/components/gestaltViewer.tsx&#45;&gt;utils/util.ts</title>
<path fill="none" stroke="#757575" d="M523.66,-1011.01C819.21,-1009.84 1535.7,-1003.24 1774.25,-967.25 1799.76,-963.4 1827.52,-956.1 1850.28,-949.24"/>
<polygon fill="#757575" stroke="#757575" points="1851.06,-952.67 1859.58,-946.38 1849,-945.98 1851.06,-952.67"/>
</g>
<!-- app/edit/editorContext.ts&#45;&gt;gestalt/editor/gestaltEditor.ts -->
<g id="edge19" class="edge">
<title>app/edit/editorContext.ts&#45;&gt;gestalt/editor/gestaltEditor.ts</title>
<path fill="none" stroke="#757575" d="M1912.34,-1250.6C1929.99,-1231.86 1963.4,-1195.23 1988.25,-1161.25 2088.54,-1024.06 2188.43,-845.07 2222.36,-782.78"/>
<polygon fill="#757575" stroke="#757575" points="2225.33,-784.64 2227.02,-774.19 2219.17,-781.31 2225.33,-784.64"/>
</g>
<!-- gestalt/item.ts -->
<g id="node8" class="node">
<title>gestalt/item.ts</title>
<path fill="none" stroke="#c6c5fe" d="M3251.08,-772.5C3251.08,-772.5 3163.67,-772.5 3163.67,-772.5 3159.58,-772.5 3155.5,-768.42 3155.5,-764.33 3155.5,-764.33 3155.5,-756.17 3155.5,-756.17 3155.5,-752.08 3159.58,-748 3163.67,-748 3163.67,-748 3251.08,-748 3251.08,-748 3255.17,-748 3259.25,-752.08 3259.25,-756.17 3259.25,-756.17 3259.25,-764.33 3259.25,-764.33 3259.25,-768.42 3255.17,-772.5 3251.08,-772.5"/>
<text text-anchor="middle" x="3207.38" y="-755.2" font-family="Arial" font-size="14.00" fill="#c6c5fe">gestalt/item.ts</text>
</g>
<!-- gestalt/editor/gestaltEditor.ts&#45;&gt;gestalt/item.ts -->
<g id="edge54" class="edge">
<title>gestalt/editor/gestaltEditor.ts&#45;&gt;gestalt/item.ts</title>
<path fill="none" stroke="#757575" d="M2333.94,-760.25C2532.49,-760.25 2979.04,-760.25 3143.78,-760.25"/>
<polygon fill="#757575" stroke="#757575" points="3143.63,-763.75 3153.63,-760.25 3143.63,-756.75 3143.63,-763.75"/>
</g>
<!-- gestalt/editor/topicAccess.ts -->
<g id="node12" class="node">
<title>gestalt/editor/topicAccess.ts</title>
<path fill="none" stroke="#c6c5fe" d="M2684.83,-732.5C2684.83,-732.5 2505.92,-732.5 2505.92,-732.5 2501.83,-732.5 2497.75,-728.42 2497.75,-724.33 2497.75,-724.33 2497.75,-716.17 2497.75,-716.17 2497.75,-712.08 2501.83,-708 2505.92,-708 2505.92,-708 2684.83,-708 2684.83,-708 2688.92,-708 2693,-712.08 2693,-716.17 2693,-716.17 2693,-724.33 2693,-724.33 2693,-728.42 2688.92,-732.5 2684.83,-732.5"/>
<text text-anchor="middle" x="2595.38" y="-715.2" font-family="Arial" font-size="14.00" fill="#c6c5fe">gestalt/editor/topicAccess.ts</text>
</g>
<!-- gestalt/editor/gestaltEditor.ts&#45;&gt;gestalt/editor/topicAccess.ts -->
<g id="edge53" class="edge">
<title>gestalt/editor/gestaltEditor.ts&#45;&gt;gestalt/editor/topicAccess.ts</title>
<path fill="none" stroke="#757575" d="M2333.82,-749.37C2380.96,-744.1 2437.72,-737.76 2486.21,-732.34"/>
<polygon fill="#757575" stroke="#757575" points="2486.33,-735.85 2495.88,-731.26 2485.56,-728.89 2486.33,-735.85"/>
</g>
<!-- gestalt/editor/gestaltAccess.ts -->
<g id="node18" class="node">
<title>gestalt/editor/gestaltAccess.ts</title>
<path fill="none" stroke="#cfffac" d="M2690.46,-393.5C2690.46,-393.5 2500.29,-393.5 2500.29,-393.5 2496.21,-393.5 2492.12,-389.42 2492.12,-385.33 2492.12,-385.33 2492.12,-377.17 2492.12,-377.17 2492.12,-373.08 2496.21,-369 2500.29,-369 2500.29,-369 2690.46,-369 2690.46,-369 2694.54,-369 2698.62,-373.08 2698.62,-377.17 2698.62,-377.17 2698.62,-385.33 2698.62,-385.33 2698.62,-389.42 2694.54,-393.5 2690.46,-393.5"/>
<text text-anchor="middle" x="2595.38" y="-376.2" font-family="Arial" font-size="14.00" fill="#cfffac">gestalt/editor/gestaltAccess.ts</text>
</g>
<!-- gestalt/editor/gestaltEditor.ts&#45;&gt;gestalt/editor/gestaltAccess.ts -->
<g id="edge51" class="edge">
<title>gestalt/editor/gestaltEditor.ts&#45;&gt;gestalt/editor/gestaltAccess.ts</title>
<path fill="none" stroke="#757575" d="M2252.76,-747.56C2291.01,-717.03 2387.88,-635.54 2446.75,-549.25 2469.18,-516.37 2458.22,-498.59 2482.75,-467.25 2504.75,-439.14 2537.93,-415.14 2562.4,-399.69"/>
<polygon fill="#757575" stroke="#757575" points="2563.99,-402.82 2570.68,-394.6 2560.33,-396.86 2563.99,-402.82"/>
</g>
<!-- gestalt/editor/itemWriteAccess.ts -->
<g id="node30" class="node">
<title>gestalt/editor/itemWriteAccess.ts</title>
<path fill="none" stroke="#cfffac" d="M2699.83,-580.5C2699.83,-580.5 2490.92,-580.5 2490.92,-580.5 2486.83,-580.5 2482.75,-576.42 2482.75,-572.33 2482.75,-572.33 2482.75,-564.17 2482.75,-564.17 2482.75,-560.08 2486.83,-556 2490.92,-556 2490.92,-556 2699.83,-556 2699.83,-556 2703.92,-556 2708,-560.08 2708,-564.17 2708,-564.17 2708,-572.33 2708,-572.33 2708,-576.42 2703.92,-580.5 2699.83,-580.5"/>
<text text-anchor="middle" x="2595.38" y="-563.2" font-family="Arial" font-size="14.00" fill="#cfffac">gestalt/editor/itemWriteAccess.ts</text>
</g>
<!-- gestalt/editor/gestaltEditor.ts&#45;&gt;gestalt/editor/itemWriteAccess.ts -->
<g id="edge52" class="edge">
<title>gestalt/editor/gestaltEditor.ts&#45;&gt;gestalt/editor/itemWriteAccess.ts</title>
<path fill="none" stroke="#757575" d="M2260.26,-747.5C2322.31,-714.22 2489.36,-624.59 2561,-586.15"/>
<polygon fill="#757575" stroke="#757575" points="2562.37,-589.39 2569.52,-581.58 2559.06,-583.23 2562.37,-589.39"/>
</g>
<!-- gestalt/topic.ts -->
<g id="node31" class="node">
<title>gestalt/topic.ts</title>
<path fill="none" stroke="#ff6c60" d="M2640.96,-500.5C2640.96,-500.5 2549.79,-500.5 2549.79,-500.5 2545.71,-500.5 2541.62,-496.42 2541.62,-492.33 2541.62,-492.33 2541.62,-484.17 2541.62,-484.17 2541.62,-480.08 2545.71,-476 2549.79,-476 2549.79,-476 2640.96,-476 2640.96,-476 2645.04,-476 2649.12,-480.08 2649.12,-484.17 2649.12,-484.17 2649.12,-492.33 2649.12,-492.33 2649.12,-496.42 2645.04,-500.5 2640.96,-500.5"/>
<text text-anchor="middle" x="2595.38" y="-483.2" font-family="Arial" font-size="14.00" fill="#ff6c60">gestalt/topic.ts</text>
</g>
<!-- gestalt/editor/gestaltEditor.ts&#45;&gt;gestalt/topic.ts -->
<g id="edge55" class="edge">
<title>gestalt/editor/gestaltEditor.ts&#45;&gt;gestalt/topic.ts</title>
<path fill="none" stroke="#757575" d="M2248.99,-747.59C2283.79,-712.75 2385.69,-613.61 2482.75,-547.25 2505.92,-531.41 2533.84,-516.65 2555.96,-505.86"/>
<polygon fill="#757575" stroke="#757575" points="2557.44,-509.03 2564.94,-501.55 2554.41,-502.72 2557.44,-509.03"/>
</g>
<!-- app/edit/components/itemInsertLine.tsx -->
<g id="node6" class="node">
<title>app/edit/components/itemInsertLine.tsx</title>
<path fill="none" stroke="#c6c5fe" d="M1741.71,-1195.5C1741.71,-1195.5 1493.04,-1195.5 1493.04,-1195.5 1488.96,-1195.5 1484.88,-1191.42 1484.88,-1187.33 1484.88,-1187.33 1484.88,-1179.17 1484.88,-1179.17 1484.88,-1175.08 1488.96,-1171 1493.04,-1171 1493.04,-1171 1741.71,-1171 1741.71,-1171 1745.79,-1171 1749.88,-1175.08 1749.88,-1179.17 1749.88,-1179.17 1749.88,-1187.33 1749.88,-1187.33 1749.88,-1191.42 1745.79,-1195.5 1741.71,-1195.5"/>
<text text-anchor="middle" x="1617.38" y="-1178.2" font-family="Arial" font-size="14.00" fill="#c6c5fe">app/edit/components/itemInsertLine.tsx</text>
</g>
<!-- app/edit/components/itemInsertLine.tsx&#45;&gt;app/edit/editorContext.ts -->
<g id="edge4" class="edge">
<title>app/edit/components/itemInsertLine.tsx&#45;&gt;app/edit/editorContext.ts</title>
<path fill="none" stroke="#757575" d="M1734.33,-1195.96C1748.08,-1199.39 1761.69,-1203.74 1774.25,-1209.25 1792.81,-1217.39 1792.22,-1227.99 1810.25,-1237.25 1817.28,-1240.86 1824.89,-1244.05 1832.6,-1246.84"/>
<polygon fill="#757575" stroke="#757575" points="1831.47,-1250.15 1842.06,-1250.04 1833.71,-1243.52 1831.47,-1250.15"/>
</g>
<!-- app/edit/components/itemInsertLine.tsx&#45;&gt;gestalt/editor/gestaltEditor.ts -->
<g id="edge6" class="edge">
<title>app/edit/components/itemInsertLine.tsx&#45;&gt;gestalt/editor/gestaltEditor.ts</title>
<path fill="none" stroke="#757575" d="M1745.55,-1170.57C1821.18,-1158.15 1916.11,-1133.62 1988.25,-1085.25 2109.49,-1003.95 2195.19,-842.75 2223.94,-783.12"/>
<polygon fill="#757575" stroke="#757575" points="2227.01,-784.81 2228.13,-774.28 2220.69,-781.81 2227.01,-784.81"/>
</g>
<!-- app/edit/components/itemInsertLine.tsx&#45;&gt;utils/util.ts -->
<g id="edge8" class="edge">
<title>app/edit/components/itemInsertLine.tsx&#45;&gt;utils/util.ts</title>
<path fill="none" stroke="#757575" d="M1642.33,-1170.52C1674.31,-1152.9 1731.82,-1118.95 1774.25,-1081.25 1818.83,-1041.64 1861.33,-985.62 1883.11,-955.11"/>
<polygon fill="#757575" stroke="#757575" points="1885.9,-957.23 1888.81,-947.05 1880.18,-953.2 1885.9,-957.23"/>
</g>
<!-- gestalt/contentItem.ts -->
<g id="node7" class="node">
<title>gestalt/contentItem.ts</title>
<path fill="none" stroke="#c6c5fe" d="M2895.46,-1186.5C2895.46,-1186.5 2760.04,-1186.5 2760.04,-1186.5 2755.96,-1186.5 2751.88,-1182.42 2751.88,-1178.33 2751.88,-1178.33 2751.88,-1170.17 2751.88,-1170.17 2751.88,-1166.08 2755.96,-1162 2760.04,-1162 2760.04,-1162 2895.46,-1162 2895.46,-1162 2899.54,-1162 2903.62,-1166.08 2903.62,-1170.17 2903.62,-1170.17 2903.62,-1178.33 2903.62,-1178.33 2903.62,-1182.42 2899.54,-1186.5 2895.46,-1186.5"/>
<text text-anchor="middle" x="2827.75" y="-1169.2" font-family="Arial" font-size="14.00" fill="#c6c5fe">gestalt/contentItem.ts</text>
</g>
<!-- app/edit/components/itemInsertLine.tsx&#45;&gt;gestalt/contentItem.ts -->
<g id="edge5" class="edge">
<title>app/edit/components/itemInsertLine.tsx&#45;&gt;gestalt/contentItem.ts</title>
<path fill="none" stroke="#757575" d="M1750.28,-1182.27C1998.96,-1180.42 2530.89,-1176.45 2739.88,-1174.9"/>
<polygon fill="#757575" stroke="#757575" points="2739.9,-1178.4 2749.87,-1174.82 2739.84,-1171.4 2739.9,-1178.4"/>
</g>
<!-- app/edit/components/itemInsertLine.tsx&#45;&gt;gestalt/item.ts -->
<g id="edge7" class="edge">
<title>app/edit/components/itemInsertLine.tsx&#45;&gt;gestalt/item.ts</title>
<path fill="none" stroke="#757575" d="M1741.84,-1195.99C1866.12,-1207.7 2063.4,-1223.25 2234.5,-1223.25 2234.5,-1223.25 2234.5,-1223.25 2828.75,-1223.25 2960.43,-1223.25 3025.59,-1258.56 3119.5,-1166.25 3174.76,-1111.93 3198.48,-862.49 3204.66,-783.98"/>
<polygon fill="#757575" stroke="#757575" points="3208.12,-784.65 3205.38,-774.41 3201.14,-784.12 3208.12,-784.65"/>
</g>
<!-- gestalt/contentItem.ts&#45;&gt;gestalt/item.ts -->
<g id="edge50" class="edge">
<title>gestalt/contentItem.ts&#45;&gt;gestalt/item.ts</title>
<path fill="none" stroke="#757575" d="M2904.02,-1182.2C2969.38,-1184.72 3062.29,-1177.06 3119.5,-1123.25 3169.7,-1076.04 3196.45,-856.7 3204.07,-783.84"/>
<polygon fill="#757575" stroke="#757575" points="3207.51,-784.54 3205.04,-774.24 3200.55,-783.83 3207.51,-784.54"/>
</g>
<!-- utils/JSONifyable.ts -->
<g id="node38" class="node">
<title>utils/JSONifyable.ts</title>
<path fill="none" stroke="#cfffac" d="M3426.08,-443.5C3426.08,-443.5 3303.42,-443.5 3303.42,-443.5 3299.33,-443.5 3295.25,-439.42 3295.25,-435.33 3295.25,-435.33 3295.25,-427.17 3295.25,-427.17 3295.25,-423.08 3299.33,-419 3303.42,-419 3303.42,-419 3426.08,-419 3426.08,-419 3430.17,-419 3434.25,-423.08 3434.25,-427.17 3434.25,-427.17 3434.25,-435.33 3434.25,-435.33 3434.25,-439.42 3430.17,-443.5 3426.08,-443.5"/>
<text text-anchor="middle" x="3364.75" y="-426.2" font-family="Arial" font-size="14.00" fill="#cfffac">utils/JSONifyable.ts</text>
</g>
<!-- gestalt/item.ts&#45;&gt;utils/JSONifyable.ts -->
<g id="edge84" class="edge">
<title>gestalt/item.ts&#45;&gt;utils/JSONifyable.ts</title>
<path fill="none" stroke="#757575" d="M3214.28,-747.75C3237.49,-698.59 3322.76,-518.05 3353.01,-453.98"/>
<polygon fill="#757575" stroke="#757575" points="3356.09,-455.66 3357.2,-445.13 3349.76,-452.67 3356.09,-455.66"/>
</g>
<!-- app/edit/components/selectedTopicViewer.css -->
<g id="node9" class="node">
<title>app/edit/components/selectedTopicViewer.css</title>
<path fill="none" stroke="#cfffac" d="M1766.08,-1393.5C1766.08,-1393.5 1468.67,-1393.5 1468.67,-1393.5 1464.58,-1393.5 1460.5,-1389.42 1460.5,-1385.33 1460.5,-1385.33 1460.5,-1377.17 1460.5,-1377.17 1460.5,-1373.08 1464.58,-1369 1468.67,-1369 1468.67,-1369 1766.08,-1369 1766.08,-1369 1770.17,-1369 1774.25,-1373.08 1774.25,-1377.17 1774.25,-1377.17 1774.25,-1385.33 1774.25,-1385.33 1774.25,-1389.42 1770.17,-1393.5 1766.08,-1393.5"/>
<text text-anchor="middle" x="1617.38" y="-1376.2" font-family="Arial" font-size="14.00" fill="#cfffac">app/edit/components/selectedTopicViewer.css</text>
</g>
<!-- app/edit/components/selectedTopicViewer.tsx -->
<g id="node10" class="node">
<title>app/edit/components/selectedTopicViewer.tsx</title>
<path fill="none" stroke="#c6c5fe" d="M1416.33,-1275.5C1416.33,-1275.5 1123.42,-1275.5 1123.42,-1275.5 1119.33,-1275.5 1115.25,-1271.42 1115.25,-1267.33 1115.25,-1267.33 1115.25,-1259.17 1115.25,-1259.17 1115.25,-1255.08 1119.33,-1251 1123.42,-1251 1123.42,-1251 1416.33,-1251 1416.33,-1251 1420.42,-1251 1424.5,-1255.08 1424.5,-1259.17 1424.5,-1259.17 1424.5,-1267.33 1424.5,-1267.33 1424.5,-1271.42 1420.42,-1275.5 1416.33,-1275.5"/>
<text text-anchor="middle" x="1269.88" y="-1258.2" font-family="Arial" font-size="14.00" fill="#c6c5fe">app/edit/components/selectedTopicViewer.tsx</text>
</g>
<!-- app/edit/components/selectedTopicViewer.tsx&#45;&gt;app/edit/editorContext.ts -->
<g id="edge11" class="edge">
<title>app/edit/components/selectedTopicViewer.tsx&#45;&gt;app/edit/editorContext.ts</title>
<path fill="none" stroke="#757575" d="M1424.75,-1263.25C1542.82,-1263.25 1702.11,-1263.25 1802.51,-1263.25"/>
<polygon fill="#757575" stroke="#757575" points="1802.33,-1266.75 1812.33,-1263.25 1802.33,-1259.75 1802.33,-1266.75"/>
</g>
<!-- app/edit/components/selectedTopicViewer.tsx&#45;&gt;gestalt/editor/gestaltEditor.ts -->
<g id="edge13" class="edge">
<title>app/edit/components/selectedTopicViewer.tsx&#45;&gt;gestalt/editor/gestaltEditor.ts</title>
<path fill="none" stroke="#757575" d="M1283.85,-1250.8C1312.85,-1223.75 1386.25,-1159.63 1460.5,-1129.25 1570.48,-1084.25 1884.44,-1101.06 1988.25,-1043.25 2104.27,-978.64 2191.7,-837.41 2222.47,-782.61"/>
<polygon fill="#757575" stroke="#757575" points="2225.36,-784.62 2227.13,-774.18 2219.23,-781.24 2225.36,-784.62"/>
</g>
<!-- app/edit/components/selectedTopicViewer.tsx&#45;&gt;utils/util.ts -->
<g id="edge18" class="edge">
<title>app/edit/components/selectedTopicViewer.tsx&#45;&gt;utils/util.ts</title>
<path fill="none" stroke="#757575" d="M1280.94,-1250.71C1307.08,-1219.02 1380.63,-1135.1 1460.5,-1091.25 1587.24,-1021.66 1640.9,-1061.13 1774.25,-1005.25 1809.16,-990.62 1846.34,-967.97 1870.79,-951.99"/>
<polygon fill="#757575" stroke="#757575" points="1872.46,-955.08 1878.86,-946.64 1868.59,-949.24 1872.46,-955.08"/>
</g>
<!-- app/edit/components/selectedTopicViewer.tsx&#45;&gt;app/edit/components/itemInsertLine.tsx -->
<g id="edge9" class="edge">
<title>app/edit/components/selectedTopicViewer.tsx&#45;&gt;app/edit/components/itemInsertLine.tsx</title>
<path fill="none" stroke="#757575" d="M1325.62,-1250.57C1386.6,-1236.45 1485.15,-1213.64 1550.35,-1198.54"/>
<polygon fill="#757575" stroke="#757575" points="1550.89,-1202.01 1559.84,-1196.34 1549.31,-1195.19 1550.89,-1202.01"/>
</g>
<!-- app/edit/components/selectedTopicViewer.tsx&#45;&gt;gestalt/item.ts -->
<g id="edge15" class="edge">
<title>app/edit/components/selectedTopicViewer.tsx&#45;&gt;gestalt/item.ts</title>
<path fill="none" stroke="#757575" d="M1288.35,-1250.64C1320.54,-1228.19 1392.19,-1181.81 1460.5,-1162.25 1626.24,-1114.79 2062.1,-1109.25 2234.5,-1109.25 2234.5,-1109.25 2234.5,-1109.25 2828.75,-1109.25 3021.9,-1109.25 3158.3,-859.96 3195.91,-782.76"/>
<polygon fill="#757575" stroke="#757575" points="3198.93,-784.57 3200.08,-774.04 3192.61,-781.55 3198.93,-784.57"/>
</g>
<!-- app/edit/components/selectedTopicViewer.tsx&#45;&gt;app/edit/components/selectedTopicViewer.css -->
<g id="edge10" class="edge">
<title>app/edit/components/selectedTopicViewer.tsx&#45;&gt;app/edit/components/selectedTopicViewer.css</title>
<path fill="none" stroke="#757575" d="M1291.94,-1275.97C1326.08,-1296.01 1396.18,-1334.75 1460.5,-1355.25 1474.14,-1359.6 1488.7,-1363.25 1503.24,-1366.32"/>
<polygon fill="#757575" stroke="#757575" points="1502.36,-1369.71 1512.85,-1368.25 1503.74,-1362.85 1502.36,-1369.71"/>
</g>
<!-- app/items/nameItem.tsx -->
<g id="node11" class="node">
<title>app/items/nameItem.tsx</title>
<path fill="none" stroke="#ff6c60" d="M2903.33,-1275.5C2903.33,-1275.5 2752.17,-1275.5 2752.17,-1275.5 2748.08,-1275.5 2744,-1271.42 2744,-1267.33 2744,-1267.33 2744,-1259.17 2744,-1259.17 2744,-1255.08 2748.08,-1251 2752.17,-1251 2752.17,-1251 2903.33,-1251 2903.33,-1251 2907.42,-1251 2911.5,-1255.08 2911.5,-1259.17 2911.5,-1259.17 2911.5,-1267.33 2911.5,-1267.33 2911.5,-1271.42 2907.42,-1275.5 2903.33,-1275.5"/>
<text text-anchor="middle" x="2827.75" y="-1258.2" font-family="Arial" font-size="14.00" fill="#ff6c60">app/items/nameItem.tsx</text>
</g>
<!-- app/edit/components/selectedTopicViewer.tsx&#45;&gt;app/items/nameItem.tsx -->
<g id="edge12" class="edge">
<title>app/edit/components/selectedTopicViewer.tsx&#45;&gt;app/items/nameItem.tsx</title>
<path fill="none" stroke="#757575" d="M1302.79,-1275.97C1339.98,-1290.14 1403.61,-1312.34 1460.5,-1322.25 1652.35,-1355.68 1703.51,-1341.25 1898.25,-1341.25 1898.25,-1341.25 1898.25,-1341.25 2236.5,-1341.25 2426.68,-1341.25 2648.38,-1300.96 2758.06,-1278.29"/>
<polygon fill="#757575" stroke="#757575" points="2758.72,-1281.73 2767.79,-1276.26 2757.29,-1274.88 2758.72,-1281.73"/>
</g>
<!-- app/edit/components/selectedTopicViewer.tsx&#45;&gt;gestalt/editor/topicAccess.ts -->
<g id="edge14" class="edge">
<title>app/edit/components/selectedTopicViewer.tsx&#45;&gt;gestalt/editor/topicAccess.ts</title>
<path fill="none" stroke="#757575" d="M1276.88,-1275.94C1296.5,-1315.69 1363.06,-1437.73 1460.5,-1482.25 1587.33,-1540.2 1644.41,-1533.1 1774.25,-1482.25 2183.64,-1321.91 2509.9,-849.93 2580.28,-742.28"/>
<polygon fill="#757575" stroke="#757575" points="2583.12,-744.33 2585.63,-734.03 2577.25,-740.52 2583.12,-744.33"/>
</g>
<!-- tex/Tex.tsx -->
<g id="node13" class="node">
<title>tex/Tex.tsx</title>
<path fill="none" stroke="#cfffac" d="M1651.33,-1705.5C1651.33,-1705.5 1583.42,-1705.5 1583.42,-1705.5 1579.33,-1705.5 1575.25,-1701.42 1575.25,-1697.33 1575.25,-1697.33 1575.25,-1689.17 1575.25,-1689.17 1575.25,-1685.08 1579.33,-1681 1583.42,-1681 1583.42,-1681 1651.33,-1681 1651.33,-1681 1655.42,-1681 1659.5,-1685.08 1659.5,-1689.17 1659.5,-1689.17 1659.5,-1697.33 1659.5,-1697.33 1659.5,-1701.42 1655.42,-1705.5 1651.33,-1705.5"/>
<text text-anchor="middle" x="1617.38" y="-1688.2" font-family="Arial" font-size="14.00" fill="#cfffac">tex/Tex.tsx</text>
</g>
<!-- app/edit/components/selectedTopicViewer.tsx&#45;&gt;tex/Tex.tsx -->
<g id="edge16" class="edge">
<title>app/edit/components/selectedTopicViewer.tsx&#45;&gt;tex/Tex.tsx</title>
<path fill="none" stroke="#757575" d="M1279.83,-1275.82C1306.46,-1313.07 1387.84,-1425.79 1460.5,-1515.25 1507.84,-1573.54 1567.06,-1639.35 1597.05,-1672.22"/>
<polygon fill="#757575" stroke="#757575" points="1594.34,-1674.44 1603.68,-1679.46 1599.51,-1669.72 1594.34,-1674.44"/>
</g>
<!-- tex/texDefaultMacros.ts -->
<g id="node14" class="node">
<title>tex/texDefaultMacros.ts</title>
<path fill="none" stroke="#cfffac" d="M1691.08,-1313.5C1691.08,-1313.5 1543.67,-1313.5 1543.67,-1313.5 1539.58,-1313.5 1535.5,-1309.42 1535.5,-1305.33 1535.5,-1305.33 1535.5,-1297.17 1535.5,-1297.17 1535.5,-1293.08 1539.58,-1289 1543.67,-1289 1543.67,-1289 1691.08,-1289 1691.08,-1289 1695.17,-1289 1699.25,-1293.08 1699.25,-1297.17 1699.25,-1297.17 1699.25,-1305.33 1699.25,-1305.33 1699.25,-1309.42 1695.17,-1313.5 1691.08,-1313.5"/>
<text text-anchor="middle" x="1617.38" y="-1296.2" font-family="Arial" font-size="14.00" fill="#cfffac">tex/texDefaultMacros.ts</text>
</g>
<!-- app/edit/components/selectedTopicViewer.tsx&#45;&gt;tex/texDefaultMacros.ts -->
<g id="edge17" class="edge">
<title>app/edit/components/selectedTopicViewer.tsx&#45;&gt;tex/texDefaultMacros.ts</title>
<path fill="none" stroke="#757575" d="M1386.4,-1275.96C1431.06,-1280.87 1481.46,-1286.41 1523.68,-1291.05"/>
<polygon fill="#757575" stroke="#757575" points="1523.24,-1294.53 1533.57,-1292.14 1524.01,-1287.57 1523.24,-1294.53"/>
</g>
<!-- app/items/nameItem.tsx&#45;&gt;app/edit/editorContext.ts -->
<g id="edge42" class="edge">
<title>app/items/nameItem.tsx&#45;&gt;app/edit/editorContext.ts</title>
<path fill="none" stroke="#757575" d="M2743.6,-1263.25C2571.84,-1263.25 2178.68,-1263.25 1996.36,-1263.25"/>
<polygon fill="#757575" stroke="#757575" points="1996.44,-1259.75 1986.44,-1263.25 1996.44,-1266.75 1996.44,-1259.75"/>
</g>
<!-- app/items/nameItem.tsx&#45;&gt;gestalt/item.ts -->
<g id="edge44" class="edge">
<title>app/items/nameItem.tsx&#45;&gt;gestalt/item.ts</title>
<path fill="none" stroke="#757575" d="M2911.67,-1266.62C2986.77,-1267.8 3090.03,-1264.16 3119.5,-1237.25 3187.34,-1175.31 3202.65,-872.25 3205.69,-784.25"/>
<polygon fill="#757575" stroke="#757575" points="3209.18,-784.5 3206.01,-774.39 3202.19,-784.28 3209.18,-784.5"/>
</g>
<!-- gestalt/metadataItem.ts -->
<g id="node24" class="node">
<title>gestalt/metadataItem.ts</title>
<path fill="none" stroke="#c6c5fe" d="M3107.21,-732.5C3107.21,-732.5 2959.79,-732.5 2959.79,-732.5 2955.71,-732.5 2951.62,-728.42 2951.62,-724.33 2951.62,-724.33 2951.62,-716.17 2951.62,-716.17 2951.62,-712.08 2955.71,-708 2959.79,-708 2959.79,-708 3107.21,-708 3107.21,-708 3111.29,-708 3115.38,-712.08 3115.38,-716.17 3115.38,-716.17 3115.38,-724.33 3115.38,-724.33 3115.38,-728.42 3111.29,-732.5 3107.21,-732.5"/>
<text text-anchor="middle" x="3033.5" y="-715.2" font-family="Arial" font-size="14.00" fill="#c6c5fe">gestalt/metadataItem.ts</text>
</g>
<!-- app/items/nameItem.tsx&#45;&gt;gestalt/metadataItem.ts -->
<g id="edge45" class="edge">
<title>app/items/nameItem.tsx&#45;&gt;gestalt/metadataItem.ts</title>
<path fill="none" stroke="#757575" d="M2851.12,-1250.51C2870.01,-1238.6 2896.34,-1219.1 2911.5,-1195.25 3008.38,-1042.83 3027.79,-816.69 3031.59,-743.8"/>
<polygon fill="#757575" stroke="#757575" points="3035.07,-744.4 3032.04,-734.24 3028.08,-744.07 3035.07,-744.4"/>
</g>
<!-- app/items/nameItem.css -->
<g id="node27" class="node">
<title>app/items/nameItem.css</title>
<path fill="none" stroke="#cfffac" d="M3111.33,-1313.5C3111.33,-1313.5 2955.67,-1313.5 2955.67,-1313.5 2951.58,-1313.5 2947.5,-1309.42 2947.5,-1305.33 2947.5,-1305.33 2947.5,-1297.17 2947.5,-1297.17 2947.5,-1293.08 2951.58,-1289 2955.67,-1289 2955.67,-1289 3111.33,-1289 3111.33,-1289 3115.42,-1289 3119.5,-1293.08 3119.5,-1297.17 3119.5,-1297.17 3119.5,-1305.33 3119.5,-1305.33 3119.5,-1309.42 3115.42,-1313.5 3111.33,-1313.5"/>
<text text-anchor="middle" x="3033.5" y="-1296.2" font-family="Arial" font-size="14.00" fill="#cfffac">app/items/nameItem.css</text>
</g>
<!-- app/items/nameItem.tsx&#45;&gt;app/items/nameItem.css -->
<g id="edge43" class="edge">
<title>app/items/nameItem.tsx&#45;&gt;app/items/nameItem.css</title>
<path fill="none" stroke="#757575" d="M2896.88,-1275.96C2914.98,-1279.33 2934.67,-1283 2953.3,-1286.48"/>
<polygon fill="#757575" stroke="#757575" points="2952.48,-1289.89 2962.95,-1288.28 2953.76,-1283 2952.48,-1289.89"/>
</g>
<!-- gestalt/editor/topicAccess.ts&#45;&gt;gestalt/metadataItem.ts -->
<g id="edge80" class="edge">
<title>gestalt/editor/topicAccess.ts&#45;&gt;gestalt/metadataItem.ts</title>
<path fill="none" stroke="#757575" d="M2693.44,-720.25C2767.06,-720.25 2867.6,-720.25 2940.06,-720.25"/>
<polygon fill="#757575" stroke="#757575" points="2939.93,-723.75 2949.93,-720.25 2939.93,-716.75 2939.93,-723.75"/>
</g>
<!-- app/edit/page.tsx -->
<g id="node15" class="node">
<title>app/edit/page.tsx</title>
<path fill="none" stroke="#c6c5fe" d="M131.58,-863.5C131.58,-863.5 23.17,-863.5 23.17,-863.5 19.08,-863.5 15,-859.42 15,-855.33 15,-855.33 15,-847.17 15,-847.17 15,-843.08 19.08,-839 23.17,-839 23.17,-839 131.58,-839 131.58,-839 135.67,-839 139.75,-843.08 139.75,-847.17 139.75,-847.17 139.75,-855.33 139.75,-855.33 139.75,-859.42 135.67,-863.5 131.58,-863.5"/>
<text text-anchor="middle" x="77.38" y="-846.2" font-family="Arial" font-size="14.00" fill="#c6c5fe">app/edit/page.tsx</text>
</g>
<!-- app/edit/page.tsx&#45;&gt;app/edit/components/gestaltViewer.tsx -->
<g id="edge20" class="edge">
<title>app/edit/page.tsx&#45;&gt;app/edit/components/gestaltViewer.tsx</title>
<path fill="none" stroke="#757575" d="M139.93,-863.26C145.32,-865.95 150.38,-869.24 154.75,-873.25 187.7,-903.51 156.83,-938.08 190.75,-967.25 208.11,-982.18 229.38,-992.39 251.51,-999.31"/>
<polygon fill="#757575" stroke="#757575" points="250.4,-1002.64 260.97,-1002.04 252.33,-995.91 250.4,-1002.64"/>
</g>
<!-- app/edit/page.tsx&#45;&gt;app/edit/editorContext.ts -->
<g id="edge22" class="edge">
<title>app/edit/page.tsx&#45;&gt;app/edit/editorContext.ts</title>
<path fill="none" stroke="#757575" d="M140.24,-861.86C145.71,-864.82 150.7,-868.55 154.75,-873.25 233.79,-964.94 117.17,-1047.12 190.75,-1143.25 385.08,-1397.14 534.52,-1421.25 854.25,-1421.25 854.25,-1421.25 854.25,-1421.25 1270.88,-1421.25 1382.82,-1421.25 1672.97,-1449.93 1774.25,-1402.25 1827.09,-1377.37 1867.08,-1318.43 1886.06,-1285.85"/>
<polygon fill="#757575" stroke="#757575" points="1889.07,-1287.65 1890.94,-1277.22 1882.97,-1284.21 1889.07,-1287.65"/>
</g>
<!-- app/edit/page.tsx&#45;&gt;gestalt/editor/gestaltEditor.ts -->
<g id="edge26" class="edge">
<title>app/edit/page.tsx&#45;&gt;gestalt/editor/gestaltEditor.ts</title>
<path fill="none" stroke="#757575" d="M135.95,-838.56C264.24,-811.43 583.59,-750.25 854.25,-750.25 854.25,-750.25 854.25,-750.25 1270.88,-750.25 1580.9,-750.25 1947.01,-755.49 2125.56,-758.38"/>
<polygon fill="#757575" stroke="#757575" points="2125.48,-761.88 2135.53,-758.55 2125.59,-754.88 2125.48,-761.88"/>
</g>
<!-- app/edit/page.tsx&#45;&gt;utils/util.ts -->
<g id="edge29" class="edge">
<title>app/edit/page.tsx&#45;&gt;utils/util.ts</title>
<path fill="none" stroke="#757575" d="M135.46,-863.96C263.42,-891.31 583.21,-953.25 854.25,-953.25 854.25,-953.25 854.25,-953.25 1270.88,-953.25 1486.46,-953.25 1743.51,-941.31 1849.19,-935.88"/>
<polygon fill="#757575" stroke="#757575" points="1849.11,-939.39 1858.92,-935.37 1848.75,-932.4 1849.11,-939.39"/>
</g>
<!-- app/edit/page.tsx&#45;&gt;app/edit/components/selectedTopicViewer.tsx -->
<g id="edge21" class="edge">
<title>app/edit/page.tsx&#45;&gt;app/edit/components/selectedTopicViewer.tsx</title>
<path fill="none" stroke="#757575" d="M140.18,-862.44C145.59,-865.29 150.58,-868.83 154.75,-873.25 204.48,-925.94 145.25,-975.86 190.75,-1032.25 326.35,-1200.3 421.41,-1186.31 631.25,-1237.25 788.3,-1275.38 973.4,-1278.5 1103.6,-1274.12"/>
<polygon fill="#757575" stroke="#757575" points="1103.46,-1277.63 1113.32,-1273.78 1103.21,-1270.63 1103.46,-1277.63"/>
</g>
<!-- app/edit/style.css -->
<g id="node16" class="node">
<title>app/edit/style.css</title>
<path fill="none" stroke="#cfffac" d="M447.96,-110.5C447.96,-110.5 338.04,-110.5 338.04,-110.5 333.96,-110.5 329.88,-106.42 329.88,-102.33 329.88,-102.33 329.88,-94.17 329.88,-94.17 329.88,-90.08 333.96,-86 338.04,-86 338.04,-86 447.96,-86 447.96,-86 452.04,-86 456.12,-90.08 456.12,-94.17 456.12,-94.17 456.12,-102.33 456.12,-102.33 456.12,-106.42 452.04,-110.5 447.96,-110.5"/>
<text text-anchor="middle" x="393" y="-93.2" font-family="Arial" font-size="14.00" fill="#cfffac">app/edit/style.css</text>
</g>
<!-- app/edit/page.tsx&#45;&gt;app/edit/style.css -->
<g id="edge23" class="edge">
<title>app/edit/page.tsx&#45;&gt;app/edit/style.css</title>
<path fill="none" stroke="#757575" d="M78.35,-838.66C78.46,-750.71 83.67,-228.7 190.75,-124.25 223.74,-92.07 275.56,-85.99 318.36,-87.74"/>
<polygon fill="#757575" stroke="#757575" points="317.9,-91.22 328.08,-88.29 318.3,-84.23 317.9,-91.22"/>
</g>
<!-- app/items/allItems.ts -->
<g id="node17" class="node">
<title>app/items/allItems.ts</title>
<path fill="none" stroke="#c6c5fe" d="M458.08,-1650.5C458.08,-1650.5 327.92,-1650.5 327.92,-1650.5 323.83,-1650.5 319.75,-1646.42 319.75,-1642.33 319.75,-1642.33 319.75,-1634.17 319.75,-1634.17 319.75,-1630.08 323.83,-1626 327.92,-1626 327.92,-1626 458.08,-1626 458.08,-1626 462.17,-1626 466.25,-1630.08 466.25,-1634.17 466.25,-1634.17 466.25,-1642.33 466.25,-1642.33 466.25,-1646.42 462.17,-1650.5 458.08,-1650.5"/>
<text text-anchor="middle" x="393" y="-1633.2" font-family="Arial" font-size="14.00" fill="#c6c5fe">app/items/allItems.ts</text>
</g>
<!-- app/edit/page.tsx&#45;&gt;app/items/allItems.ts -->
<g id="edge24" class="edge">
<title>app/edit/page.tsx&#45;&gt;app/items/allItems.ts</title>
<path fill="none" stroke="#757575" d="M140.21,-861.39C145.76,-864.42 150.77,-868.3 154.75,-873.25 233.16,-970.78 139.43,-1321.11 190.75,-1435.25 228.29,-1518.74 316.22,-1587.31 362.43,-1619.11"/>
<polygon fill="#757575" stroke="#757575" points="360.4,-1621.96 370.64,-1624.66 364.32,-1616.16 360.4,-1621.96"/>
</g>
<!-- app/edit/page.tsx&#45;&gt;gestalt/editor/gestaltAccess.ts -->
<g id="edge25" class="edge">
<title>app/edit/page.tsx&#45;&gt;gestalt/editor/gestaltAccess.ts</title>
<path fill="none" stroke="#757575" d="M89.78,-838.78C108.68,-818.99 148.59,-780.75 190.75,-762.25 245.13,-738.39 2058.75,-462.45 2498.87,-395.71"/>
<polygon fill="#757575" stroke="#757575" points="2499.39,-399.17 2508.75,-394.21 2498.34,-392.25 2499.39,-399.17"/>
</g>
<!-- gestalt/editor/implementations/private/privateGestaltAccess.ts -->
<g id="node19" class="node">
<title>gestalt/editor/implementations/private/privateGestaltAccess.ts</title>
<path fill="none" stroke="#c6c5fe" d="M587.08,-403.5C587.08,-403.5 198.92,-403.5 198.92,-403.5 194.83,-403.5 190.75,-399.42 190.75,-395.33 190.75,-395.33 190.75,-387.17 190.75,-387.17 190.75,-383.08 194.83,-379 198.92,-379 198.92,-379 587.08,-379 587.08,-379 591.17,-379 595.25,-383.08 595.25,-387.17 595.25,-387.17 595.25,-395.33 595.25,-395.33 595.25,-399.42 591.17,-403.5 587.08,-403.5"/>
<text text-anchor="middle" x="393" y="-386.2" font-family="Arial" font-size="14.00" fill="#c6c5fe">gestalt/editor/implementations/private/privateGestaltAccess.ts</text>
</g>
<!-- app/edit/page.tsx&#45;&gt;gestalt/editor/implementations/private/privateGestaltAccess.ts -->
<g id="edge27" class="edge">
<title>app/edit/page.tsx&#45;&gt;gestalt/editor/implementations/private/privateGestaltAccess.ts</title>
<path fill="none" stroke="#757575" d="M86.42,-838.64C104.69,-810.09 150.8,-738.36 190.75,-679.25 258.67,-578.75 342.5,-460.61 376.55,-412.87"/>
<polygon fill="#757575" stroke="#757575" points="379.19,-415.19 382.15,-405.02 373.49,-411.12 379.19,-415.19"/>
</g>
<!-- gestalt/gestalt.ts -->
<g id="node20" class="node">
<title>gestalt/gestalt.ts</title>
<path fill="none" stroke="#c6c5fe" d="M1321.08,-190.5C1321.08,-190.5 1218.67,-190.5 1218.67,-190.5 1214.58,-190.5 1210.5,-186.42 1210.5,-182.33 1210.5,-182.33 1210.5,-174.17 1210.5,-174.17 1210.5,-170.08 1214.58,-166 1218.67,-166 1218.67,-166 1321.08,-166 1321.08,-166 1325.17,-166 1329.25,-170.08 1329.25,-174.17 1329.25,-174.17 1329.25,-182.33 1329.25,-182.33 1329.25,-186.42 1325.17,-190.5 1321.08,-190.5"/>
<text text-anchor="middle" x="1269.88" y="-173.2" font-family="Arial" font-size="14.00" fill="#c6c5fe">gestalt/gestalt.ts</text>
</g>
<!-- app/edit/page.tsx&#45;&gt;gestalt/gestalt.ts -->
<g id="edge28" class="edge">
<title>app/edit/page.tsx&#45;&gt;gestalt/gestalt.ts</title>
<path fill="none" stroke="#757575" d="M79.81,-838.89C87.89,-771.31 129.39,-446.91 190.75,-370.25 439.41,-59.56 1002.19,-128.57 1199.19,-164.08"/>
<polygon fill="#757575" stroke="#757575" points="1198.29,-167.47 1208.75,-165.83 1199.55,-160.59 1198.29,-167.47"/>
</g>
<!-- app/items/allItems.ts&#45;&gt;gestalt/contentItem.ts -->
<g id="edge33" class="edge">
<title>app/items/allItems.ts&#45;&gt;gestalt/contentItem.ts</title>
<path fill="none" stroke="#757575" d="M457.21,-1625.53C504.88,-1616.32 571.96,-1604.13 631.25,-1596.25 913.29,-1558.75 984.36,-1539.25 1268.88,-1539.25 1268.88,-1539.25 1268.88,-1539.25 2236.5,-1539.25 2369,-1539.25 2709.52,-1269.82 2802.81,-1193.93"/>
<polygon fill="#757575" stroke="#757575" points="2804.82,-1196.81 2810.36,-1187.77 2800.4,-1191.38 2804.82,-1196.81"/>
</g>
<!-- app/items/allItems.ts&#45;&gt;app/items/nameItem.tsx -->
<g id="edge31" class="edge">
<title>app/items/allItems.ts&#45;&gt;app/items/nameItem.tsx</title>
<path fill="none" stroke="#757575" d="M451.2,-1650.93C499.05,-1660.98 569.25,-1674.43 631.25,-1681.25 860.66,-1706.48 2527.44,-1784 2708,-1640.25 2820.47,-1550.71 2828.39,-1355.24 2827.55,-1287.19"/>
<polygon fill="#757575" stroke="#757575" points="2831.05,-1287.11 2827.34,-1277.19 2824.05,-1287.26 2831.05,-1287.11"/>
</g>
<!-- app/items/mathItem.tsx -->
<g id="node22" class="node">
<title>app/items/mathItem.tsx</title>
<path fill="none" stroke="#c6c5fe" d="M928.58,-1629.5C928.58,-1629.5 781.92,-1629.5 781.92,-1629.5 777.83,-1629.5 773.75,-1625.42 773.75,-1621.33 773.75,-1621.33 773.75,-1613.17 773.75,-1613.17 773.75,-1609.08 777.83,-1605 781.92,-1605 781.92,-1605 928.58,-1605 928.58,-1605 932.67,-1605 936.75,-1609.08 936.75,-1613.17 936.75,-1613.17 936.75,-1621.33 936.75,-1621.33 936.75,-1625.42 932.67,-1629.5 928.58,-1629.5"/>
<text text-anchor="middle" x="855.25" y="-1612.2" font-family="Arial" font-size="14.00" fill="#c6c5fe">app/items/mathItem.tsx</text>
</g>
<!-- app/items/allItems.ts&#45;&gt;app/items/mathItem.tsx -->
<g id="edge30" class="edge">
<title>app/items/allItems.ts&#45;&gt;app/items/mathItem.tsx</title>
<path fill="none" stroke="#757575" d="M466.67,-1634.93C546.55,-1631.29 675.06,-1625.43 761.99,-1621.46"/>
<polygon fill="#757575" stroke="#757575" points="762.1,-1624.96 771.93,-1621.01 761.78,-1617.97 762.1,-1624.96"/>
</g>
<!-- app/items/paragraphItem.tsx -->
<g id="node23" class="node">
<title>app/items/paragraphItem.tsx</title>
<path fill="none" stroke="#c6c5fe" d="M945.08,-1672.5C945.08,-1672.5 765.42,-1672.5 765.42,-1672.5 761.33,-1672.5 757.25,-1668.42 757.25,-1664.33 757.25,-1664.33 757.25,-1656.17 757.25,-1656.17 757.25,-1652.08 761.33,-1648 765.42,-1648 765.42,-1648 945.08,-1648 945.08,-1648 949.17,-1648 953.25,-1652.08 953.25,-1656.17 953.25,-1656.17 953.25,-1664.33 953.25,-1664.33 953.25,-1668.42 949.17,-1672.5 945.08,-1672.5"/>
<text text-anchor="middle" x="855.25" y="-1655.2" font-family="Arial" font-size="14.00" fill="#c6c5fe">app/items/paragraphItem.tsx</text>
</g>
<!-- app/items/allItems.ts&#45;&gt;app/items/paragraphItem.tsx -->
<g id="edge32" class="edge">
<title>app/items/allItems.ts&#45;&gt;app/items/paragraphItem.tsx</title>
<path fill="none" stroke="#757575" d="M466.67,-1641.72C541.71,-1645.31 659.64,-1650.95 745.72,-1655.06"/>
<polygon fill="#757575" stroke="#757575" points="745.45,-1658.55 755.61,-1655.53 745.78,-1651.56 745.45,-1658.55"/>
</g>
<!-- app/items/allItems.ts&#45;&gt;gestalt/metadataItem.ts -->
<g id="edge34" class="edge">
<title>app/items/allItems.ts&#45;&gt;gestalt/metadataItem.ts</title>
<path fill="none" stroke="#757575" d="M429.25,-1650.93C475.14,-1666.9 558.12,-1693.98 631.25,-1708.25 910.75,-1762.78 984.11,-1771.25 1268.88,-1771.25 1268.88,-1771.25 1268.88,-1771.25 2236.5,-1771.25 2449.76,-1771.25 2537.25,-1810.01 2708,-1682.25 2867.07,-1563.23 2844.87,-1471.41 2911.5,-1284.25 2983.55,-1081.86 3019.81,-822.62 3029.67,-743.93"/>
<polygon fill="#757575" stroke="#757575" points="3033.1,-744.74 3030.85,-734.39 3026.15,-743.89 3033.1,-744.74"/>
</g>
<!-- gestalt/editor/implementations/private/privateGestaltAccess.ts&#45;&gt;gestalt/editor/topicAccess.ts -->
<g id="edge61" class="edge">
<title>gestalt/editor/implementations/private/privateGestaltAccess.ts&#45;&gt;gestalt/editor/topicAccess.ts</title>
<path fill="none" stroke="#757575" d="M417.02,-403.85C458.78,-426.36 550.23,-474.05 631.25,-505.25 1214.98,-730.05 1399.04,-686.38 2024.25,-706.25 2185.03,-711.36 2371.36,-715.62 2486.05,-718.06"/>
<polygon fill="#757575" stroke="#757575" points="2485.68,-721.55 2495.75,-718.26 2485.83,-714.55 2485.68,-721.55"/>
</g>
<!-- gestalt/editor/implementations/private/privateGestaltAccess.ts&#45;&gt;gestalt/editor/gestaltAccess.ts -->
<g id="edge58" class="edge">
<title>gestalt/editor/implementations/private/privateGestaltAccess.ts&#45;&gt;gestalt/editor/gestaltAccess.ts</title>
<path fill="none" stroke="#757575" d="M595.68,-382.26C903.59,-369.02 1509.45,-344.93 2024.25,-336.25 2212,-333.08 2261.02,-308.57 2446.75,-336.25 2483.06,-341.66 2522.78,-354.17 2551.87,-364.63"/>
<polygon fill="#757575" stroke="#757575" points="2550.45,-367.83 2561.05,-367.99 2552.86,-361.26 2550.45,-367.83"/>
</g>
<!-- gestalt/editor/implementations/private/privateGestaltAccess.ts&#45;&gt;gestalt/gestalt.ts -->
<g id="edge62" class="edge">
<title>gestalt/editor/implementations/private/privateGestaltAccess.ts&#45;&gt;gestalt/gestalt.ts</title>
<path fill="none" stroke="#757575" d="M415.68,-378.65C456.4,-355.67 547.72,-307.29 631.25,-285.25 824.66,-234.23 899.49,-329.98 1079.25,-242.25 1100.16,-232.05 1094.72,-215.2 1115.25,-204.25 1140.74,-190.65 1171.69,-183.88 1199.12,-180.6"/>
<polygon fill="#757575" stroke="#757575" points="1199.14,-184.11 1208.72,-179.59 1198.41,-177.15 1199.14,-184.11"/>
</g>
<!-- gestalt/editor/gestaltViewData.ts -->
<g id="node32" class="node">
<title>gestalt/editor/gestaltViewData.ts</title>
<path fill="none" stroke="#c6c5fe" d="M956.33,-190.5C956.33,-190.5 754.17,-190.5 754.17,-190.5 750.08,-190.5 746,-186.42 746,-182.33 746,-182.33 746,-174.17 746,-174.17 746,-170.08 750.08,-166 754.17,-166 754.17,-166 956.33,-166 956.33,-166 960.42,-166 964.5,-170.08 964.5,-174.17 964.5,-174.17 964.5,-182.33 964.5,-182.33 964.5,-186.42 960.42,-190.5 956.33,-190.5"/>
<text text-anchor="middle" x="855.25" y="-173.2" font-family="Arial" font-size="14.00" fill="#c6c5fe">gestalt/editor/gestaltViewData.ts</text>
</g>
<!-- gestalt/editor/implementations/private/privateGestaltAccess.ts&#45;&gt;gestalt/editor/gestaltViewData.ts -->
<g id="edge59" class="edge">
<title>gestalt/editor/implementations/private/privateGestaltAccess.ts&#45;&gt;gestalt/editor/gestaltViewData.ts</title>
<path fill="none" stroke="#757575" d="M404.71,-378.53C435.56,-342.91 528.95,-242.07 631.25,-200.25 663.42,-187.1 700.29,-180.45 734.67,-177.36"/>
<polygon fill="#757575" stroke="#757575" points="734.53,-180.88 744.22,-176.6 733.98,-173.9 734.53,-180.88"/>
</g>
<!-- gestalt/editor/implementations/private/privateSharedTopicAccess.tsx -->
<g id="node34" class="node">
<title>gestalt/editor/implementations/private/privateSharedTopicAccess.tsx</title>
<path fill="none" stroke="#c6c5fe" d="M1071.08,-496.5C1071.08,-496.5 639.42,-496.5 639.42,-496.5 635.33,-496.5 631.25,-492.42 631.25,-488.33 631.25,-488.33 631.25,-480.17 631.25,-480.17 631.25,-476.08 635.33,-472 639.42,-472 639.42,-472 1071.08,-472 1071.08,-472 1075.17,-472 1079.25,-476.08 1079.25,-480.17 1079.25,-480.17 1079.25,-488.33 1079.25,-488.33 1079.25,-492.42 1075.17,-496.5 1071.08,-496.5"/>
<text text-anchor="middle" x="855.25" y="-479.2" font-family="Arial" font-size="14.00" fill="#c6c5fe">gestalt/editor/implementations/private/privateSharedTopicAccess.tsx</text>
</g>
<!-- gestalt/editor/implementations/private/privateGestaltAccess.ts&#45;&gt;gestalt/editor/implementations/private/privateSharedTopicAccess.tsx -->
<g id="edge60" class="edge">
<title>gestalt/editor/implementations/private/privateGestaltAccess.ts&#45;&gt;gestalt/editor/implementations/private/privateSharedTopicAccess.tsx</title>
<path fill="none" stroke="#757575" d="M457.03,-403.99C541.32,-421.02 690.49,-451.16 780.08,-469.26"/>
<polygon fill="#757575" stroke="#757575" points="779.26,-472.67 789.76,-471.22 780.65,-465.81 779.26,-472.67"/>
</g>
<!-- gestalt/gestalt.ts&#45;&gt;gestalt/topic.ts -->
<g id="edge81" class="edge">
<title>gestalt/gestalt.ts&#45;&gt;gestalt/topic.ts</title>
<path fill="none" stroke="#757575" d="M1309.29,-190.88C1419.5,-226.76 1746.59,-330.71 2024.25,-393.25 2206.07,-434.2 2424.16,-465.74 2530.19,-479.96"/>
<polygon fill="#757575" stroke="#757575" points="2529.45,-483.4 2539.83,-481.25 2530.38,-476.46 2529.45,-483.4"/>
</g>
<!-- gestalt/topicContent.ts -->
<g id="node37" class="node">
<title>gestalt/topicContent.ts</title>
<path fill="none" stroke="#cfffac" d="M2898.08,-190.5C2898.08,-190.5 2757.42,-190.5 2757.42,-190.5 2753.33,-190.5 2749.25,-186.42 2749.25,-182.33 2749.25,-182.33 2749.25,-174.17 2749.25,-174.17 2749.25,-170.08 2753.33,-166 2757.42,-166 2757.42,-166 2898.08,-166 2898.08,-166 2902.17,-166 2906.25,-170.08 2906.25,-174.17 2906.25,-174.17 2906.25,-182.33 2906.25,-182.33 2906.25,-186.42 2902.17,-190.5 2898.08,-190.5"/>
<text text-anchor="middle" x="2827.75" y="-173.2" font-family="Arial" font-size="14.00" fill="#cfffac">gestalt/topicContent.ts</text>
</g>
<!-- gestalt/gestalt.ts&#45;&gt;gestalt/topicContent.ts -->
<g id="edge82" class="edge">
<title>gestalt/gestalt.ts&#45;&gt;gestalt/topicContent.ts</title>
<path fill="none" stroke="#757575" d="M1329.69,-178.25C1440.79,-178.25 1689.12,-178.25 1898.25,-178.25 1898.25,-178.25 1898.25,-178.25 2236.5,-178.25 2414.27,-178.25 2622.14,-178.25 2737.7,-178.25"/>
<polygon fill="#757575" stroke="#757575" points="2737.42,-181.75 2747.42,-178.25 2737.42,-174.75 2737.42,-181.75"/>
</g>
<!-- gestalt/gestalt.ts&#45;&gt;utils/JSONifyable.ts -->
<g id="edge83" class="edge">
<title>gestalt/gestalt.ts&#45;&gt;utils/JSONifyable.ts</title>
<path fill="none" stroke="#757575" d="M1329.61,-172C1440.58,-160.75 1688.7,-138.25 1898.25,-138.25 1898.25,-138.25 1898.25,-138.25 3034.5,-138.25 3196.86,-138.25 3316.27,-339.54 3352.39,-408.44"/>
<polygon fill="#757575" stroke="#757575" points="3349.26,-410.02 3356.95,-417.31 3355.49,-406.82 3349.26,-410.02"/>
</g>
<!-- app/globals.css -->
<g id="node21" class="node">
<title>app/globals.css</title>
<path fill="none" stroke="#cfffac" d="M442.71,-24.5C442.71,-24.5 343.29,-24.5 343.29,-24.5 339.21,-24.5 335.12,-20.42 335.12,-16.33 335.12,-16.33 335.12,-8.17 335.12,-8.17 335.12,-4.08 339.21,0 343.29,0 343.29,0 442.71,0 442.71,0 446.79,0 450.88,-4.08 450.88,-8.17 450.88,-8.17 450.88,-16.33 450.88,-16.33 450.88,-20.42 446.79,-24.5 442.71,-24.5"/>
<text text-anchor="middle" x="393" y="-7.2" font-family="Arial" font-size="14.00" fill="#cfffac">app/globals.css</text>
</g>
<!-- app/items/mathItem.tsx&#45;&gt;gestalt/contentItem.ts -->
<g id="edge40" class="edge">
<title>app/items/mathItem.tsx&#45;&gt;gestalt/contentItem.ts</title>
<path fill="none" stroke="#757575" d="M936.97,-1609.81C988.04,-1605.32 1055.47,-1599.81 1115.25,-1596.25 1337.74,-1583.02 1393.49,-1577.25 1616.38,-1577.25 1616.38,-1577.25 1616.38,-1577.25 2236.5,-1577.25 2288.96,-1577.25 2669.73,-1589.13 2708,-1553.25 2758.75,-1505.66 2710.7,-1303.34 2744,-1242.25 2755.26,-1221.59 2775.62,-1204.73 2793.32,-1192.98"/>
<polygon fill="#757575" stroke="#757575" points="2794.94,-1196.09 2801.52,-1187.78 2791.2,-1190.17 2794.94,-1196.09"/>
</g>
<!-- app/items/mathItem.tsx&#45;&gt;tex/Tex.tsx -->
<g id="edge41" class="edge">
<title>app/items/mathItem.tsx&#45;&gt;tex/Tex.tsx</title>
<path fill="none" stroke="#757575" d="M937.23,-1624.45C1047.5,-1634.36 1251.04,-1653.07 1424.5,-1671.25 1471.7,-1676.2 1525.35,-1682.4 1563.9,-1686.96"/>
<polygon fill="#757575" stroke="#757575" points="1563.01,-1690.37 1573.35,-1688.08 1563.83,-1683.42 1563.01,-1690.37"/>
</g>
<!-- app/items/basicContentItem.tsx -->
<g id="node25" class="node">
<title>app/items/basicContentItem.tsx</title>
<path fill="none" stroke="#c6c5fe" d="M1369.46,-1629.5C1369.46,-1629.5 1170.29,-1629.5 1170.29,-1629.5 1166.21,-1629.5 1162.12,-1625.42 1162.12,-1621.33 1162.12,-1621.33 1162.12,-1613.17 1162.12,-1613.17 1162.12,-1609.08 1166.21,-1605 1170.29,-1605 1170.29,-1605 1369.46,-1605 1369.46,-1605 1373.54,-1605 1377.62,-1609.08 1377.62,-1613.17 1377.62,-1613.17 1377.62,-1621.33 1377.62,-1621.33 1377.62,-1625.42 1373.54,-1629.5 1369.46,-1629.5"/>
<text text-anchor="middle" x="1269.88" y="-1612.2" font-family="Arial" font-size="14.00" fill="#c6c5fe">app/items/basicContentItem.tsx</text>
</g>
<!-- app/items/mathItem.tsx&#45;&gt;app/items/basicContentItem.tsx -->
<g id="edge39" class="edge">
<title>app/items/mathItem.tsx&#45;&gt;app/items/basicContentItem.tsx</title>
<path fill="none" stroke="#757575" d="M936.79,-1617.25C997.66,-1617.25 1082.16,-1617.25 1150.68,-1617.25"/>
<polygon fill="#757575" stroke="#757575" points="1150.46,-1620.75 1160.46,-1617.25 1150.46,-1613.75 1150.46,-1620.75"/>
</g>
<!-- app/items/paragraphItem.tsx&#45;&gt;tex/Tex.tsx -->
<g id="edge47" class="edge">
<title>app/items/paragraphItem.tsx&#45;&gt;tex/Tex.tsx</title>
<path fill="none" stroke="#757575" d="M953.68,-1664.48C1116.26,-1671.54 1437.46,-1685.48 1563.68,-1690.96"/>
<polygon fill="#757575" stroke="#757575" points="1563.26,-1694.45 1573.41,-1691.38 1563.57,-1687.45 1563.26,-1694.45"/>
</g>
<!-- app/items/paragraphItem.tsx&#45;&gt;app/items/basicContentItem.tsx -->
<g id="edge46" class="edge">
<title>app/items/paragraphItem.tsx&#45;&gt;app/items/basicContentItem.tsx</title>
<path fill="none" stroke="#757575" d="M953.69,-1650.89C992.74,-1647.08 1038.14,-1642.55 1079.25,-1638.25 1102.43,-1635.82 1127.19,-1633.14 1150.91,-1630.54"/>
<polygon fill="#757575" stroke="#757575" points="1151.03,-1634.04 1160.59,-1629.47 1150.27,-1627.09 1151.03,-1634.04"/>
</g>
<!-- gestalt/metadataItem.ts&#45;&gt;gestalt/item.ts -->
<g id="edge85" class="edge">
<title>gestalt/metadataItem.ts&#45;&gt;gestalt/item.ts</title>
<path fill="none" stroke="#757575" d="M3088.88,-732.91C3106.47,-737 3126.11,-741.57 3144.23,-745.79"/>
<polygon fill="#757575" stroke="#757575" points="3143.26,-749.16 3153.8,-748.01 3144.85,-742.34 3143.26,-749.16"/>
</g>
<!-- app/items/basicContentItem.tsx&#45;&gt;gestalt/contentItem.ts -->
<g id="edge36" class="edge">
<title>app/items/basicContentItem.tsx&#45;&gt;gestalt/contentItem.ts</title>
<path fill="none" stroke="#757575" d="M1378,-1616.7C1502.89,-1616.11 1715.54,-1615.25 1898.25,-1615.25 1898.25,-1615.25 1898.25,-1615.25 2236.5,-1615.25 2446.33,-1615.25 2555.83,-1735.72 2708,-1591.25 2764.54,-1537.57 2707.11,-1310.94 2744,-1242.25 2755.14,-1221.52 2775.49,-1204.66 2793.22,-1192.92"/>
<polygon fill="#757575" stroke="#757575" points="2794.85,-1196.03 2801.44,-1187.74 2791.12,-1190.11 2794.85,-1196.03"/>
</g>
<!-- app/items/basicContentItem.tsx&#45;&gt;gestalt/item.ts -->
<g id="edge37" class="edge">
<title>app/items/basicContentItem.tsx&#45;&gt;gestalt/item.ts</title>
<path fill="none" stroke="#757575" d="M1378.12,-1628.27C1668.13,-1656.59 2462.55,-1724.04 2708,-1640.25 2926.74,-1565.58 3002.03,-1521.31 3119.5,-1322.25 3174.79,-1228.56 3199.27,-879.72 3205.01,-784.43"/>
<polygon fill="#757575" stroke="#757575" points="3208.5,-784.65 3205.59,-774.46 3201.51,-784.24 3208.5,-784.65"/>
</g>
<!-- app/items/basicContentItemEditor.tsx -->
<g id="node26" class="node">
<title>app/items/basicContentItemEditor.tsx</title>
<path fill="none" stroke="#c6c5fe" d="M1735.71,-1473.5C1735.71,-1473.5 1499.04,-1473.5 1499.04,-1473.5 1494.96,-1473.5 1490.88,-1469.42 1490.88,-1465.33 1490.88,-1465.33 1490.88,-1457.17 1490.88,-1457.17 1490.88,-1453.08 1494.96,-1449 1499.04,-1449 1499.04,-1449 1735.71,-1449 1735.71,-1449 1739.79,-1449 1743.88,-1453.08 1743.88,-1457.17 1743.88,-1457.17 1743.88,-1465.33 1743.88,-1465.33 1743.88,-1469.42 1739.79,-1473.5 1735.71,-1473.5"/>
<text text-anchor="middle" x="1617.38" y="-1456.2" font-family="Arial" font-size="14.00" fill="#c6c5fe">app/items/basicContentItemEditor.tsx</text>
</g>
<!-- app/items/basicContentItem.tsx&#45;&gt;app/items/basicContentItemEditor.tsx -->
<g id="edge35" class="edge">
<title>app/items/basicContentItem.tsx&#45;&gt;app/items/basicContentItemEditor.tsx</title>
<path fill="none" stroke="#757575" d="M1298.86,-1604.62C1360.59,-1576.74 1508.52,-1509.95 1578.48,-1478.36"/>
<polygon fill="#757575" stroke="#757575" points="1579.56,-1481.71 1587.24,-1474.41 1576.68,-1475.33 1579.56,-1481.71"/>
</g>
<!-- app/items/basicContentItemEditor.tsx&#45;&gt;app/edit/editorContext.ts -->
<g id="edge38" class="edge">
<title>app/items/basicContentItemEditor.tsx&#45;&gt;app/edit/editorContext.ts</title>
<path fill="none" stroke="#757575" d="M1744.18,-1454.01C1755.21,-1449.46 1765.49,-1443.36 1774.25,-1435.25 1823.28,-1389.83 1764.08,-1337.57 1810.25,-1289.25 1812.97,-1286.4 1815.99,-1283.86 1819.23,-1281.59"/>
<polygon fill="#757575" stroke="#757575" points="1820.71,-1284.78 1827.53,-1276.67 1817.14,-1278.76 1820.71,-1284.78"/>
</g>
<!-- app/layout.tsx -->
<g id="node28" class="node">
<title>app/layout.tsx</title>
<path fill="none" stroke="#c6c5fe" d="M120.33,-46.5C120.33,-46.5 34.42,-46.5 34.42,-46.5 30.33,-46.5 26.25,-42.42 26.25,-38.33 26.25,-38.33 26.25,-30.17 26.25,-30.17 26.25,-26.08 30.33,-22 34.42,-22 34.42,-22 120.33,-22 120.33,-22 124.42,-22 128.5,-26.08 128.5,-30.17 128.5,-30.17 128.5,-38.33 128.5,-38.33 128.5,-42.42 124.42,-46.5 120.33,-46.5"/>
<text text-anchor="middle" x="77.38" y="-29.2" font-family="Arial" font-size="14.00" fill="#c6c5fe">app/layout.tsx</text>
</g>
<!-- app/layout.tsx&#45;&gt;_assets/katex/katex.min.css -->
<g id="edge48" class="edge">
<title>app/layout.tsx&#45;&gt;_assets/katex/katex.min.css</title>
<path fill="none" stroke="#757575" d="M128.76,-37.62C170.88,-40.44 232.37,-44.56 285.34,-48.11"/>
<polygon fill="#757575" stroke="#757575" points="284.78,-51.58 294.99,-48.75 285.25,-44.59 284.78,-51.58"/>
</g>
<!-- app/layout.tsx&#45;&gt;app/globals.css -->
<g id="edge49" class="edge">
<title>app/layout.tsx&#45;&gt;app/globals.css</title>
<path fill="none" stroke="#757575" d="M128.76,-30.72C181.52,-27.01 264.71,-21.18 323.43,-17.06"/>
<polygon fill="#757575" stroke="#757575" points="323.59,-20.56 333.32,-16.37 323.1,-13.57 323.59,-20.56"/>
</g>
<!-- app/page.tsx -->
<g id="node29" class="node">
<title>app/page.tsx</title>
<path fill="none" stroke="#cfffac" d="M118.08,-906.5C118.08,-906.5 36.67,-906.5 36.67,-906.5 32.58,-906.5 28.5,-902.42 28.5,-898.33 28.5,-898.33 28.5,-890.17 28.5,-890.17 28.5,-886.08 32.58,-882 36.67,-882 36.67,-882 118.08,-882 118.08,-882 122.17,-882 126.25,-886.08 126.25,-890.17 126.25,-890.17 126.25,-898.33 126.25,-898.33 126.25,-902.42 122.17,-906.5 118.08,-906.5"/>
<text text-anchor="middle" x="77.38" y="-889.2" font-family="Arial" font-size="14.00" fill="#cfffac">app/page.tsx</text>
</g>
<!-- gestalt/topic.ts&#45;&gt;gestalt/contentItem.ts -->
<g id="edge87" class="edge">
<title>gestalt/topic.ts&#45;&gt;gestalt/contentItem.ts</title>
<path fill="none" stroke="#757575" d="M2649.46,-488.53C2670.4,-491.42 2692.99,-498.46 2708,-514.25 2753.18,-561.79 2810.82,-1036.91 2823.99,-1150.13"/>
<polygon fill="#757575" stroke="#757575" points="2820.51,-1150.52 2825.14,-1160.06 2827.46,-1149.72 2820.51,-1150.52"/>
</g>
<!-- gestalt/topic.ts&#45;&gt;gestalt/item.ts -->
<g id="edge88" class="edge">
<title>gestalt/topic.ts&#45;&gt;gestalt/item.ts</title>
<path fill="none" stroke="#757575" d="M2649.35,-484.82C2713.84,-482.64 2824.85,-485.36 2911.5,-521.25 3034.18,-572.07 3146.43,-690.97 3188.66,-739.28"/>
<polygon fill="#757575" stroke="#757575" points="3185.76,-741.28 3194.95,-746.56 3191.06,-736.71 3185.76,-741.28"/>
</g>
<!-- gestalt/topic.ts&#45;&gt;app/items/nameItem.tsx -->
<g id="edge86" class="edge">
<title>gestalt/topic.ts&#45;&gt;app/items/nameItem.tsx</title>
<path fill="none" stroke="#757575" d="M2643.39,-500.99C2666.9,-509.93 2693.39,-524.46 2708,-547.25 2785.83,-668.67 2678.78,-1066.61 2744,-1195.25 2754.64,-1216.24 2774.99,-1233.1 2792.84,-1244.78"/>
<polygon fill="#757575" stroke="#757575" points="2790.8,-1247.63 2801.14,-1249.93 2794.49,-1241.68 2790.8,-1247.63"/>
</g>
<!-- gestalt/topic.ts&#45;&gt;gestalt/metadataItem.ts -->
<g id="edge89" class="edge">
<title>gestalt/topic.ts&#45;&gt;gestalt/metadataItem.ts</title>
<path fill="none" stroke="#757575" d="M2649.61,-500.12C2736.53,-519.64 2900.44,-557.07 2911.5,-564.25 2964.15,-598.45 3003.41,-663.58 3021.48,-697.86"/>
<polygon fill="#757575" stroke="#757575" points="3018.22,-699.18 3025.9,-706.49 3024.45,-695.99 3018.22,-699.18"/>
</g>
<!-- gestalt/topic.ts&#45;&gt;gestalt/topicContent.ts -->
<g id="edge90" class="edge">
<title>gestalt/topic.ts&#45;&gt;gestalt/topicContent.ts</title>
<path fill="none" stroke="#757575" d="M2617.92,-475.62C2642.18,-460.56 2681.65,-433.47 2708,-402.25 2762.36,-337.83 2801.84,-244.45 2818.28,-201.48"/>
<polygon fill="#757575" stroke="#757575" points="2821.54,-202.77 2821.77,-192.18 2814.98,-200.31 2821.54,-202.77"/>
</g>
<!-- gestalt/topic.ts&#45;&gt;utils/JSONifyable.ts -->
<g id="edge92" class="edge">
<title>gestalt/topic.ts&#45;&gt;utils/JSONifyable.ts</title>
<path fill="none" stroke="#757575" d="M2649.42,-484.31C2781.56,-474.49 3126.06,-448.91 3283.34,-437.22"/>
<polygon fill="#757575" stroke="#757575" points="3283.57,-440.72 3293.28,-436.48 3283.05,-433.73 3283.57,-440.72"/>
</g>
<!-- gestalt/topicMetadata.ts -->
<g id="node39" class="node">
<title>gestalt/topicMetadata.ts</title>
<path fill="none" stroke="#c6c5fe" d="M2902.21,-597.5C2902.21,-597.5 2753.29,-597.5 2753.29,-597.5 2749.21,-597.5 2745.12,-593.42 2745.12,-589.33 2745.12,-589.33 2745.12,-581.17 2745.12,-581.17 2745.12,-577.08 2749.21,-573 2753.29,-573 2753.29,-573 2902.21,-573 2902.21,-573 2906.29,-573 2910.38,-577.08 2910.38,-581.17 2910.38,-581.17 2910.38,-589.33 2910.38,-589.33 2910.38,-593.42 2906.29,-597.5 2902.21,-597.5"/>
<text text-anchor="middle" x="2827.75" y="-580.2" font-family="Arial" font-size="14.00" fill="#c6c5fe">gestalt/topicMetadata.ts</text>
</g>
<!-- gestalt/topic.ts&#45;&gt;gestalt/topicMetadata.ts -->
<g id="edge91" class="edge">
<title>gestalt/topic.ts&#45;&gt;gestalt/topicMetadata.ts</title>
<path fill="none" stroke="#757575" d="M2649.47,-493.25C2669,-496.92 2690.58,-503.27 2708,-514.25 2729.67,-527.91 2722.86,-544.78 2744,-559.25 2749.05,-562.71 2754.58,-565.72 2760.31,-568.34"/>
<polygon fill="#757575" stroke="#757575" points="2758.81,-571.51 2769.38,-572.08 2761.47,-565.04 2758.81,-571.51"/>
</g>
<!-- gestalt/editor/gestaltViewData.ts&#45;&gt;gestalt/gestalt.ts -->
<g id="edge56" class="edge">
<title>gestalt/editor/gestaltViewData.ts&#45;&gt;gestalt/gestalt.ts</title>
<path fill="none" stroke="#757575" d="M964.93,-178.25C1039.04,-178.25 1134.99,-178.25 1199.07,-178.25"/>
<polygon fill="#757575" stroke="#757575" points="1198.74,-181.75 1208.74,-178.25 1198.74,-174.75 1198.74,-181.75"/>
</g>
<!-- gestalt/editor/implementations/client/sharedGestaltEditorClient.ts -->
<g id="node33" class="node">
<title>gestalt/editor/implementations/client/sharedGestaltEditorClient.ts</title>
<path fill="none" stroke="#c6c5fe" d="M2438.58,-384.5C2438.58,-384.5 2032.42,-384.5 2032.42,-384.5 2028.33,-384.5 2024.25,-380.42 2024.25,-376.33 2024.25,-376.33 2024.25,-368.17 2024.25,-368.17 2024.25,-364.08 2028.33,-360 2032.42,-360 2032.42,-360 2438.58,-360 2438.58,-360 2442.67,-360 2446.75,-364.08 2446.75,-368.17 2446.75,-368.17 2446.75,-376.33 2446.75,-376.33 2446.75,-380.42 2442.67,-384.5 2438.58,-384.5"/>
<text text-anchor="middle" x="2235.5" y="-367.2" font-family="Arial" font-size="14.00" fill="#c6c5fe">gestalt/editor/implementations/client/sharedGestaltEditorClient.ts</text>
</g>
<!-- gestalt/editor/implementations/client/sharedGestaltEditorClient.ts&#45;&gt;gestalt/editor/gestaltAccess.ts -->
<g id="edge57" class="edge">
<title>gestalt/editor/implementations/client/sharedGestaltEditorClient.ts&#45;&gt;gestalt/editor/gestaltAccess.ts</title>
<path fill="none" stroke="#757575" d="M2447.01,-377.54C2458.51,-377.83 2469.83,-378.12 2480.78,-378.39"/>
<polygon fill="#757575" stroke="#757575" points="2480.44,-381.89 2490.52,-378.64 2480.61,-374.89 2480.44,-381.89"/>
</g>
<!-- gestalt/editor/implementations/private/privateSharedTopicAccess.tsx&#45;&gt;gestalt/contentItem.ts -->
<g id="edge71" class="edge">
<title>gestalt/editor/implementations/private/privateSharedTopicAccess.tsx&#45;&gt;gestalt/contentItem.ts</title>
<path fill="none" stroke="#757575" d="M900.79,-471.52C952.1,-457.29 1039.12,-434.53 1115.25,-421.25 1464.19,-360.39 2450.96,-116.55 2708,-360.25 2708,-360.25 2803.72,-1016.37 2823.28,-1150.48"/>
<polygon fill="#757575" stroke="#757575" points="2819.81,-1150.9 2824.71,-1160.29 2826.73,-1149.89 2819.81,-1150.9"/>
</g>
<!-- gestalt/editor/implementations/private/privateSharedTopicAccess.tsx&#45;&gt;gestalt/item.ts -->
<g id="edge76" class="edge">
<title>gestalt/editor/implementations/private/privateSharedTopicAccess.tsx&#45;&gt;gestalt/item.ts</title>
<path fill="none" stroke="#757575" d="M876.2,-471.6C961.53,-418.74 1305.64,-218.25 1616.38,-218.25 1616.38,-218.25 1616.38,-218.25 2828.75,-218.25 3085.25,-218.25 3181.8,-631.95 3202.1,-736.48"/>
<polygon fill="#757575" stroke="#757575" points="3198.63,-736.98 3203.92,-746.16 3205.51,-735.69 3198.63,-736.98"/>
</g>
<!-- gestalt/editor/implementations/private/privateSharedTopicAccess.tsx&#45;&gt;app/items/nameItem.tsx -->
<g id="edge70" class="edge">
<title>gestalt/editor/implementations/private/privateSharedTopicAccess.tsx&#45;&gt;app/items/nameItem.tsx</title>
<path fill="none" stroke="#757575" d="M1072.37,-496.89C1074.7,-498.28 1077,-499.73 1079.25,-501.25 1109.22,-521.51 1085.3,-553.96 1115.25,-574.25 1188.73,-624.04 2645.42,-636.3 2708,-699.25 2785.91,-777.62 2693.19,-1097.11 2744,-1195.25 2754.82,-1216.15 2775.17,-1233 2792.98,-1244.71"/>
<polygon fill="#757575" stroke="#757575" points="2790.91,-1247.54 2801.25,-1249.87 2794.62,-1241.6 2790.91,-1247.54"/>
</g>
<!-- gestalt/editor/implementations/private/privateSharedTopicAccess.tsx&#45;&gt;gestalt/editor/topicAccess.ts -->
<g id="edge75" class="edge">
<title>gestalt/editor/implementations/private/privateSharedTopicAccess.tsx&#45;&gt;gestalt/editor/topicAccess.ts</title>
<path fill="none" stroke="#757575" d="M875.35,-496.98C916.88,-523.9 1019.4,-586.26 1115.25,-612.25 1401.54,-689.87 2151.13,-681.8 2446.75,-706.25 2459.58,-707.31 2473.03,-708.49 2486.36,-709.7"/>
<polygon fill="#757575" stroke="#757575" points="2485.74,-713.16 2496.02,-710.59 2486.38,-706.19 2485.74,-713.16"/>
</g>
<!-- gestalt/editor/implementations/private/privateSharedTopicAccess.tsx&#45;&gt;gestalt/editor/gestaltAccess.ts -->
<g id="edge72" class="edge">
<title>gestalt/editor/implementations/private/privateSharedTopicAccess.tsx&#45;&gt;gestalt/editor/gestaltAccess.ts</title>
<path fill="none" stroke="#757575" d="M981.45,-471.52C1158.26,-453.34 1491.13,-418.35 1774.25,-384.25 1885.52,-370.85 1912.42,-358.6 2024.25,-351.25 2211.62,-338.94 2259.91,-332.46 2446.75,-351.25 2475.55,-354.15 2507.05,-360.15 2533.52,-366.03"/>
<polygon fill="#757575" stroke="#757575" points="2532.53,-369.39 2543.06,-368.19 2534.08,-362.56 2532.53,-369.39"/>
</g>
<!-- gestalt/editor/implementations/private/privateSharedTopicAccess.tsx&#45;&gt;gestalt/metadataItem.ts -->
<g id="edge77" class="edge">
<title>gestalt/editor/implementations/private/privateSharedTopicAccess.tsx&#45;&gt;gestalt/metadataItem.ts</title>
<path fill="none" stroke="#757575" d="M1064.27,-496.99C1069.34,-498.3 1074.34,-499.72 1079.25,-501.25 1096.93,-506.76 1097.59,-516.68 1115.25,-522.25 1256.83,-566.92 2298.91,-619.73 2446.75,-633.25 2562.95,-643.87 2592.5,-642.68 2708,-659.25 2796.1,-671.89 2896.7,-691.64 2962.23,-705.22"/>
<polygon fill="#757575" stroke="#757575" points="2961.26,-708.59 2971.76,-707.2 2962.69,-701.74 2961.26,-708.59"/>
</g>
<!-- gestalt/editor/implementations/private/privateSharedTopicAccess.tsx&#45;&gt;app/items/basicContentItem.tsx -->
<g id="edge69" class="edge">
<title>gestalt/editor/implementations/private/privateSharedTopicAccess.tsx&#45;&gt;app/items/basicContentItem.tsx</title>
<path fill="none" stroke="#757575" d="M859.66,-496.66C880.38,-571.53 992.46,-970.17 1115.25,-1284.25 1162,-1403.83 1230.42,-1541.65 1257.37,-1594.77"/>
<polygon fill="#757575" stroke="#757575" points="1254.12,-1596.11 1261.78,-1603.43 1260.36,-1592.93 1254.12,-1596.11"/>
</g>
<!-- gestalt/editor/implementations/private/privateSharedTopicAccess.tsx&#45;&gt;gestalt/editor/itemWriteAccess.ts -->
<g id="edge74" class="edge">
<title>gestalt/editor/implementations/private/privateSharedTopicAccess.tsx&#45;&gt;gestalt/editor/itemWriteAccess.ts</title>
<path fill="none" stroke="#757575" d="M1075.62,-497C1089.03,-497.76 1102.32,-498.52 1115.25,-499.25 1519.22,-522.06 1620.03,-531.4 2024.25,-549.25 2178.17,-556.05 2355.56,-561.6 2471.05,-564.91"/>
<polygon fill="#757575" stroke="#757575" points="2470.77,-568.4 2480.87,-565.19 2470.97,-561.41 2470.77,-568.4"/>
</g>
<!-- gestalt/editor/implementations/private/privateSharedTopicAccess.tsx&#45;&gt;gestalt/topic.ts -->
<g id="edge78" class="edge">
<title>gestalt/editor/implementations/private/privateSharedTopicAccess.tsx&#45;&gt;gestalt/topic.ts</title>
<path fill="none" stroke="#757575" d="M1079.48,-484.76C1478.73,-485.68 2295.31,-487.56 2529.99,-488.1"/>
<polygon fill="#757575" stroke="#757575" points="2529.85,-491.6 2539.86,-488.12 2529.87,-484.6 2529.85,-491.6"/>
</g>
<!-- gestalt/editor/implementations/private/privateItemWriteAccess.ts -->
<g id="node35" class="node">
<title>gestalt/editor/implementations/private/privateItemWriteAccess.ts</title>
<path fill="none" stroke="#c6c5fe" d="M2438.21,-540.5C2438.21,-540.5 2032.79,-540.5 2032.79,-540.5 2028.71,-540.5 2024.62,-536.42 2024.62,-532.33 2024.62,-532.33 2024.62,-524.17 2024.62,-524.17 2024.62,-520.08 2028.71,-516 2032.79,-516 2032.79,-516 2438.21,-516 2438.21,-516 2442.29,-516 2446.38,-520.08 2446.38,-524.17 2446.38,-524.17 2446.38,-532.33 2446.38,-532.33 2446.38,-536.42 2442.29,-540.5 2438.21,-540.5"/>
<text text-anchor="middle" x="2235.5" y="-523.2" font-family="Arial" font-size="14.00" fill="#c6c5fe">gestalt/editor/implementations/private/privateItemWriteAccess.ts</text>
</g>
<!-- gestalt/editor/implementations/private/privateSharedTopicAccess.tsx&#45;&gt;gestalt/editor/implementations/private/privateItemWriteAccess.ts -->
<g id="edge73" class="edge">
<title>gestalt/editor/implementations/private/privateSharedTopicAccess.tsx&#45;&gt;gestalt/editor/implementations/private/privateItemWriteAccess.ts</title>
<path fill="none" stroke="#757575" d="M1079.7,-488.62C1308.08,-493.54 1672.99,-502.68 1988.25,-516.25 1996.33,-516.6 2004.57,-516.96 2012.89,-517.33"/>
<polygon fill="#757575" stroke="#757575" points="2012.61,-520.82 2022.76,-517.78 2012.93,-513.83 2012.61,-520.82"/>
</g>
<!-- gestalt/editor/implementations/private/privateItemWriteAccess.ts&#45;&gt;gestalt/contentItem.ts -->
<g id="edge63" class="edge">
<title>gestalt/editor/implementations/private/privateItemWriteAccess.ts&#45;&gt;gestalt/contentItem.ts</title>
<path fill="none" stroke="#757575" d="M2374.86,-515.51C2495.91,-507.57 2659.74,-505.6 2708,-547.25 2755.15,-587.93 2811.08,-1040.79 2823.99,-1150.44"/>
<polygon fill="#757575" stroke="#757575" points="2820.48,-1150.52 2825.12,-1160.05 2827.43,-1149.71 2820.48,-1150.52"/>
</g>
<!-- gestalt/editor/implementations/private/privateItemWriteAccess.ts&#45;&gt;gestalt/item.ts -->
<g id="edge67" class="edge">
<title>gestalt/editor/implementations/private/privateItemWriteAccess.ts&#45;&gt;gestalt/item.ts</title>
<path fill="none" stroke="#757575" d="M2275.19,-515.56C2323.23,-500.52 2407.99,-476.37 2482.75,-467.25 2672.03,-444.15 2723.37,-452.12 2911.5,-483.25 3005.62,-498.82 3048.1,-472.98 3119.5,-536.25 3179.85,-589.73 3198.59,-690.18 3204.15,-736.16"/>
<polygon fill="#757575" stroke="#757575" points="3200.67,-736.53 3205.23,-746.1 3207.63,-735.78 3200.67,-736.53"/>
</g>
<!-- gestalt/editor/implementations/private/privateItemWriteAccess.ts&#45;&gt;gestalt/editor/topicAccess.ts -->
<g id="edge66" class="edge">
<title>gestalt/editor/implementations/private/privateItemWriteAccess.ts&#45;&gt;gestalt/editor/topicAccess.ts</title>
<path fill="none" stroke="#757575" d="M2260.26,-541C2322.31,-574.28 2489.36,-663.91 2561,-702.35"/>
<polygon fill="#757575" stroke="#757575" points="2559.06,-705.27 2569.52,-706.92 2562.37,-699.11 2559.06,-705.27"/>
</g>
<!-- gestalt/editor/implementations/private/privateItemWriteAccess.ts&#45;&gt;gestalt/editor/gestaltAccess.ts -->
<g id="edge64" class="edge">
<title>gestalt/editor/implementations/private/privateItemWriteAccess.ts&#45;&gt;gestalt/editor/gestaltAccess.ts</title>
<path fill="none" stroke="#757575" d="M2318.84,-515.52C2359.97,-506.23 2408.89,-490.5 2446.75,-464.25 2468.37,-449.26 2461.25,-432.42 2482.75,-417.25 2494.37,-409.05 2507.95,-402.65 2521.57,-397.67"/>
<polygon fill="#757575" stroke="#757575" points="2522.68,-400.99 2531.02,-394.46 2520.43,-394.36 2522.68,-400.99"/>
</g>
<!-- gestalt/editor/implementations/private/privateItemWriteAccess.ts&#45;&gt;gestalt/editor/itemWriteAccess.ts -->
<g id="edge65" class="edge">
<title>gestalt/editor/implementations/private/privateItemWriteAccess.ts&#45;&gt;gestalt/editor/itemWriteAccess.ts</title>
<path fill="none" stroke="#757575" d="M2350.23,-540.96C2388.78,-545.27 2432,-550.1 2471.25,-554.49"/>
<polygon fill="#757575" stroke="#757575" points="2470.65,-557.94 2480.97,-555.57 2471.42,-550.99 2470.65,-557.94"/>
</g>
<!-- gestalt/editor/implementations/private/privateItemWriteAccess.ts&#45;&gt;gestalt/topic.ts -->
<g id="edge68" class="edge">
<title>gestalt/editor/implementations/private/privateItemWriteAccess.ts&#45;&gt;gestalt/topic.ts</title>
<path fill="none" stroke="#757575" d="M2350.23,-515.54C2409.66,-508.9 2480.21,-501.01 2530.15,-495.43"/>
<polygon fill="#757575" stroke="#757575" points="2530.38,-498.93 2539.93,-494.34 2529.6,-491.97 2530.38,-498.93"/>
</g>
<!-- gestalt/editor/implementations/server/sharedGestaltEditorServer.ts -->
<g id="node36" class="node">
<title>gestalt/editor/implementations/server/sharedGestaltEditorServer.ts</title>
<path fill="none" stroke="#c6c5fe" d="M1064.71,-233.5C1064.71,-233.5 645.79,-233.5 645.79,-233.5 641.71,-233.5 637.62,-229.42 637.62,-225.33 637.62,-225.33 637.62,-217.17 637.62,-217.17 637.62,-213.08 641.71,-209 645.79,-209 645.79,-209 1064.71,-209 1064.71,-209 1068.79,-209 1072.88,-213.08 1072.88,-217.17 1072.88,-217.17 1072.88,-225.33 1072.88,-225.33 1072.88,-229.42 1068.79,-233.5 1064.71,-233.5"/>
<text text-anchor="middle" x="855.25" y="-216.2" font-family="Arial" font-size="14.00" fill="#c6c5fe">gestalt/editor/implementations/server/sharedGestaltEditorServer.ts</text>
</g>
<!-- gestalt/editor/implementations/server/sharedGestaltEditorServer.ts&#45;&gt;gestalt/gestalt.ts -->
<g id="edge79" class="edge">
<title>gestalt/editor/implementations/server/sharedGestaltEditorServer.ts&#45;&gt;gestalt/gestalt.ts</title>
<path fill="none" stroke="#757575" d="M988.05,-208.51C1018.04,-205.54 1049.75,-202.34 1079.25,-199.25 1118.93,-195.1 1163.26,-190.2 1199.07,-186.18"/>
<polygon fill="#757575" stroke="#757575" points="1199.33,-189.68 1208.88,-185.08 1198.55,-182.72 1199.33,-189.68"/>
</g>
<!-- gestalt/topicMetadata.ts&#45;&gt;gestalt/metadataItem.ts -->
<g id="edge93" class="edge">
<title>gestalt/topicMetadata.ts&#45;&gt;gestalt/metadataItem.ts</title>
<path fill="none" stroke="#757575" d="M2880.95,-597.9C2891.42,-601.46 2902.08,-605.87 2911.5,-611.25 2952.87,-634.87 2992.19,-674.61 3014.25,-699.02"/>
<polygon fill="#757575" stroke="#757575" points="3011.56,-701.27 3020.82,-706.43 3016.8,-696.63 3011.56,-701.27"/>
</g>
<!-- utils/asyncTask.ts -->
<g id="node40" class="node">
<title>utils/asyncTask.ts</title>
<path fill="none" stroke="#cfffac" d="M132.71,-949.5C132.71,-949.5 22.04,-949.5 22.04,-949.5 17.96,-949.5 13.87,-945.42 13.87,-941.33 13.87,-941.33 13.87,-933.17 13.87,-933.17 13.87,-929.08 17.96,-925 22.04,-925 22.04,-925 132.71,-925 132.71,-925 136.79,-925 140.88,-929.08 140.88,-933.17 140.88,-933.17 140.88,-941.33 140.88,-941.33 140.88,-945.42 136.79,-949.5 132.71,-949.5"/>
<text text-anchor="middle" x="77.38" y="-932.2" font-family="Arial" font-size="14.00" fill="#cfffac">utils/asyncTask.ts</text>
</g>
<!-- utils/decorators.ts -->
<g id="node41" class="node">
<title>utils/decorators.ts</title>
<path fill="none" stroke="#cfffac" d="M133.08,-992.5C133.08,-992.5 21.67,-992.5 21.67,-992.5 17.58,-992.5 13.5,-988.42 13.5,-984.33 13.5,-984.33 13.5,-976.17 13.5,-976.17 13.5,-972.08 17.58,-968 21.67,-968 21.67,-968 133.08,-968 133.08,-968 137.17,-968 141.25,-972.08 141.25,-976.17 141.25,-976.17 141.25,-984.33 141.25,-984.33 141.25,-988.42 137.17,-992.5 133.08,-992.5"/>
<text text-anchor="middle" x="77.38" y="-975.2" font-family="Arial" font-size="14.00" fill="#cfffac">utils/decorators.ts</text>
</g>
<!-- utils/minMax.ts -->
<g id="node42" class="node">
<title>utils/minMax.ts</title>
<path fill="none" stroke="#cfffac" d="M122.96,-1035.5C122.96,-1035.5 31.79,-1035.5 31.79,-1035.5 27.71,-1035.5 23.62,-1031.42 23.62,-1027.33 23.62,-1027.33 23.62,-1019.17 23.62,-1019.17 23.62,-1015.08 27.71,-1011 31.79,-1011 31.79,-1011 122.96,-1011 122.96,-1011 127.04,-1011 131.12,-1015.08 131.12,-1019.17 131.12,-1019.17 131.12,-1027.33 131.12,-1027.33 131.12,-1031.42 127.04,-1035.5 122.96,-1035.5"/>
<text text-anchor="middle" x="77.38" y="-1018.2" font-family="Arial" font-size="14.00" fill="#cfffac">utils/minMax.ts</text>
</g>
<!-- utils/range.ts -->
<g id="node43" class="node">
<title>utils/range.ts</title>
<path fill="none" stroke="#c6c5fe" d="M1656.96,-882.5C1656.96,-882.5 1577.79,-882.5 1577.79,-882.5 1573.71,-882.5 1569.62,-878.42 1569.62,-874.33 1569.62,-874.33 1569.62,-866.17 1569.62,-866.17 1569.62,-862.08 1573.71,-858 1577.79,-858 1577.79,-858 1656.96,-858 1656.96,-858 1661.04,-858 1665.12,-862.08 1665.12,-866.17 1665.12,-866.17 1665.12,-874.33 1665.12,-874.33 1665.12,-878.42 1661.04,-882.5 1656.96,-882.5"/>
<text text-anchor="middle" x="1617.38" y="-865.2" font-family="Arial" font-size="14.00" fill="#c6c5fe">utils/range.ts</text>
</g>
<!-- utils/range.ts&#45;&gt;utils/util.ts -->
<g id="edge94" class="edge">
<title>utils/range.ts&#45;&gt;utils/util.ts</title>
<path fill="none" stroke="#757575" d="M1665.5,-874.68C1696.63,-878.15 1738.19,-883.82 1774.25,-892.25 1801.41,-898.6 1831.1,-908.32 1854.62,-916.7"/>
<polygon fill="#757575" stroke="#757575" points="1853.28,-919.93 1863.87,-920.04 1855.66,-913.35 1853.28,-919.93"/>
</g>
<!-- utils/react&#45;utils/scrollSync.tsx -->
<g id="node44" class="node">
<title>utils/react&#45;utils/scrollSync.tsx</title>
<path fill="none" stroke="#c6c5fe" d="M1707.21,-925.5C1707.21,-925.5 1527.54,-925.5 1527.54,-925.5 1523.46,-925.5 1519.38,-921.42 1519.38,-917.33 1519.38,-917.33 1519.38,-909.17 1519.38,-909.17 1519.38,-905.08 1523.46,-901 1527.54,-901 1527.54,-901 1707.21,-901 1707.21,-901 1711.29,-901 1715.38,-905.08 1715.38,-909.17 1715.38,-909.17 1715.38,-917.33 1715.38,-917.33 1715.38,-921.42 1711.29,-925.5 1707.21,-925.5"/>
<text text-anchor="middle" x="1617.38" y="-908.2" font-family="Arial" font-size="14.00" fill="#c6c5fe">utils/react&#45;utils/scrollSync.tsx</text>
</g>
<!-- utils/react&#45;utils/scrollSync.tsx&#45;&gt;utils/util.ts -->
<g id="edge95" class="edge">
<title>utils/react&#45;utils/scrollSync.tsx&#45;&gt;utils/util.ts</title>
<path fill="none" stroke="#757575" d="M1715.87,-920.22C1760.85,-923.43 1812.3,-927.11 1849.06,-929.73"/>
<polygon fill="#757575" stroke="#757575" points="1848.71,-933.22 1858.94,-930.44 1849.21,-926.24 1848.71,-933.22"/>
</g>
<!-- utils/react&#45;utils/select.tsx -->
<g id="node45" class="node">
<title>utils/react&#45;utils/select.tsx</title>
<path fill="none" stroke="#c6c5fe" d="M1693.71,-802.5C1693.71,-802.5 1541.04,-802.5 1541.04,-802.5 1536.96,-802.5 1532.88,-798.42 1532.88,-794.33 1532.88,-794.33 1532.88,-786.17 1532.88,-786.17 1532.88,-782.08 1536.96,-778 1541.04,-778 1541.04,-778 1693.71,-778 1693.71,-778 1697.79,-778 1701.88,-782.08 1701.88,-786.17 1701.88,-786.17 1701.88,-794.33 1701.88,-794.33 1701.88,-798.42 1697.79,-802.5 1693.71,-802.5"/>
<text text-anchor="middle" x="1617.38" y="-785.2" font-family="Arial" font-size="14.00" fill="#c6c5fe">utils/react&#45;utils/select.tsx</text>
</g>
<!-- utils/react&#45;utils/select.tsx&#45;&gt;utils/util.ts -->
<g id="edge97" class="edge">
<title>utils/react&#45;utils/select.tsx&#45;&gt;utils/util.ts</title>
<path fill="none" stroke="#757575" d="M1702.1,-795.02C1726.3,-798.8 1752.13,-805.27 1774.25,-816.25 1820.29,-839.11 1860.93,-884.8 1882.31,-911.82"/>
<polygon fill="#757575" stroke="#757575" points="1879.48,-913.89 1888.36,-919.66 1885.02,-909.61 1879.48,-913.89"/>
</g>
<!-- utils/react&#45;utils/useRefs.ts -->
<g id="node46" class="node">
<title>utils/react&#45;utils/useRefs.ts</title>
<path fill="none" stroke="#cfffac" d="M1980.08,-810.5C1980.08,-810.5 1818.42,-810.5 1818.42,-810.5 1814.33,-810.5 1810.25,-806.42 1810.25,-802.33 1810.25,-802.33 1810.25,-794.17 1810.25,-794.17 1810.25,-790.08 1814.33,-786 1818.42,-786 1818.42,-786 1980.08,-786 1980.08,-786 1984.17,-786 1988.25,-790.08 1988.25,-794.17 1988.25,-794.17 1988.25,-802.33 1988.25,-802.33 1988.25,-806.42 1984.17,-810.5 1980.08,-810.5"/>
<text text-anchor="middle" x="1899.25" y="-793.2" font-family="Arial" font-size="14.00" fill="#cfffac">utils/react&#45;utils/useRefs.ts</text>
</g>
<!-- utils/react&#45;utils/select.tsx&#45;&gt;utils/react&#45;utils/useRefs.ts -->
<g id="edge96" class="edge">
<title>utils/react&#45;utils/select.tsx&#45;&gt;utils/react&#45;utils/useRefs.ts</title>
<path fill="none" stroke="#757575" d="M1702.35,-792.65C1732.6,-793.52 1767.04,-794.5 1798.52,-795.4"/>
<polygon fill="#757575" stroke="#757575" points="1798.35,-798.9 1808.45,-795.68 1798.55,-791.9 1798.35,-798.9"/>
</g>
<!-- utils/subarrayView.ts -->
<g id="node47" class="node">
<title>utils/subarrayView.ts</title>
<path fill="none" stroke="#c6c5fe" d="M1333.83,-862.5C1333.83,-862.5 1205.92,-862.5 1205.92,-862.5 1201.83,-862.5 1197.75,-858.42 1197.75,-854.33 1197.75,-854.33 1197.75,-846.17 1197.75,-846.17 1197.75,-842.08 1201.83,-838 1205.92,-838 1205.92,-838 1333.83,-838 1333.83,-838 1337.92,-838 1342,-842.08 1342,-846.17 1342,-846.17 1342,-854.33 1342,-854.33 1342,-858.42 1337.92,-862.5 1333.83,-862.5"/>
<text text-anchor="middle" x="1269.88" y="-845.2" font-family="Arial" font-size="14.00" fill="#c6c5fe">utils/subarrayView.ts</text>
</g>
<!-- utils/subarrayView.ts&#45;&gt;utils/util.ts -->
<g id="edge99" class="edge">
<title>utils/subarrayView.ts&#45;&gt;utils/util.ts</title>
<path fill="none" stroke="#757575" d="M1339.92,-837.51C1438.7,-822.08 1624.91,-803.43 1774.25,-849.25 1814.85,-861.71 1854.11,-892.46 1877.22,-913.09"/>
<polygon fill="#757575" stroke="#757575" points="1874.68,-915.51 1884.42,-919.68 1879.41,-910.35 1874.68,-915.51"/>
</g>
<!-- utils/subarrayView.ts&#45;&gt;utils/range.ts -->
<g id="edge98" class="edge">
<title>utils/subarrayView.ts&#45;&gt;utils/range.ts</title>
<path fill="none" stroke="#757575" d="M1342.46,-854.39C1406.21,-858.08 1498.32,-863.42 1557.78,-866.86"/>
<polygon fill="#757575" stroke="#757575" points="1557.52,-870.35 1567.71,-867.43 1557.93,-863.36 1557.52,-870.35"/>
</g>
<!-- utils/valueConvertor.ts -->
<g id="node48" class="node">
<title>utils/valueConvertor.ts</title>
<path fill="none" stroke="#cfffac" d="M146.58,-1078.5C146.58,-1078.5 8.17,-1078.5 8.17,-1078.5 4.08,-1078.5 0,-1074.42 0,-1070.33 0,-1070.33 0,-1062.17 0,-1062.17 0,-1058.08 4.08,-1054 8.17,-1054 8.17,-1054 146.58,-1054 146.58,-1054 150.67,-1054 154.75,-1058.08 154.75,-1062.17 154.75,-1062.17 154.75,-1070.33 154.75,-1070.33 154.75,-1074.42 150.67,-1078.5 146.58,-1078.5"/>
<text text-anchor="middle" x="77.38" y="-1061.2" font-family="Arial" font-size="14.00" fill="#cfffac">utils/valueConvertor.ts</text>
</g>
</g>
</svg>
