<?xml version="1.0" encoding="UTF-8" standalone="no"?>
<!DOCTYPE svg PUBLIC "-//W3C//DTD SVG 1.1//EN"
 "http://www.w3.org/Graphics/SVG/1.1/DTD/svg11.dtd">
<!-- Generated by graphviz version 11.0.0 (20240428.1522)
 -->
<!-- Title: G Pages: 1 -->
<svg width="2533pt" height="612pt"
 viewBox="0.00 0.00 2532.70 612.20" xmlns="http://www.w3.org/2000/svg" xmlns:xlink="http://www.w3.org/1999/xlink">
<g id="graph0" class="graph" transform="scale(1 1) rotate(0) translate(21.6 590.6)">
<title>G</title>
<polygon fill="#111111" stroke="none" points="-21.6,21.6 -21.6,-590.6 2511.1,-590.6 2511.1,21.6 -21.6,21.6"/>
<!-- app/edit/components/gestaltViewer.tsx -->
<g id="node1" class="node">
<title>app/edit/components/gestaltViewer.tsx</title>
<path fill="none" stroke="#c6c5fe" d="M880.33,-508.5C880.33,-508.5 636.17,-508.5 636.17,-508.5 632.08,-508.5 628,-504.42 628,-500.33 628,-500.33 628,-492.17 628,-492.17 628,-488.08 632.08,-484 636.17,-484 636.17,-484 880.33,-484 880.33,-484 884.42,-484 888.5,-488.08 888.5,-492.17 888.5,-492.17 888.5,-500.33 888.5,-500.33 888.5,-504.42 884.42,-508.5 880.33,-508.5"/>
<text text-anchor="middle" x="758.25" y="-491.2" font-family="Arial" font-size="14.00" fill="#c6c5fe">app/edit/components/gestaltViewer.tsx</text>
</g>
<!-- app/edit/editorContext.ts -->
<g id="node2" class="node">
<title>app/edit/editorContext.ts</title>
<path fill="none" stroke="#c6c5fe" d="M912.33,-327C912.33,-327 758.17,-327 758.17,-327 754.08,-327 750,-322.92 750,-318.83 750,-318.83 750,-310.67 750,-310.67 750,-306.58 754.08,-302.5 758.17,-302.5 758.17,-302.5 912.33,-302.5 912.33,-302.5 916.42,-302.5 920.5,-306.58 920.5,-310.67 920.5,-310.67 920.5,-318.83 920.5,-318.83 920.5,-322.92 916.42,-327 912.33,-327"/>
<text text-anchor="middle" x="835.25" y="-309.7" font-family="Arial" font-size="14.00" fill="#c6c5fe">app/edit/editorContext.ts</text>
</g>
<!-- app/edit/components/gestaltViewer.tsx&#45;&gt;app/edit/editorContext.ts -->
<g id="edge1" class="edge">
<title>app/edit/components/gestaltViewer.tsx&#45;&gt;app/edit/editorContext.ts</title>
<path fill="none" stroke="#757575" d="M732.76,-483.55C687.25,-461.1 600.13,-410.02 637.25,-363 650.42,-346.32 694.92,-334.88 738.41,-327.44"/>
<polygon fill="#757575" stroke="#757575" points="738.92,-330.91 748.23,-325.84 737.79,-324 738.92,-330.91"/>
</g>
<!-- app/items/property/nameItem.tsx -->
<g id="node3" class="node">
<title>app/items/property/nameItem.tsx</title>
<path fill="none" stroke="#c6c5fe" d="M861.96,-387.5C861.96,-387.5 654.54,-387.5 654.54,-387.5 650.46,-387.5 646.38,-383.42 646.38,-379.33 646.38,-379.33 646.38,-371.17 646.38,-371.17 646.38,-367.08 650.46,-363 654.54,-363 654.54,-363 861.96,-363 861.96,-363 866.04,-363 870.12,-367.08 870.12,-371.17 870.12,-371.17 870.12,-379.33 870.12,-379.33 870.12,-383.42 866.04,-387.5 861.96,-387.5"/>
<text text-anchor="middle" x="758.25" y="-370.2" font-family="Arial" font-size="14.00" fill="#c6c5fe">app/items/property/nameItem.tsx</text>
</g>
<!-- app/edit/components/gestaltViewer.tsx&#45;&gt;app/items/property/nameItem.tsx -->
<g id="edge2" class="edge">
<title>app/edit/components/gestaltViewer.tsx&#45;&gt;app/items/property/nameItem.tsx</title>
<path fill="none" stroke="#757575" d="M758.25,-483.84C758.25,-464.43 758.25,-424.63 758.25,-399.26"/>
<polygon fill="#757575" stroke="#757575" points="761.75,-399.31 758.25,-389.31 754.75,-399.31 761.75,-399.31"/>
</g>
<!-- gestalt/editor/gestaltEditor.ts -->
<g id="node4" class="node">
<title>gestalt/editor/gestaltEditor.ts</title>
<path fill="none" stroke="#c6c5fe" d="M613.08,-266.5C613.08,-266.5 433.42,-266.5 433.42,-266.5 429.33,-266.5 425.25,-262.42 425.25,-258.33 425.25,-258.33 425.25,-250.17 425.25,-250.17 425.25,-246.08 429.33,-242 433.42,-242 433.42,-242 613.08,-242 613.08,-242 617.17,-242 621.25,-246.08 621.25,-250.17 621.25,-250.17 621.25,-258.33 621.25,-258.33 621.25,-262.42 617.17,-266.5 613.08,-266.5"/>
<text text-anchor="middle" x="523.25" y="-249.2" font-family="Arial" font-size="14.00" fill="#c6c5fe">gestalt/editor/gestaltEditor.ts</text>
</g>
<!-- app/edit/components/gestaltViewer.tsx&#45;&gt;gestalt/editor/gestaltEditor.ts -->
<g id="edge3" class="edge">
<title>app/edit/components/gestaltViewer.tsx&#45;&gt;gestalt/editor/gestaltEditor.ts</title>
<path fill="none" stroke="#757575" d="M710.39,-483.52C687.6,-476.14 661.06,-464.78 641.25,-448 584.41,-399.87 546.99,-317.15 531.44,-277.59"/>
<polygon fill="#757575" stroke="#757575" points="534.77,-276.5 527.93,-268.41 528.23,-279 534.77,-276.5"/>
</g>
<!-- gestalt/topic/topic.ts -->
<g id="node5" class="node">
<title>gestalt/topic/topic.ts</title>
<path fill="none" stroke="#c6c5fe" d="M1034.08,-206C1034.08,-206 908.42,-206 908.42,-206 904.33,-206 900.25,-201.92 900.25,-197.83 900.25,-197.83 900.25,-189.67 900.25,-189.67 900.25,-185.58 904.33,-181.5 908.42,-181.5 908.42,-181.5 1034.08,-181.5 1034.08,-181.5 1038.17,-181.5 1042.25,-185.58 1042.25,-189.67 1042.25,-189.67 1042.25,-197.83 1042.25,-197.83 1042.25,-201.92 1038.17,-206 1034.08,-206"/>
<text text-anchor="middle" x="971.25" y="-188.7" font-family="Arial" font-size="14.00" fill="#c6c5fe">gestalt/topic/topic.ts</text>
</g>
<!-- app/edit/components/gestaltViewer.tsx&#45;&gt;gestalt/topic/topic.ts -->
<g id="edge4" class="edge">
<title>app/edit/components/gestaltViewer.tsx&#45;&gt;gestalt/topic/topic.ts</title>
<path fill="none" stroke="#757575" d="M775.59,-483.67C810.7,-459.22 890.18,-398.67 929.25,-327 948.85,-291.05 960.94,-244.54 966.85,-217.34"/>
<polygon fill="#757575" stroke="#757575" points="970.22,-218.29 968.83,-207.79 963.37,-216.87 970.22,-218.29"/>
</g>
<!-- app/edit/editorContext.ts&#45;&gt;gestalt/editor/gestaltEditor.ts -->
<g id="edge13" class="edge">
<title>app/edit/editorContext.ts&#45;&gt;gestalt/editor/gestaltEditor.ts</title>
<path fill="none" stroke="#757575" d="M772.86,-302.05C722.14,-292.54 650.47,-279.1 596.93,-269.07"/>
<polygon fill="#757575" stroke="#757575" points="597.76,-265.66 587.28,-267.26 596.47,-272.54 597.76,-265.66"/>
</g>
<!-- app/items/property/nameItem.tsx&#45;&gt;app/edit/editorContext.ts -->
<g id="edge33" class="edge">
<title>app/items/property/nameItem.tsx&#45;&gt;app/edit/editorContext.ts</title>
<path fill="none" stroke="#757575" d="M773.46,-362.69C784.15,-354.57 798.67,-343.54 810.95,-334.21"/>
<polygon fill="#757575" stroke="#757575" points="812.75,-337.24 818.6,-328.4 808.52,-331.66 812.75,-337.24"/>
</g>
<!-- gestalt/item/item.ts -->
<g id="node8" class="node">
<title>gestalt/item/item.ts</title>
<path fill="none" stroke="#cfffac" d="M1248.33,-24.5C1248.33,-24.5 1130.17,-24.5 1130.17,-24.5 1126.08,-24.5 1122,-20.42 1122,-16.33 1122,-16.33 1122,-8.17 1122,-8.17 1122,-4.08 1126.08,0 1130.17,0 1130.17,0 1248.33,0 1248.33,0 1252.42,0 1256.5,-4.08 1256.5,-8.17 1256.5,-8.17 1256.5,-16.33 1256.5,-16.33 1256.5,-20.42 1252.42,-24.5 1248.33,-24.5"/>
<text text-anchor="middle" x="1189.25" y="-7.2" font-family="Arial" font-size="14.00" fill="#cfffac">gestalt/item/item.ts</text>
</g>
<!-- app/items/property/nameItem.tsx&#45;&gt;gestalt/item/item.ts -->
<g id="edge34" class="edge">
<title>app/items/property/nameItem.tsx&#45;&gt;gestalt/item/item.ts</title>
<path fill="none" stroke="#757575" d="M750.82,-362.77C745.3,-353.52 738.24,-339.98 735.25,-327 732.8,-316.39 734.68,-313.37 735.25,-302.5 741.1,-190.44 708.09,-113.04 807.25,-60.5 858.25,-33.48 1014.33,-21.41 1110.48,-16.42"/>
<polygon fill="#757575" stroke="#757575" points="1110.57,-19.92 1120.38,-15.92 1110.22,-12.93 1110.57,-19.92"/>
</g>
<!-- gestalt/item/propertyItem.ts -->
<g id="node18" class="node">
<title>gestalt/item/propertyItem.ts</title>
<path fill="none" stroke="#c6c5fe" d="M1156.33,-85C1156.33,-85 984.17,-85 984.17,-85 980.08,-85 976,-80.92 976,-76.83 976,-76.83 976,-68.67 976,-68.67 976,-64.58 980.08,-60.5 984.17,-60.5 984.17,-60.5 1156.33,-60.5 1156.33,-60.5 1160.42,-60.5 1164.5,-64.58 1164.5,-68.67 1164.5,-68.67 1164.5,-76.83 1164.5,-76.83 1164.5,-80.92 1160.42,-85 1156.33,-85"/>
<text text-anchor="middle" x="1070.25" y="-67.7" font-family="Arial" font-size="14.00" fill="#c6c5fe">gestalt/item/propertyItem.ts</text>
</g>
<!-- app/items/property/nameItem.tsx&#45;&gt;gestalt/item/propertyItem.ts -->
<g id="edge35" class="edge">
<title>app/items/property/nameItem.tsx&#45;&gt;gestalt/item/propertyItem.ts</title>
<path fill="none" stroke="#757575" d="M752.2,-362.59C745.6,-348.42 736.57,-323.75 741.25,-302.5 760.36,-215.69 755.24,-175.77 825.25,-121 847.16,-103.86 908.75,-92.02 964.7,-84.48"/>
<polygon fill="#757575" stroke="#757575" points="964.84,-88 974.3,-83.23 963.93,-81.06 964.84,-88"/>
</g>
<!-- gestalt/editor/gestaltEditor.ts&#45;&gt;gestalt/topic/topic.ts -->
<g id="edge42" class="edge">
<title>gestalt/editor/gestaltEditor.ts&#45;&gt;gestalt/topic/topic.ts</title>
<path fill="none" stroke="#757575" d="M613.1,-241.52C693.56,-231.01 810.59,-215.73 888.73,-205.53"/>
<polygon fill="#757575" stroke="#757575" points="889,-209.02 898.46,-204.25 888.1,-202.08 889,-209.02"/>
</g>
<!-- gestalt/editor/gestaltEditor.ts&#45;&gt;gestalt/item/item.ts -->
<g id="edge41" class="edge">
<title>gestalt/editor/gestaltEditor.ts&#45;&gt;gestalt/item/item.ts</title>
<path fill="none" stroke="#757575" d="M502.96,-241.62C481.68,-227.87 453.17,-204 467.25,-181.5 532.53,-77.2 597.86,-94.02 716.25,-60.5 851.12,-22.31 1015.23,-14 1110.42,-12.73"/>
<polygon fill="#757575" stroke="#757575" points="1110.2,-16.23 1120.16,-12.62 1110.13,-9.23 1110.2,-16.23"/>
</g>
<!-- gestalt/editor/gestaltAccess.ts -->
<g id="node13" class="node">
<title>gestalt/editor/gestaltAccess.ts</title>
<path fill="none" stroke="#cfffac" d="M198.33,-206C198.33,-206 8.17,-206 8.17,-206 4.08,-206 0,-201.92 0,-197.83 0,-197.83 0,-189.67 0,-189.67 0,-185.58 4.08,-181.5 8.17,-181.5 8.17,-181.5 198.33,-181.5 198.33,-181.5 202.42,-181.5 206.5,-185.58 206.5,-189.67 206.5,-189.67 206.5,-197.83 206.5,-197.83 206.5,-201.92 202.42,-206 198.33,-206"/>
<text text-anchor="middle" x="103.25" y="-188.7" font-family="Arial" font-size="14.00" fill="#cfffac">gestalt/editor/gestaltAccess.ts</text>
</g>
<!-- gestalt/editor/gestaltEditor.ts&#45;&gt;gestalt/editor/gestaltAccess.ts -->
<g id="edge38" class="edge">
<title>gestalt/editor/gestaltEditor.ts&#45;&gt;gestalt/editor/gestaltAccess.ts</title>
<path fill="none" stroke="#757575" d="M439.01,-241.52C369.57,-231.84 271.08,-218.13 198.73,-208.05"/>
<polygon fill="#757575" stroke="#757575" points="199.23,-204.59 188.84,-206.67 198.27,-211.52 199.23,-204.59"/>
</g>
<!-- gestalt/editor/itemWriteAccess.ts -->
<g id="node22" class="node">
<title>gestalt/editor/itemWriteAccess.ts</title>
<path fill="none" stroke="#cfffac" d="M693.71,-206C693.71,-206 484.79,-206 484.79,-206 480.71,-206 476.62,-201.92 476.62,-197.83 476.62,-197.83 476.62,-189.67 476.62,-189.67 476.62,-185.58 480.71,-181.5 484.79,-181.5 484.79,-181.5 693.71,-181.5 693.71,-181.5 697.79,-181.5 701.88,-185.58 701.88,-189.67 701.88,-189.67 701.88,-197.83 701.88,-197.83 701.88,-201.92 697.79,-206 693.71,-206"/>
<text text-anchor="middle" x="589.25" y="-188.7" font-family="Arial" font-size="14.00" fill="#cfffac">gestalt/editor/itemWriteAccess.ts</text>
</g>
<!-- gestalt/editor/gestaltEditor.ts&#45;&gt;gestalt/editor/itemWriteAccess.ts -->
<g id="edge39" class="edge">
<title>gestalt/editor/gestaltEditor.ts&#45;&gt;gestalt/editor/itemWriteAccess.ts</title>
<path fill="none" stroke="#757575" d="M536.29,-241.69C545.24,-233.76 557.33,-223.05 567.69,-213.86"/>
<polygon fill="#757575" stroke="#757575" points="569.94,-216.54 575.1,-207.29 565.3,-211.3 569.94,-216.54"/>
</g>
<!-- gestalt/editor/topicAccess.ts -->
<g id="node23" class="node">
<title>gestalt/editor/topicAccess.ts</title>
<path fill="none" stroke="#cfffac" d="M411.71,-206C411.71,-206 232.79,-206 232.79,-206 228.71,-206 224.62,-201.92 224.62,-197.83 224.62,-197.83 224.62,-189.67 224.62,-189.67 224.62,-185.58 228.71,-181.5 232.79,-181.5 232.79,-181.5 411.71,-181.5 411.71,-181.5 415.79,-181.5 419.88,-185.58 419.88,-189.67 419.88,-189.67 419.88,-197.83 419.88,-197.83 419.88,-201.92 415.79,-206 411.71,-206"/>
<text text-anchor="middle" x="322.25" y="-188.7" font-family="Arial" font-size="14.00" fill="#cfffac">gestalt/editor/topicAccess.ts</text>
</g>
<!-- gestalt/editor/gestaltEditor.ts&#45;&gt;gestalt/editor/topicAccess.ts -->
<g id="edge40" class="edge">
<title>gestalt/editor/gestaltEditor.ts&#45;&gt;gestalt/editor/topicAccess.ts</title>
<path fill="none" stroke="#757575" d="M483.06,-241.55C451.42,-232.35 407.14,-219.46 373.05,-209.54"/>
<polygon fill="#757575" stroke="#757575" points="374.41,-206.28 363.83,-206.85 372.45,-213.01 374.41,-206.28"/>
</g>
<!-- gestalt/topic/topicContent.ts -->
<g id="node25" class="node">
<title>gestalt/topic/topicContent.ts</title>
<path fill="none" stroke="#c6c5fe" d="M1281.83,-145.5C1281.83,-145.5 1106.67,-145.5 1106.67,-145.5 1102.58,-145.5 1098.5,-141.42 1098.5,-137.33 1098.5,-137.33 1098.5,-129.17 1098.5,-129.17 1098.5,-125.08 1102.58,-121 1106.67,-121 1106.67,-121 1281.83,-121 1281.83,-121 1285.92,-121 1290,-125.08 1290,-129.17 1290,-129.17 1290,-137.33 1290,-137.33 1290,-141.42 1285.92,-145.5 1281.83,-145.5"/>
<text text-anchor="middle" x="1194.25" y="-128.2" font-family="Arial" font-size="14.00" fill="#c6c5fe">gestalt/topic/topicContent.ts</text>
</g>
<!-- gestalt/topic/topic.ts&#45;&gt;gestalt/topic/topicContent.ts -->
<g id="edge46" class="edge">
<title>gestalt/topic/topic.ts&#45;&gt;gestalt/topic/topicContent.ts</title>
<path fill="none" stroke="#757575" d="M1015.84,-181.05C1051.24,-171.77 1100.92,-158.73 1138.87,-148.78"/>
<polygon fill="#757575" stroke="#757575" points="1139.49,-152.23 1148.27,-146.31 1137.71,-145.46 1139.49,-152.23"/>
</g>
<!-- gestalt/topic/topicProperties.ts -->
<g id="node26" class="node">
<title>gestalt/topic/topicProperties.ts</title>
<path fill="none" stroke="#c6c5fe" d="M1034.08,-145.5C1034.08,-145.5 842.42,-145.5 842.42,-145.5 838.33,-145.5 834.25,-141.42 834.25,-137.33 834.25,-137.33 834.25,-129.17 834.25,-129.17 834.25,-125.08 838.33,-121 842.42,-121 842.42,-121 1034.08,-121 1034.08,-121 1038.17,-121 1042.25,-125.08 1042.25,-129.17 1042.25,-129.17 1042.25,-137.33 1042.25,-137.33 1042.25,-141.42 1038.17,-145.5 1034.08,-145.5"/>
<text text-anchor="middle" x="938.25" y="-128.2" font-family="Arial" font-size="14.00" fill="#c6c5fe">gestalt/topic/topicProperties.ts</text>
</g>
<!-- gestalt/topic/topic.ts&#45;&gt;gestalt/topic/topicProperties.ts -->
<g id="edge47" class="edge">
<title>gestalt/topic/topic.ts&#45;&gt;gestalt/topic/topicProperties.ts</title>
<path fill="none" stroke="#757575" d="M964.73,-181.19C960.62,-173.9 955.18,-164.26 950.3,-155.61"/>
<polygon fill="#757575" stroke="#757575" points="953.46,-154.09 945.5,-147.1 947.36,-157.53 953.46,-154.09"/>
</g>
<!-- app/edit/components/itemInsertLine.tsx -->
<g id="node6" class="node">
<title>app/edit/components/itemInsertLine.tsx</title>
<path fill="none" stroke="#c6c5fe" d="M1221.58,-387.5C1221.58,-387.5 972.92,-387.5 972.92,-387.5 968.83,-387.5 964.75,-383.42 964.75,-379.33 964.75,-379.33 964.75,-371.17 964.75,-371.17 964.75,-367.08 968.83,-363 972.92,-363 972.92,-363 1221.58,-363 1221.58,-363 1225.67,-363 1229.75,-367.08 1229.75,-371.17 1229.75,-371.17 1229.75,-379.33 1229.75,-379.33 1229.75,-383.42 1225.67,-387.5 1221.58,-387.5"/>
<text text-anchor="middle" x="1097.25" y="-370.2" font-family="Arial" font-size="14.00" fill="#c6c5fe">app/edit/components/itemInsertLine.tsx</text>
</g>
<!-- app/edit/components/itemInsertLine.tsx&#45;&gt;app/edit/editorContext.ts -->
<g id="edge5" class="edge">
<title>app/edit/components/itemInsertLine.tsx&#45;&gt;app/edit/editorContext.ts</title>
<path fill="none" stroke="#757575" d="M1044.86,-362.55C1002.73,-353.15 943.4,-339.9 898.6,-329.9"/>
<polygon fill="#757575" stroke="#757575" points="899.55,-326.52 889.03,-327.76 898.02,-333.35 899.55,-326.52"/>
</g>
<!-- gestalt/item/contentItem.ts -->
<g id="node7" class="node">
<title>gestalt/item/contentItem.ts</title>
<path fill="none" stroke="#c6c5fe" d="M1510.33,-85C1510.33,-85 1344.17,-85 1344.17,-85 1340.08,-85 1336,-80.92 1336,-76.83 1336,-76.83 1336,-68.67 1336,-68.67 1336,-64.58 1340.08,-60.5 1344.17,-60.5 1344.17,-60.5 1510.33,-60.5 1510.33,-60.5 1514.42,-60.5 1518.5,-64.58 1518.5,-68.67 1518.5,-68.67 1518.5,-76.83 1518.5,-76.83 1518.5,-80.92 1514.42,-85 1510.33,-85"/>
<text text-anchor="middle" x="1427.25" y="-67.7" font-family="Arial" font-size="14.00" fill="#c6c5fe">gestalt/item/contentItem.ts</text>
</g>
<!-- app/edit/components/itemInsertLine.tsx&#45;&gt;gestalt/item/contentItem.ts -->
<g id="edge6" class="edge">
<title>app/edit/components/itemInsertLine.tsx&#45;&gt;gestalt/item/contentItem.ts</title>
<path fill="none" stroke="#757575" d="M1194.72,-362.58C1223.31,-355.64 1253.29,-344.59 1277.25,-327 1359.63,-266.51 1404.85,-145.95 1420.69,-96.11"/>
<polygon fill="#757575" stroke="#757575" points="1423.97,-97.33 1423.56,-86.75 1417.28,-95.28 1423.97,-97.33"/>
</g>
<!-- app/edit/components/itemInsertLine.tsx&#45;&gt;gestalt/item/item.ts -->
<g id="edge7" class="edge">
<title>app/edit/components/itemInsertLine.tsx&#45;&gt;gestalt/item/item.ts</title>
<path fill="none" stroke="#757575" d="M1070.05,-362.62C991.22,-328.52 768.25,-229.03 768.25,-194.75 768.25,-194.75 768.25,-194.75 768.25,-132.25 768.25,-61.91 988.63,-31.06 1110.49,-19.38"/>
<polygon fill="#757575" stroke="#757575" points="1110.47,-22.9 1120.1,-18.48 1109.82,-15.93 1110.47,-22.9"/>
</g>
<!-- gestalt/item/contentItem.ts&#45;&gt;gestalt/item/item.ts -->
<g id="edge44" class="edge">
<title>gestalt/item/contentItem.ts&#45;&gt;gestalt/item/item.ts</title>
<path fill="none" stroke="#757575" d="M1379.66,-60.05C1341.72,-50.73 1288.4,-37.62 1247.84,-27.65"/>
<polygon fill="#757575" stroke="#757575" points="1248.77,-24.28 1238.23,-25.29 1247.1,-31.07 1248.77,-24.28"/>
</g>
<!-- app/edit/components/selectedTopicViewer.tsx -->
<g id="node9" class="node">
<title>app/edit/components/selectedTopicViewer.tsx</title>
<path fill="none" stroke="#c6c5fe" d="M1265.71,-448C1265.71,-448 972.79,-448 972.79,-448 968.71,-448 964.62,-443.92 964.62,-439.83 964.62,-439.83 964.62,-431.67 964.62,-431.67 964.62,-427.58 968.71,-423.5 972.79,-423.5 972.79,-423.5 1265.71,-423.5 1265.71,-423.5 1269.79,-423.5 1273.88,-427.58 1273.88,-431.67 1273.88,-431.67 1273.88,-439.83 1273.88,-439.83 1273.88,-443.92 1269.79,-448 1265.71,-448"/>
<text text-anchor="middle" x="1119.25" y="-430.7" font-family="Arial" font-size="14.00" fill="#c6c5fe">app/edit/components/selectedTopicViewer.tsx</text>
</g>
<!-- app/edit/components/selectedTopicViewer.tsx&#45;&gt;app/edit/editorContext.ts -->
<g id="edge9" class="edge">
<title>app/edit/components/selectedTopicViewer.tsx&#45;&gt;app/edit/editorContext.ts</title>
<path fill="none" stroke="#757575" d="M1066.32,-423.02C1033.84,-414.94 991.8,-402.9 956.25,-387.5 921.74,-372.55 884.96,-349.62 861.13,-333.73"/>
<polygon fill="#757575" stroke="#757575" points="863.26,-330.94 853.01,-328.23 859.34,-336.74 863.26,-330.94"/>
</g>
<!-- app/edit/components/selectedTopicViewer.tsx&#45;&gt;app/items/property/nameItem.tsx -->
<g id="edge10" class="edge">
<title>app/edit/components/selectedTopicViewer.tsx&#45;&gt;app/items/property/nameItem.tsx</title>
<path fill="none" stroke="#757575" d="M1047.06,-423.05C987.89,-413.46 904.06,-399.88 841.95,-389.81"/>
<polygon fill="#757575" stroke="#757575" points="842.54,-386.36 832.11,-388.22 841.43,-393.27 842.54,-386.36"/>
</g>
<!-- app/edit/components/selectedTopicViewer.tsx&#45;&gt;app/edit/components/itemInsertLine.tsx -->
<g id="edge8" class="edge">
<title>app/edit/components/selectedTopicViewer.tsx&#45;&gt;app/edit/components/itemInsertLine.tsx</title>
<path fill="none" stroke="#757575" d="M1114.9,-423.19C1112.25,-416.14 1108.77,-406.89 1105.61,-398.47"/>
<polygon fill="#757575" stroke="#757575" points="1108.92,-397.33 1102.12,-389.2 1102.36,-399.79 1108.92,-397.33"/>
</g>
<!-- app/edit/components/selectedTopicViewer.tsx&#45;&gt;gestalt/item/item.ts -->
<g id="edge12" class="edge">
<title>app/edit/components/selectedTopicViewer.tsx&#45;&gt;gestalt/item/item.ts</title>
<path fill="none" stroke="#757575" d="M1173.61,-423.05C1200.29,-415.64 1232.04,-404.24 1257.25,-387.5 1407.39,-287.84 1463.03,-253.38 1527.25,-85 1531.13,-74.83 1534.4,-68.72 1527.25,-60.5 1494.37,-22.71 1357.47,-14.22 1268.3,-12.82"/>
<polygon fill="#757575" stroke="#757575" points="1268.42,-9.32 1258.38,-12.7 1268.33,-16.32 1268.42,-9.32"/>
</g>
<!-- app/items/property/texMacrosItem.tsx -->
<g id="node10" class="node">
<title>app/items/property/texMacrosItem.tsx</title>
<path fill="none" stroke="#c6c5fe" d="M1297.96,-266.5C1297.96,-266.5 1060.54,-266.5 1060.54,-266.5 1056.46,-266.5 1052.38,-262.42 1052.38,-258.33 1052.38,-258.33 1052.38,-250.17 1052.38,-250.17 1052.38,-246.08 1056.46,-242 1060.54,-242 1060.54,-242 1297.96,-242 1297.96,-242 1302.04,-242 1306.12,-246.08 1306.12,-250.17 1306.12,-250.17 1306.12,-258.33 1306.12,-258.33 1306.12,-262.42 1302.04,-266.5 1297.96,-266.5"/>
<text text-anchor="middle" x="1179.25" y="-249.2" font-family="Arial" font-size="14.00" fill="#c6c5fe">app/items/property/texMacrosItem.tsx</text>
</g>
<!-- app/edit/components/selectedTopicViewer.tsx&#45;&gt;app/items/property/texMacrosItem.tsx -->
<g id="edge11" class="edge">
<title>app/edit/components/selectedTopicViewer.tsx&#45;&gt;app/items/property/texMacrosItem.tsx</title>
<path fill="none" stroke="#757575" d="M1187.73,-423.05C1207.67,-416.12 1227.28,-405.08 1239.25,-387.5 1278.64,-329.65 1168.24,-365.66 1141.25,-327 1129.65,-310.38 1143.07,-289.8 1157.06,-274.94"/>
<polygon fill="#757575" stroke="#757575" points="1159.44,-277.51 1164.1,-268 1154.52,-272.53 1159.44,-277.51"/>
</g>
<!-- app/items/property/texMacrosItem.tsx&#45;&gt;gestalt/item/item.ts -->
<g id="edge36" class="edge">
<title>app/items/property/texMacrosItem.tsx&#45;&gt;gestalt/item/item.ts</title>
<path fill="none" stroke="#757575" d="M1200.71,-241.73C1229.42,-224.94 1279.06,-190.76 1299.25,-145.5 1320.46,-97.95 1261.77,-53.84 1222.17,-30.53"/>
<polygon fill="#757575" stroke="#757575" points="1224.07,-27.58 1213.64,-25.67 1220.6,-33.66 1224.07,-27.58"/>
</g>
<!-- app/items/property/texMacrosItem.tsx&#45;&gt;gestalt/item/propertyItem.ts -->
<g id="edge37" class="edge">
<title>app/items/property/texMacrosItem.tsx&#45;&gt;gestalt/item/propertyItem.ts</title>
<path fill="none" stroke="#757575" d="M1166.47,-241.63C1146.93,-223.15 1109.74,-185.12 1089.25,-145.5 1081.29,-130.12 1076.46,-111.12 1073.65,-96.53"/>
<polygon fill="#757575" stroke="#757575" points="1077.16,-96.25 1072.01,-86.99 1070.26,-97.44 1077.16,-96.25"/>
</g>
<!-- app/edit/page.tsx -->
<g id="node11" class="node">
<title>app/edit/page.tsx</title>
<path fill="none" stroke="#c6c5fe" d="M992.46,-569C992.46,-569 884.04,-569 884.04,-569 879.96,-569 875.88,-564.92 875.88,-560.83 875.88,-560.83 875.88,-552.67 875.88,-552.67 875.88,-548.58 879.96,-544.5 884.04,-544.5 884.04,-544.5 992.46,-544.5 992.46,-544.5 996.54,-544.5 1000.62,-548.58 1000.62,-552.67 1000.62,-552.67 1000.62,-560.83 1000.62,-560.83 1000.62,-564.92 996.54,-569 992.46,-569"/>
<text text-anchor="middle" x="938.25" y="-551.7" font-family="Arial" font-size="14.00" fill="#c6c5fe">app/edit/page.tsx</text>
</g>
<!-- app/edit/page.tsx&#45;&gt;app/edit/components/gestaltViewer.tsx -->
<g id="edge14" class="edge">
<title>app/edit/page.tsx&#45;&gt;app/edit/components/gestaltViewer.tsx</title>
<path fill="none" stroke="#757575" d="M902.26,-544.05C874.3,-534.97 835.3,-522.29 804.94,-512.42"/>
<polygon fill="#757575" stroke="#757575" points="806.21,-509.16 795.62,-509.4 804.05,-515.81 806.21,-509.16"/>
</g>
<!-- app/edit/page.tsx&#45;&gt;app/edit/editorContext.ts -->
<g id="edge16" class="edge">
<title>app/edit/page.tsx&#45;&gt;app/edit/editorContext.ts</title>
<path fill="none" stroke="#757575" d="M875.46,-555.75C792.12,-554.26 651.66,-546.07 619.25,-508.5 596.6,-482.25 519.39,-488.53 624.25,-363 639.35,-344.92 690.34,-333.22 738.4,-325.98"/>
<polygon fill="#757575" stroke="#757575" points="738.67,-329.48 748.07,-324.58 737.67,-322.55 738.67,-329.48"/>
</g>
<!-- app/edit/page.tsx&#45;&gt;gestalt/editor/gestaltEditor.ts -->
<g id="edge19" class="edge">
<title>app/edit/page.tsx&#45;&gt;gestalt/editor/gestaltEditor.ts</title>
<path fill="none" stroke="#757575" d="M875.6,-552.2C787.03,-546.38 630.27,-532.96 579.25,-508.5 537.65,-488.56 504.25,-482.88 504.25,-436.75 504.25,-436.75 504.25,-436.75 504.25,-374.25 504.25,-340.4 511.84,-301.8 517.43,-277.98"/>
<polygon fill="#757575" stroke="#757575" points="520.78,-278.99 519.75,-268.44 513.98,-277.33 520.78,-278.99"/>
</g>
<!-- app/edit/page.tsx&#45;&gt;app/edit/components/selectedTopicViewer.tsx -->
<g id="edge15" class="edge">
<title>app/edit/page.tsx&#45;&gt;app/edit/components/selectedTopicViewer.tsx</title>
<path fill="none" stroke="#757575" d="M955.93,-544.12C987.7,-523.24 1054.6,-479.26 1092.17,-454.55"/>
<polygon fill="#757575" stroke="#757575" points="1093.8,-457.67 1100.23,-449.26 1089.95,-451.82 1093.8,-457.67"/>
</g>
<!-- app/items/allItems.ts -->
<g id="node12" class="node">
<title>app/items/allItems.ts</title>
<path fill="none" stroke="#c6c5fe" d="M1500.33,-508.5C1500.33,-508.5 1370.17,-508.5 1370.17,-508.5 1366.08,-508.5 1362,-504.42 1362,-500.33 1362,-500.33 1362,-492.17 1362,-492.17 1362,-488.08 1366.08,-484 1370.17,-484 1370.17,-484 1500.33,-484 1500.33,-484 1504.42,-484 1508.5,-488.08 1508.5,-492.17 1508.5,-492.17 1508.5,-500.33 1508.5,-500.33 1508.5,-504.42 1504.42,-508.5 1500.33,-508.5"/>
<text text-anchor="middle" x="1435.25" y="-491.2" font-family="Arial" font-size="14.00" fill="#c6c5fe">app/items/allItems.ts</text>
</g>
<!-- app/edit/page.tsx&#45;&gt;app/items/allItems.ts -->
<g id="edge17" class="edge">
<title>app/edit/page.tsx&#45;&gt;app/items/allItems.ts</title>
<path fill="none" stroke="#757575" d="M1001.05,-545.75C1004.16,-545.32 1007.24,-544.9 1010.25,-544.5 1160.04,-524.83 1198.22,-526.19 1348.25,-508.5 1348.94,-508.42 1349.62,-508.34 1350.31,-508.26"/>
<polygon fill="#757575" stroke="#757575" points="1350.68,-511.74 1360.19,-507.06 1349.84,-504.79 1350.68,-511.74"/>
</g>
<!-- app/edit/page.tsx&#45;&gt;gestalt/editor/gestaltAccess.ts -->
<g id="edge18" class="edge">
<title>app/edit/page.tsx&#45;&gt;gestalt/editor/gestaltAccess.ts</title>
<path fill="none" stroke="#757575" d="M875.49,-551.5C705.4,-539.15 248.25,-500.08 248.25,-436.75 248.25,-436.75 248.25,-436.75 248.25,-313.75 248.25,-261.81 191.97,-228.4 149.54,-210.59"/>
<polygon fill="#757575" stroke="#757575" points="151.08,-207.44 140.5,-206.96 148.47,-213.94 151.08,-207.44"/>
</g>
<!-- gestalt/gestalt.ts -->
<g id="node14" class="node">
<title>gestalt/gestalt.ts</title>
<path fill="none" stroke="#c6c5fe" d="M1260.46,-327C1260.46,-327 1158.04,-327 1158.04,-327 1153.96,-327 1149.88,-322.92 1149.88,-318.83 1149.88,-318.83 1149.88,-310.67 1149.88,-310.67 1149.88,-306.58 1153.96,-302.5 1158.04,-302.5 1158.04,-302.5 1260.46,-302.5 1260.46,-302.5 1264.54,-302.5 1268.62,-306.58 1268.62,-310.67 1268.62,-310.67 1268.62,-318.83 1268.62,-318.83 1268.62,-322.92 1264.54,-327 1260.46,-327"/>
<text text-anchor="middle" x="1209.25" y="-309.7" font-family="Arial" font-size="14.00" fill="#c6c5fe">gestalt/gestalt.ts</text>
</g>
<!-- app/edit/page.tsx&#45;&gt;gestalt/gestalt.ts -->
<g id="edge20" class="edge">
<title>app/edit/page.tsx&#45;&gt;gestalt/gestalt.ts</title>
<path fill="none" stroke="#757575" d="M1001.07,-545.2C1091.08,-528.67 1249.61,-493.75 1283.25,-448 1311.05,-410.19 1264.18,-360.85 1233.2,-334.42"/>
<polygon fill="#757575" stroke="#757575" points="1235.68,-331.93 1225.74,-328.26 1231.22,-337.33 1235.68,-331.93"/>
</g>
<!-- localGestalt/privateGestaltAccess.ts -->
<g id="node15" class="node">
<title>localGestalt/privateGestaltAccess.ts</title>
<path fill="none" stroke="#c6c5fe" d="M2226.08,-508.5C2226.08,-508.5 1998.42,-508.5 1998.42,-508.5 1994.33,-508.5 1990.25,-504.42 1990.25,-500.33 1990.25,-500.33 1990.25,-492.17 1990.25,-492.17 1990.25,-488.08 1994.33,-484 1998.42,-484 1998.42,-484 2226.08,-484 2226.08,-484 2230.17,-484 2234.25,-488.08 2234.25,-492.17 2234.25,-492.17 2234.25,-500.33 2234.25,-500.33 2234.25,-504.42 2230.17,-508.5 2226.08,-508.5"/>
<text text-anchor="middle" x="2112.25" y="-491.2" font-family="Arial" font-size="14.00" fill="#c6c5fe">localGestalt/privateGestaltAccess.ts</text>
</g>
<!-- app/edit/page.tsx&#45;&gt;localGestalt/privateGestaltAccess.ts -->
<g id="edge21" class="edge">
<title>app/edit/page.tsx&#45;&gt;localGestalt/privateGestaltAccess.ts</title>
<path fill="none" stroke="#757575" d="M1001.03,-545.52C1004.14,-545.14 1007.23,-544.8 1010.25,-544.5 1358.52,-509.94 1771.18,-500.64 1978.79,-498.15"/>
<polygon fill="#757575" stroke="#757575" points="1978.57,-501.65 1988.53,-498.04 1978.49,-494.66 1978.57,-501.65"/>
</g>
<!-- app/items/allItems.ts&#45;&gt;app/items/property/nameItem.tsx -->
<g id="edge24" class="edge">
<title>app/items/allItems.ts&#45;&gt;app/items/property/nameItem.tsx</title>
<path fill="none" stroke="#757575" d="M1361.55,-493.72C1266.54,-490.45 1096.71,-480.18 955.25,-448 897.18,-434.79 832.87,-409.16 794.01,-392.38"/>
<polygon fill="#757575" stroke="#757575" points="795.71,-389.3 785.14,-388.5 792.9,-395.71 795.71,-389.3"/>
</g>
<!-- app/items/allItems.ts&#45;&gt;gestalt/item/contentItem.ts -->
<g id="edge26" class="edge">
<title>app/items/allItems.ts&#45;&gt;gestalt/item/contentItem.ts</title>
<path fill="none" stroke="#757575" d="M1508.93,-493.49C1638.9,-489.63 1897.83,-478.19 1925.25,-448 2078.8,-278.93 1640.12,-134.12 1481.82,-88.6"/>
<polygon fill="#757575" stroke="#757575" points="1482.95,-85.28 1472.37,-85.91 1481.03,-92.01 1482.95,-85.28"/>
</g>
<!-- app/items/allItems.ts&#45;&gt;app/items/property/texMacrosItem.tsx -->
<g id="edge25" class="edge">
<title>app/items/allItems.ts&#45;&gt;app/items/property/texMacrosItem.tsx</title>
<path fill="none" stroke="#757575" d="M1424.71,-483.66C1416.49,-474.37 1405.04,-460.8 1396.25,-448 1371.68,-412.24 1375.85,-396.47 1348.25,-363 1321.87,-331.01 1311.98,-325.13 1277.25,-302.5 1258.86,-290.52 1236.98,-279.68 1218.56,-271.41"/>
<polygon fill="#757575" stroke="#757575" points="1220.11,-268.28 1209.55,-267.46 1217.3,-274.69 1220.11,-268.28"/>
</g>
<!-- app/items/content/mathItem.tsx -->
<g id="node16" class="node">
<title>app/items/content/mathItem.tsx</title>
<path fill="none" stroke="#c6c5fe" d="M1907.71,-448C1907.71,-448 1710.79,-448 1710.79,-448 1706.71,-448 1702.62,-443.92 1702.62,-439.83 1702.62,-439.83 1702.62,-431.67 1702.62,-431.67 1702.62,-427.58 1706.71,-423.5 1710.79,-423.5 1710.79,-423.5 1907.71,-423.5 1907.71,-423.5 1911.79,-423.5 1915.88,-427.58 1915.88,-431.67 1915.88,-431.67 1915.88,-439.83 1915.88,-439.83 1915.88,-443.92 1911.79,-448 1907.71,-448"/>
<text text-anchor="middle" x="1809.25" y="-430.7" font-family="Arial" font-size="14.00" fill="#c6c5fe">app/items/content/mathItem.tsx</text>
</g>
<!-- app/items/allItems.ts&#45;&gt;app/items/content/mathItem.tsx -->
<g id="edge22" class="edge">
<title>app/items/allItems.ts&#45;&gt;app/items/content/mathItem.tsx</title>
<path fill="none" stroke="#757575" d="M1508.69,-483.76C1570.33,-474.12 1658.46,-460.34 1723.35,-450.19"/>
<polygon fill="#757575" stroke="#757575" points="1723.54,-453.7 1732.88,-448.7 1722.46,-446.78 1723.54,-453.7"/>
</g>
<!-- app/items/content/paragraphItem.tsx -->
<g id="node17" class="node">
<title>app/items/content/paragraphItem.tsx</title>
<path fill="none" stroke="#c6c5fe" d="M1676.21,-448C1676.21,-448 1446.29,-448 1446.29,-448 1442.21,-448 1438.12,-443.92 1438.12,-439.83 1438.12,-439.83 1438.12,-431.67 1438.12,-431.67 1438.12,-427.58 1442.21,-423.5 1446.29,-423.5 1446.29,-423.5 1676.21,-423.5 1676.21,-423.5 1680.29,-423.5 1684.38,-427.58 1684.38,-431.67 1684.38,-431.67 1684.38,-439.83 1684.38,-439.83 1684.38,-443.92 1680.29,-448 1676.21,-448"/>
<text text-anchor="middle" x="1561.25" y="-430.7" font-family="Arial" font-size="14.00" fill="#c6c5fe">app/items/content/paragraphItem.tsx</text>
</g>
<!-- app/items/allItems.ts&#45;&gt;app/items/content/paragraphItem.tsx -->
<g id="edge23" class="edge">
<title>app/items/allItems.ts&#45;&gt;app/items/content/paragraphItem.tsx</title>
<path fill="none" stroke="#757575" d="M1460.45,-483.55C1479.16,-474.86 1504.93,-462.9 1525.74,-453.24"/>
<polygon fill="#757575" stroke="#757575" points="1527.13,-456.45 1534.73,-449.06 1524.18,-450.1 1527.13,-456.45"/>
</g>
<!-- app/items/allItems.ts&#45;&gt;gestalt/item/propertyItem.ts -->
<g id="edge27" class="edge">
<title>app/items/allItems.ts&#45;&gt;gestalt/item/propertyItem.ts</title>
<path fill="none" stroke="#757575" d="M1431.12,-483.6C1424.02,-462.48 1410.25,-416.36 1410.25,-376.25 1410.25,-376.25 1410.25,-376.25 1410.25,-313.75 1410.25,-214.89 1379.37,-178.91 1299.25,-121 1279.14,-106.46 1226.01,-95.04 1175.99,-87.06"/>
<polygon fill="#757575" stroke="#757575" points="1176.62,-83.62 1166.2,-85.54 1175.55,-90.54 1176.62,-83.62"/>
</g>
<!-- gestalt/gestalt.ts&#45;&gt;gestalt/topic/topic.ts -->
<g id="edge43" class="edge">
<title>gestalt/gestalt.ts&#45;&gt;gestalt/topic/topic.ts</title>
<path fill="none" stroke="#757575" d="M1149.5,-304.35C1116.54,-297.35 1075.82,-285.6 1043.25,-266.5 1020.6,-253.21 999.96,-231.13 986.64,-214.97"/>
<polygon fill="#757575" stroke="#757575" points="989.6,-213.07 980.63,-207.43 984.12,-217.43 989.6,-213.07"/>
</g>
<!-- gestalt/editor/gestaltViewData.ts -->
<g id="node24" class="node">
<title>gestalt/editor/gestaltViewData.ts</title>
<path fill="none" stroke="#cfffac" d="M2481.33,-448C2481.33,-448 2279.17,-448 2279.17,-448 2275.08,-448 2271,-443.92 2271,-439.83 2271,-439.83 2271,-431.67 2271,-431.67 2271,-427.58 2275.08,-423.5 2279.17,-423.5 2279.17,-423.5 2481.33,-423.5 2481.33,-423.5 2485.42,-423.5 2489.5,-427.58 2489.5,-431.67 2489.5,-431.67 2489.5,-439.83 2489.5,-439.83 2489.5,-443.92 2485.42,-448 2481.33,-448"/>
<text text-anchor="middle" x="2380.25" y="-430.7" font-family="Arial" font-size="14.00" fill="#cfffac">gestalt/editor/gestaltViewData.ts</text>
</g>
<!-- localGestalt/privateGestaltAccess.ts&#45;&gt;gestalt/editor/gestaltViewData.ts -->
<g id="edge50" class="edge">
<title>localGestalt/privateGestaltAccess.ts&#45;&gt;gestalt/editor/gestaltViewData.ts</title>
<path fill="none" stroke="#757575" d="M2165.84,-483.55C2209.02,-474.13 2269.88,-460.84 2315.74,-450.83"/>
<polygon fill="#757575" stroke="#757575" points="2316.25,-454.3 2325.27,-448.75 2314.76,-447.46 2316.25,-454.3"/>
</g>
<!-- localGestalt/privateSharedTopicAccess.ts -->
<g id="node27" class="node">
<title>localGestalt/privateSharedTopicAccess.ts</title>
<path fill="none" stroke="#c6c5fe" d="M2244.46,-448C2244.46,-448 1980.04,-448 1980.04,-448 1975.96,-448 1971.88,-443.92 1971.88,-439.83 1971.88,-439.83 1971.88,-431.67 1971.88,-431.67 1971.88,-427.58 1975.96,-423.5 1980.04,-423.5 1980.04,-423.5 2244.46,-423.5 2244.46,-423.5 2248.54,-423.5 2252.62,-427.58 2252.62,-431.67 2252.62,-431.67 2252.62,-439.83 2252.62,-439.83 2252.62,-443.92 2248.54,-448 2244.46,-448"/>
<text text-anchor="middle" x="2112.25" y="-430.7" font-family="Arial" font-size="14.00" fill="#c6c5fe">localGestalt/privateSharedTopicAccess.ts</text>
</g>
<!-- localGestalt/privateGestaltAccess.ts&#45;&gt;localGestalt/privateSharedTopicAccess.ts -->
<g id="edge51" class="edge">
<title>localGestalt/privateGestaltAccess.ts&#45;&gt;localGestalt/privateSharedTopicAccess.ts</title>
<path fill="none" stroke="#757575" d="M2112.25,-483.69C2112.25,-476.8 2112.25,-467.81 2112.25,-459.55"/>
<polygon fill="#757575" stroke="#757575" points="2115.75,-459.8 2112.25,-449.8 2108.75,-459.8 2115.75,-459.8"/>
</g>
<!-- app/items/basicContentItem.tsx -->
<g id="node19" class="node">
<title>app/items/basicContentItem.tsx</title>
<path fill="none" stroke="#c6c5fe" d="M1660.83,-387.5C1660.83,-387.5 1461.67,-387.5 1461.67,-387.5 1457.58,-387.5 1453.5,-383.42 1453.5,-379.33 1453.5,-379.33 1453.5,-371.17 1453.5,-371.17 1453.5,-367.08 1457.58,-363 1461.67,-363 1461.67,-363 1660.83,-363 1660.83,-363 1664.92,-363 1669,-367.08 1669,-371.17 1669,-371.17 1669,-379.33 1669,-379.33 1669,-383.42 1664.92,-387.5 1660.83,-387.5"/>
<text text-anchor="middle" x="1561.25" y="-370.2" font-family="Arial" font-size="14.00" fill="#c6c5fe">app/items/basicContentItem.tsx</text>
</g>
<!-- app/items/content/mathItem.tsx&#45;&gt;app/items/basicContentItem.tsx -->
<g id="edge31" class="edge">
<title>app/items/content/mathItem.tsx&#45;&gt;app/items/basicContentItem.tsx</title>
<path fill="none" stroke="#757575" d="M1759.66,-423.05C1719.95,-413.69 1664.1,-400.51 1621.76,-390.52"/>
<polygon fill="#757575" stroke="#757575" points="1622.76,-387.16 1612.23,-388.27 1621.16,-393.98 1622.76,-387.16"/>
</g>
<!-- app/items/content/paragraphItem.tsx&#45;&gt;app/items/basicContentItem.tsx -->
<g id="edge32" class="edge">
<title>app/items/content/paragraphItem.tsx&#45;&gt;app/items/basicContentItem.tsx</title>
<path fill="none" stroke="#757575" d="M1561.25,-423.19C1561.25,-416.3 1561.25,-407.31 1561.25,-399.05"/>
<polygon fill="#757575" stroke="#757575" points="1564.75,-399.3 1561.25,-389.3 1557.75,-399.3 1564.75,-399.3"/>
</g>
<!-- gestalt/item/propertyItem.ts&#45;&gt;gestalt/item/item.ts -->
<g id="edge45" class="edge">
<title>gestalt/item/propertyItem.ts&#45;&gt;gestalt/item/item.ts</title>
<path fill="none" stroke="#757575" d="M1094.05,-60.05C1111.56,-51.44 1135.62,-39.62 1155.17,-30"/>
<polygon fill="#757575" stroke="#757575" points="1156.71,-33.15 1164.14,-25.6 1153.62,-26.87 1156.71,-33.15"/>
</g>
<!-- app/items/basicContentItem.tsx&#45;&gt;app/edit/editorContext.ts -->
<g id="edge28" class="edge">
<title>app/items/basicContentItem.tsx&#45;&gt;app/edit/editorContext.ts</title>
<path fill="none" stroke="#757575" d="M1453.34,-365.56C1312.25,-354.19 1067.17,-334.44 931.89,-323.54"/>
<polygon fill="#757575" stroke="#757575" points="932.5,-320.07 922.25,-322.76 931.94,-327.05 932.5,-320.07"/>
</g>
<!-- app/items/basicContentItem.tsx&#45;&gt;gestalt/item/contentItem.ts -->
<g id="edge29" class="edge">
<title>app/items/basicContentItem.tsx&#45;&gt;gestalt/item/contentItem.ts</title>
<path fill="none" stroke="#757575" d="M1543.7,-362.66C1517.26,-343.64 1470.25,-303.1 1470.25,-255.25 1470.25,-255.25 1470.25,-255.25 1470.25,-192.75 1470.25,-156.91 1452.78,-118.41 1440.11,-95.21"/>
<polygon fill="#757575" stroke="#757575" points="1443.27,-93.69 1435.29,-86.72 1437.19,-97.14 1443.27,-93.69"/>
</g>
<!-- app/items/basicContentItem.tsx&#45;&gt;gestalt/item/item.ts -->
<g id="edge30" class="edge">
<title>app/items/basicContentItem.tsx&#45;&gt;gestalt/item/item.ts</title>
<path fill="none" stroke="#757575" d="M1565.05,-362.57C1571.58,-341.41 1584.25,-295.23 1584.25,-255.25 1584.25,-255.25 1584.25,-255.25 1584.25,-132.25 1584.25,-98.62 1586.24,-81.83 1560.25,-60.5 1516.97,-24.97 1363.58,-15.87 1268.12,-13.71"/>
<polygon fill="#757575" stroke="#757575" points="1268.35,-10.22 1258.29,-13.51 1268.21,-17.21 1268.35,-10.22"/>
</g>
<!-- app/layout.tsx -->
<g id="node20" class="node">
<title>app/layout.tsx</title>
<path fill="none" stroke="#cfffac" d="M1113.21,-569C1113.21,-569 1027.29,-569 1027.29,-569 1023.21,-569 1019.12,-564.92 1019.12,-560.83 1019.12,-560.83 1019.12,-552.67 1019.12,-552.67 1019.12,-548.58 1023.21,-544.5 1027.29,-544.5 1027.29,-544.5 1113.21,-544.5 1113.21,-544.5 1117.29,-544.5 1121.38,-548.58 1121.38,-552.67 1121.38,-552.67 1121.38,-560.83 1121.38,-560.83 1121.38,-564.92 1117.29,-569 1113.21,-569"/>
<text text-anchor="middle" x="1070.25" y="-551.7" font-family="Arial" font-size="14.00" fill="#cfffac">app/layout.tsx</text>
</g>
<!-- app/page.tsx -->
<g id="node21" class="node">
<title>app/page.tsx</title>
<path fill="none" stroke="#cfffac" d="M1228.96,-569C1228.96,-569 1147.54,-569 1147.54,-569 1143.46,-569 1139.38,-564.92 1139.38,-560.83 1139.38,-560.83 1139.38,-552.67 1139.38,-552.67 1139.38,-548.58 1143.46,-544.5 1147.54,-544.5 1147.54,-544.5 1228.96,-544.5 1228.96,-544.5 1233.04,-544.5 1237.12,-548.58 1237.12,-552.67 1237.12,-552.67 1237.12,-560.83 1237.12,-560.83 1237.12,-564.92 1233.04,-569 1228.96,-569"/>
<text text-anchor="middle" x="1188.25" y="-551.7" font-family="Arial" font-size="14.00" fill="#cfffac">app/page.tsx</text>
</g>
<!-- gestalt/topic/topicContent.ts&#45;&gt;gestalt/item/contentItem.ts -->
<g id="edge48" class="edge">
<title>gestalt/topic/topicContent.ts&#45;&gt;gestalt/item/contentItem.ts</title>
<path fill="none" stroke="#757575" d="M1240.84,-120.55C1277.91,-111.25 1329.96,-98.18 1369.64,-88.21"/>
<polygon fill="#757575" stroke="#757575" points="1370.43,-91.63 1379.27,-85.8 1368.72,-84.84 1370.43,-91.63"/>
</g>
<!-- gestalt/topic/topicProperties.ts&#45;&gt;gestalt/item/propertyItem.ts -->
<g id="edge49" class="edge">
<title>gestalt/topic/topicProperties.ts&#45;&gt;gestalt/item/propertyItem.ts</title>
<path fill="none" stroke="#757575" d="M964.64,-120.55C984.43,-111.78 1011.75,-99.68 1033.64,-89.97"/>
<polygon fill="#757575" stroke="#757575" points="1034.79,-93.29 1042.52,-86.04 1031.96,-86.89 1034.79,-93.29"/>
</g>
<!-- localGestalt/privateItemWriteAccess.ts -->
<g id="node28" class="node">
<title>localGestalt/privateItemWriteAccess.ts</title>
<path fill="none" stroke="#cfffac" d="M2234.71,-387.5C2234.71,-387.5 1989.79,-387.5 1989.79,-387.5 1985.71,-387.5 1981.62,-383.42 1981.62,-379.33 1981.62,-379.33 1981.62,-371.17 1981.62,-371.17 1981.62,-367.08 1985.71,-363 1989.79,-363 1989.79,-363 2234.71,-363 2234.71,-363 2238.79,-363 2242.88,-367.08 2242.88,-371.17 2242.88,-371.17 2242.88,-379.33 2242.88,-379.33 2242.88,-383.42 2238.79,-387.5 2234.71,-387.5"/>
<text text-anchor="middle" x="2112.25" y="-370.2" font-family="Arial" font-size="14.00" fill="#cfffac">localGestalt/privateItemWriteAccess.ts</text>
</g>
<!-- localGestalt/privateSharedTopicAccess.ts&#45;&gt;localGestalt/privateItemWriteAccess.ts -->
<g id="edge52" class="edge">
<title>localGestalt/privateSharedTopicAccess.ts&#45;&gt;localGestalt/privateItemWriteAccess.ts</title>
<path fill="none" stroke="#757575" d="M2112.25,-423.19C2112.25,-416.3 2112.25,-407.31 2112.25,-399.05"/>
<polygon fill="#757575" stroke="#757575" points="2115.75,-399.3 2112.25,-389.3 2108.75,-399.3 2115.75,-399.3"/>
</g>
</g>
</svg>
