<?xml version="1.0" encoding="UTF-8" standalone="no"?>
<!DOCTYPE svg PUBLIC "-//W3C//DTD SVG 1.1//EN"
 "http://www.w3.org/Graphics/SVG/1.1/DTD/svg11.dtd">
<!-- Generated by graphviz version 11.0.0 (20240428.1522)
 -->
<!-- Title: G Pages: 1 -->
<svg width="2536pt" height="612pt"
 viewBox="0.00 0.00 2535.70 612.20" xmlns="http://www.w3.org/2000/svg" xmlns:xlink="http://www.w3.org/1999/xlink">
<g id="graph0" class="graph" transform="scale(1 1) rotate(0) translate(21.6 590.6)">
<title>G</title>
<polygon fill="#111111" stroke="none" points="-21.6,21.6 -21.6,-590.6 2514.1,-590.6 2514.1,21.6 -21.6,21.6"/>
<!-- app/edit/components/gestaltViewer.tsx -->
<g id="node1" class="node">
<title>app/edit/components/gestaltViewer.tsx</title>
<path fill="none" stroke="#c6c5fe" d="M883.33,-508.5C883.33,-508.5 639.17,-508.5 639.17,-508.5 635.08,-508.5 631,-504.42 631,-500.33 631,-500.33 631,-492.17 631,-492.17 631,-488.08 635.08,-484 639.17,-484 639.17,-484 883.33,-484 883.33,-484 887.42,-484 891.5,-488.08 891.5,-492.17 891.5,-492.17 891.5,-500.33 891.5,-500.33 891.5,-504.42 887.42,-508.5 883.33,-508.5"/>
<text text-anchor="middle" x="761.25" y="-491.2" font-family="Arial" font-size="14.00" fill="#c6c5fe">app/edit/components/gestaltViewer.tsx</text>
</g>
<!-- app/items/property/nameItem.tsx -->
<g id="node2" class="node">
<title>app/items/property/nameItem.tsx</title>
<path fill="none" stroke="#c6c5fe" d="M864.96,-387.5C864.96,-387.5 657.54,-387.5 657.54,-387.5 653.46,-387.5 649.38,-383.42 649.38,-379.33 649.38,-379.33 649.38,-371.17 649.38,-371.17 649.38,-367.08 653.46,-363 657.54,-363 657.54,-363 864.96,-363 864.96,-363 869.04,-363 873.12,-367.08 873.12,-371.17 873.12,-371.17 873.12,-379.33 873.12,-379.33 873.12,-383.42 869.04,-387.5 864.96,-387.5"/>
<text text-anchor="middle" x="761.25" y="-370.2" font-family="Arial" font-size="14.00" fill="#c6c5fe">app/items/property/nameItem.tsx</text>
</g>
<!-- app/edit/components/gestaltViewer.tsx&#45;&gt;app/items/property/nameItem.tsx -->
<g id="edge1" class="edge">
<title>app/edit/components/gestaltViewer.tsx&#45;&gt;app/items/property/nameItem.tsx</title>
<path fill="none" stroke="#757575" d="M761.25,-483.84C761.25,-464.43 761.25,-424.63 761.25,-399.26"/>
<polygon fill="#757575" stroke="#757575" points="764.75,-399.31 761.25,-389.31 757.75,-399.31 764.75,-399.31"/>
</g>
<!-- gestalt/editor/editorContext.ts -->
<g id="node3" class="node">
<title>gestalt/editor/editorContext.ts</title>
<path fill="none" stroke="#c6c5fe" d="M914.71,-327C914.71,-327 729.79,-327 729.79,-327 725.71,-327 721.62,-322.92 721.62,-318.83 721.62,-318.83 721.62,-310.67 721.62,-310.67 721.62,-306.58 725.71,-302.5 729.79,-302.5 729.79,-302.5 914.71,-302.5 914.71,-302.5 918.79,-302.5 922.88,-306.58 922.88,-310.67 922.88,-310.67 922.88,-318.83 922.88,-318.83 922.88,-322.92 918.79,-327 914.71,-327"/>
<text text-anchor="middle" x="822.25" y="-309.7" font-family="Arial" font-size="14.00" fill="#c6c5fe">gestalt/editor/editorContext.ts</text>
</g>
<!-- app/edit/components/gestaltViewer.tsx&#45;&gt;gestalt/editor/editorContext.ts -->
<g id="edge2" class="edge">
<title>app/edit/components/gestaltViewer.tsx&#45;&gt;gestalt/editor/editorContext.ts</title>
<path fill="none" stroke="#757575" d="M735.84,-483.62C690.48,-461.29 603.6,-410.38 640.25,-363 651.66,-348.25 689.12,-337.26 727.11,-329.61"/>
<polygon fill="#757575" stroke="#757575" points="727.71,-333.05 736.87,-327.72 726.39,-326.18 727.71,-333.05"/>
</g>
<!-- gestalt/editor/gestaltEditor.ts -->
<g id="node4" class="node">
<title>gestalt/editor/gestaltEditor.ts</title>
<path fill="none" stroke="#c6c5fe" d="M616.08,-266.5C616.08,-266.5 436.42,-266.5 436.42,-266.5 432.33,-266.5 428.25,-262.42 428.25,-258.33 428.25,-258.33 428.25,-250.17 428.25,-250.17 428.25,-246.08 432.33,-242 436.42,-242 436.42,-242 616.08,-242 616.08,-242 620.17,-242 624.25,-246.08 624.25,-250.17 624.25,-250.17 624.25,-258.33 624.25,-258.33 624.25,-262.42 620.17,-266.5 616.08,-266.5"/>
<text text-anchor="middle" x="526.25" y="-249.2" font-family="Arial" font-size="14.00" fill="#c6c5fe">gestalt/editor/gestaltEditor.ts</text>
</g>
<!-- app/edit/components/gestaltViewer.tsx&#45;&gt;gestalt/editor/gestaltEditor.ts -->
<g id="edge3" class="edge">
<title>app/edit/components/gestaltViewer.tsx&#45;&gt;gestalt/editor/gestaltEditor.ts</title>
<path fill="none" stroke="#757575" d="M713.39,-483.52C690.6,-476.14 664.06,-464.78 644.25,-448 587.41,-399.87 549.99,-317.15 534.44,-277.59"/>
<polygon fill="#757575" stroke="#757575" points="537.77,-276.5 530.93,-268.41 531.23,-279 537.77,-276.5"/>
</g>
<!-- gestalt/topic/topic.ts -->
<g id="node5" class="node">
<title>gestalt/topic/topic.ts</title>
<path fill="none" stroke="#c6c5fe" d="M1034.08,-206C1034.08,-206 908.42,-206 908.42,-206 904.33,-206 900.25,-201.92 900.25,-197.83 900.25,-197.83 900.25,-189.67 900.25,-189.67 900.25,-185.58 904.33,-181.5 908.42,-181.5 908.42,-181.5 1034.08,-181.5 1034.08,-181.5 1038.17,-181.5 1042.25,-185.58 1042.25,-189.67 1042.25,-189.67 1042.25,-197.83 1042.25,-197.83 1042.25,-201.92 1038.17,-206 1034.08,-206"/>
<text text-anchor="middle" x="971.25" y="-188.7" font-family="Arial" font-size="14.00" fill="#c6c5fe">gestalt/topic/topic.ts</text>
</g>
<!-- app/edit/components/gestaltViewer.tsx&#45;&gt;gestalt/topic/topic.ts -->
<g id="edge4" class="edge">
<title>app/edit/components/gestaltViewer.tsx&#45;&gt;gestalt/topic/topic.ts</title>
<path fill="none" stroke="#757575" d="M778.98,-483.55C814.46,-459.1 894.02,-398.89 932.25,-327 951.35,-291.08 962.28,-244.56 967.47,-217.35"/>
<polygon fill="#757575" stroke="#757575" points="970.86,-218.26 969.19,-207.8 963.97,-217.02 970.86,-218.26"/>
</g>
<!-- app/items/property/nameItem.tsx&#45;&gt;gestalt/editor/editorContext.ts -->
<g id="edge32" class="edge">
<title>app/items/property/nameItem.tsx&#45;&gt;gestalt/editor/editorContext.ts</title>
<path fill="none" stroke="#757575" d="M773.3,-362.69C781.49,-354.84 792.52,-344.26 802.03,-335.14"/>
<polygon fill="#757575" stroke="#757575" points="804.34,-337.78 809.13,-328.33 799.49,-332.73 804.34,-337.78"/>
</g>
<!-- gestalt/item/item.ts -->
<g id="node8" class="node">
<title>gestalt/item/item.ts</title>
<path fill="none" stroke="#cfffac" d="M1248.33,-24.5C1248.33,-24.5 1130.17,-24.5 1130.17,-24.5 1126.08,-24.5 1122,-20.42 1122,-16.33 1122,-16.33 1122,-8.17 1122,-8.17 1122,-4.08 1126.08,0 1130.17,0 1130.17,0 1248.33,0 1248.33,0 1252.42,0 1256.5,-4.08 1256.5,-8.17 1256.5,-8.17 1256.5,-16.33 1256.5,-16.33 1256.5,-20.42 1252.42,-24.5 1248.33,-24.5"/>
<text text-anchor="middle" x="1189.25" y="-7.2" font-family="Arial" font-size="14.00" fill="#cfffac">gestalt/item/item.ts</text>
</g>
<!-- app/items/property/nameItem.tsx&#45;&gt;gestalt/item/item.ts -->
<g id="edge33" class="edge">
<title>app/items/property/nameItem.tsx&#45;&gt;gestalt/item/item.ts</title>
<path fill="none" stroke="#757575" d="M739.83,-362.63C727.22,-354.5 712.38,-342.34 705.25,-327 700.66,-317.13 703.82,-313.29 705.25,-302.5 720.59,-186.79 704.11,-115.14 807.25,-60.5 858.25,-33.48 1014.33,-21.41 1110.48,-16.42"/>
<polygon fill="#757575" stroke="#757575" points="1110.57,-19.92 1120.38,-15.92 1110.22,-12.93 1110.57,-19.92"/>
</g>
<!-- gestalt/item/propertyItem.ts -->
<g id="node18" class="node">
<title>gestalt/item/propertyItem.ts</title>
<path fill="none" stroke="#c6c5fe" d="M1156.33,-85C1156.33,-85 984.17,-85 984.17,-85 980.08,-85 976,-80.92 976,-76.83 976,-76.83 976,-68.67 976,-68.67 976,-64.58 980.08,-60.5 984.17,-60.5 984.17,-60.5 1156.33,-60.5 1156.33,-60.5 1160.42,-60.5 1164.5,-64.58 1164.5,-68.67 1164.5,-68.67 1164.5,-76.83 1164.5,-76.83 1164.5,-80.92 1160.42,-85 1156.33,-85"/>
<text text-anchor="middle" x="1070.25" y="-67.7" font-family="Arial" font-size="14.00" fill="#c6c5fe">gestalt/item/propertyItem.ts</text>
</g>
<!-- app/items/property/nameItem.tsx&#45;&gt;gestalt/item/propertyItem.ts -->
<g id="edge34" class="edge">
<title>app/items/property/nameItem.tsx&#45;&gt;gestalt/item/propertyItem.ts</title>
<path fill="none" stroke="#757575" d="M743.19,-362.59C731.97,-354.2 718.54,-341.79 712.25,-327 707.99,-316.98 709.26,-312.97 712.25,-302.5 738.37,-211.14 746.94,-174.83 825.25,-121 848,-105.36 908.84,-93.58 964.19,-85.69"/>
<polygon fill="#757575" stroke="#757575" points="964.62,-89.17 974.04,-84.33 963.66,-82.24 964.62,-89.17"/>
</g>
<!-- gestalt/editor/editorContext.ts&#45;&gt;gestalt/editor/gestaltEditor.ts -->
<g id="edge37" class="edge">
<title>gestalt/editor/editorContext.ts&#45;&gt;gestalt/editor/gestaltEditor.ts</title>
<path fill="none" stroke="#757575" d="M763.06,-302.05C715.14,-292.58 647.52,-279.22 596.79,-269.19"/>
<polygon fill="#757575" stroke="#757575" points="597.56,-265.78 587.07,-267.27 596.21,-272.64 597.56,-265.78"/>
</g>
<!-- gestalt/editor/gestaltEditor.ts&#45;&gt;gestalt/topic/topic.ts -->
<g id="edge42" class="edge">
<title>gestalt/editor/gestaltEditor.ts&#45;&gt;gestalt/topic/topic.ts</title>
<path fill="none" stroke="#757575" d="M615.5,-241.52C695.3,-231.03 811.31,-215.78 888.93,-205.57"/>
<polygon fill="#757575" stroke="#757575" points="889.13,-209.08 898.59,-204.3 888.22,-202.14 889.13,-209.08"/>
</g>
<!-- gestalt/editor/gestaltEditor.ts&#45;&gt;gestalt/item/item.ts -->
<g id="edge41" class="edge">
<title>gestalt/editor/gestaltEditor.ts&#45;&gt;gestalt/item/item.ts</title>
<path fill="none" stroke="#757575" d="M504.63,-241.54C482.42,-227.91 452.96,-204.33 467.25,-181.5 532.53,-77.2 597.86,-94.02 716.25,-60.5 851.12,-22.31 1015.23,-14 1110.42,-12.73"/>
<polygon fill="#757575" stroke="#757575" points="1110.2,-16.23 1120.16,-12.62 1110.13,-9.23 1110.2,-16.23"/>
</g>
<!-- gestalt/editor/gestaltAccess.ts -->
<g id="node13" class="node">
<title>gestalt/editor/gestaltAccess.ts</title>
<path fill="none" stroke="#cfffac" d="M198.33,-206C198.33,-206 8.17,-206 8.17,-206 4.08,-206 0,-201.92 0,-197.83 0,-197.83 0,-189.67 0,-189.67 0,-185.58 4.08,-181.5 8.17,-181.5 8.17,-181.5 198.33,-181.5 198.33,-181.5 202.42,-181.5 206.5,-185.58 206.5,-189.67 206.5,-189.67 206.5,-197.83 206.5,-197.83 206.5,-201.92 202.42,-206 198.33,-206"/>
<text text-anchor="middle" x="103.25" y="-188.7" font-family="Arial" font-size="14.00" fill="#cfffac">gestalt/editor/gestaltAccess.ts</text>
</g>
<!-- gestalt/editor/gestaltEditor.ts&#45;&gt;gestalt/editor/gestaltAccess.ts -->
<g id="edge38" class="edge">
<title>gestalt/editor/gestaltEditor.ts&#45;&gt;gestalt/editor/gestaltAccess.ts</title>
<path fill="none" stroke="#757575" d="M441.41,-241.52C371.33,-231.82 271.87,-218.07 198.96,-207.99"/>
<polygon fill="#757575" stroke="#757575" points="199.83,-204.57 189.45,-206.67 198.87,-211.51 199.83,-204.57"/>
</g>
<!-- gestalt/editor/itemWriteAccess.ts -->
<g id="node22" class="node">
<title>gestalt/editor/itemWriteAccess.ts</title>
<path fill="none" stroke="#cfffac" d="M693.71,-206C693.71,-206 484.79,-206 484.79,-206 480.71,-206 476.62,-201.92 476.62,-197.83 476.62,-197.83 476.62,-189.67 476.62,-189.67 476.62,-185.58 480.71,-181.5 484.79,-181.5 484.79,-181.5 693.71,-181.5 693.71,-181.5 697.79,-181.5 701.88,-185.58 701.88,-189.67 701.88,-189.67 701.88,-197.83 701.88,-197.83 701.88,-201.92 697.79,-206 693.71,-206"/>
<text text-anchor="middle" x="589.25" y="-188.7" font-family="Arial" font-size="14.00" fill="#cfffac">gestalt/editor/itemWriteAccess.ts</text>
</g>
<!-- gestalt/editor/gestaltEditor.ts&#45;&gt;gestalt/editor/itemWriteAccess.ts -->
<g id="edge39" class="edge">
<title>gestalt/editor/gestaltEditor.ts&#45;&gt;gestalt/editor/itemWriteAccess.ts</title>
<path fill="none" stroke="#757575" d="M538.7,-241.69C547.24,-233.76 558.78,-223.05 568.67,-213.86"/>
<polygon fill="#757575" stroke="#757575" points="570.77,-216.68 575.72,-207.31 566.01,-211.55 570.77,-216.68"/>
</g>
<!-- gestalt/editor/topicAccess.ts -->
<g id="node23" class="node">
<title>gestalt/editor/topicAccess.ts</title>
<path fill="none" stroke="#cfffac" d="M411.71,-206C411.71,-206 232.79,-206 232.79,-206 228.71,-206 224.62,-201.92 224.62,-197.83 224.62,-197.83 224.62,-189.67 224.62,-189.67 224.62,-185.58 228.71,-181.5 232.79,-181.5 232.79,-181.5 411.71,-181.5 411.71,-181.5 415.79,-181.5 419.88,-185.58 419.88,-189.67 419.88,-189.67 419.88,-197.83 419.88,-197.83 419.88,-201.92 415.79,-206 411.71,-206"/>
<text text-anchor="middle" x="322.25" y="-188.7" font-family="Arial" font-size="14.00" fill="#cfffac">gestalt/editor/topicAccess.ts</text>
</g>
<!-- gestalt/editor/gestaltEditor.ts&#45;&gt;gestalt/editor/topicAccess.ts -->
<g id="edge40" class="edge">
<title>gestalt/editor/gestaltEditor.ts&#45;&gt;gestalt/editor/topicAccess.ts</title>
<path fill="none" stroke="#757575" d="M485.46,-241.55C453.35,-232.35 408.41,-219.46 373.81,-209.54"/>
<polygon fill="#757575" stroke="#757575" points="375,-206.24 364.43,-206.84 373.07,-212.97 375,-206.24"/>
</g>
<!-- gestalt/topic/topicContent.ts -->
<g id="node25" class="node">
<title>gestalt/topic/topicContent.ts</title>
<path fill="none" stroke="#c6c5fe" d="M1281.83,-145.5C1281.83,-145.5 1106.67,-145.5 1106.67,-145.5 1102.58,-145.5 1098.5,-141.42 1098.5,-137.33 1098.5,-137.33 1098.5,-129.17 1098.5,-129.17 1098.5,-125.08 1102.58,-121 1106.67,-121 1106.67,-121 1281.83,-121 1281.83,-121 1285.92,-121 1290,-125.08 1290,-129.17 1290,-129.17 1290,-137.33 1290,-137.33 1290,-141.42 1285.92,-145.5 1281.83,-145.5"/>
<text text-anchor="middle" x="1194.25" y="-128.2" font-family="Arial" font-size="14.00" fill="#c6c5fe">gestalt/topic/topicContent.ts</text>
</g>
<!-- gestalt/topic/topic.ts&#45;&gt;gestalt/topic/topicContent.ts -->
<g id="edge46" class="edge">
<title>gestalt/topic/topic.ts&#45;&gt;gestalt/topic/topicContent.ts</title>
<path fill="none" stroke="#757575" d="M1015.84,-181.05C1051.24,-171.77 1100.92,-158.73 1138.87,-148.78"/>
<polygon fill="#757575" stroke="#757575" points="1139.49,-152.23 1148.27,-146.31 1137.71,-145.46 1139.49,-152.23"/>
</g>
<!-- gestalt/topic/topicProperties.ts -->
<g id="node26" class="node">
<title>gestalt/topic/topicProperties.ts</title>
<path fill="none" stroke="#c6c5fe" d="M1034.08,-145.5C1034.08,-145.5 842.42,-145.5 842.42,-145.5 838.33,-145.5 834.25,-141.42 834.25,-137.33 834.25,-137.33 834.25,-129.17 834.25,-129.17 834.25,-125.08 838.33,-121 842.42,-121 842.42,-121 1034.08,-121 1034.08,-121 1038.17,-121 1042.25,-125.08 1042.25,-129.17 1042.25,-129.17 1042.25,-137.33 1042.25,-137.33 1042.25,-141.42 1038.17,-145.5 1034.08,-145.5"/>
<text text-anchor="middle" x="938.25" y="-128.2" font-family="Arial" font-size="14.00" fill="#c6c5fe">gestalt/topic/topicProperties.ts</text>
</g>
<!-- gestalt/topic/topic.ts&#45;&gt;gestalt/topic/topicProperties.ts -->
<g id="edge47" class="edge">
<title>gestalt/topic/topic.ts&#45;&gt;gestalt/topic/topicProperties.ts</title>
<path fill="none" stroke="#757575" d="M964.73,-181.19C960.62,-173.9 955.18,-164.26 950.3,-155.61"/>
<polygon fill="#757575" stroke="#757575" points="953.46,-154.09 945.5,-147.1 947.36,-157.53 953.46,-154.09"/>
</g>
<!-- app/edit/components/itemInsertLine.tsx -->
<g id="node6" class="node">
<title>app/edit/components/itemInsertLine.tsx</title>
<path fill="none" stroke="#c6c5fe" d="M1224.58,-387.5C1224.58,-387.5 975.92,-387.5 975.92,-387.5 971.83,-387.5 967.75,-383.42 967.75,-379.33 967.75,-379.33 967.75,-371.17 967.75,-371.17 967.75,-367.08 971.83,-363 975.92,-363 975.92,-363 1224.58,-363 1224.58,-363 1228.67,-363 1232.75,-367.08 1232.75,-371.17 1232.75,-371.17 1232.75,-379.33 1232.75,-379.33 1232.75,-383.42 1228.67,-387.5 1224.58,-387.5"/>
<text text-anchor="middle" x="1100.25" y="-370.2" font-family="Arial" font-size="14.00" fill="#c6c5fe">app/edit/components/itemInsertLine.tsx</text>
</g>
<!-- app/edit/components/itemInsertLine.tsx&#45;&gt;gestalt/editor/editorContext.ts -->
<g id="edge5" class="edge">
<title>app/edit/components/itemInsertLine.tsx&#45;&gt;gestalt/editor/editorContext.ts</title>
<path fill="none" stroke="#757575" d="M1044.66,-362.55C999.77,-353.11 936.47,-339.79 888.87,-329.77"/>
<polygon fill="#757575" stroke="#757575" points="889.73,-326.37 879.22,-327.74 888.29,-333.22 889.73,-326.37"/>
</g>
<!-- gestalt/item/contentItem.ts -->
<g id="node7" class="node">
<title>gestalt/item/contentItem.ts</title>
<path fill="none" stroke="#c6c5fe" d="M1510.33,-85C1510.33,-85 1344.17,-85 1344.17,-85 1340.08,-85 1336,-80.92 1336,-76.83 1336,-76.83 1336,-68.67 1336,-68.67 1336,-64.58 1340.08,-60.5 1344.17,-60.5 1344.17,-60.5 1510.33,-60.5 1510.33,-60.5 1514.42,-60.5 1518.5,-64.58 1518.5,-68.67 1518.5,-68.67 1518.5,-76.83 1518.5,-76.83 1518.5,-80.92 1514.42,-85 1510.33,-85"/>
<text text-anchor="middle" x="1427.25" y="-67.7" font-family="Arial" font-size="14.00" fill="#c6c5fe">gestalt/item/contentItem.ts</text>
</g>
<!-- app/edit/components/itemInsertLine.tsx&#45;&gt;gestalt/item/contentItem.ts -->
<g id="edge6" class="edge">
<title>app/edit/components/itemInsertLine.tsx&#45;&gt;gestalt/item/contentItem.ts</title>
<path fill="none" stroke="#757575" d="M1197.72,-362.58C1226.31,-355.64 1256.29,-344.59 1280.25,-327 1362.21,-266.82 1405.83,-146.09 1420.99,-96.16"/>
<polygon fill="#757575" stroke="#757575" points="1424.29,-97.36 1423.74,-86.78 1417.57,-95.39 1424.29,-97.36"/>
</g>
<!-- app/edit/components/itemInsertLine.tsx&#45;&gt;gestalt/item/item.ts -->
<g id="edge7" class="edge">
<title>app/edit/components/itemInsertLine.tsx&#45;&gt;gestalt/item/item.ts</title>
<path fill="none" stroke="#757575" d="M1072.51,-362.52C992.72,-328.37 768.25,-229.23 768.25,-194.75 768.25,-194.75 768.25,-194.75 768.25,-132.25 768.25,-61.91 988.63,-31.06 1110.49,-19.38"/>
<polygon fill="#757575" stroke="#757575" points="1110.47,-22.9 1120.1,-18.48 1109.82,-15.93 1110.47,-22.9"/>
</g>
<!-- gestalt/item/contentItem.ts&#45;&gt;gestalt/item/item.ts -->
<g id="edge44" class="edge">
<title>gestalt/item/contentItem.ts&#45;&gt;gestalt/item/item.ts</title>
<path fill="none" stroke="#757575" d="M1379.66,-60.05C1341.72,-50.73 1288.4,-37.62 1247.84,-27.65"/>
<polygon fill="#757575" stroke="#757575" points="1248.77,-24.28 1238.23,-25.29 1247.1,-31.07 1248.77,-24.28"/>
</g>
<!-- app/edit/components/selectedTopicViewer.tsx -->
<g id="node9" class="node">
<title>app/edit/components/selectedTopicViewer.tsx</title>
<path fill="none" stroke="#c6c5fe" d="M1268.71,-448C1268.71,-448 975.79,-448 975.79,-448 971.71,-448 967.62,-443.92 967.62,-439.83 967.62,-439.83 967.62,-431.67 967.62,-431.67 967.62,-427.58 971.71,-423.5 975.79,-423.5 975.79,-423.5 1268.71,-423.5 1268.71,-423.5 1272.79,-423.5 1276.88,-427.58 1276.88,-431.67 1276.88,-431.67 1276.88,-439.83 1276.88,-439.83 1276.88,-443.92 1272.79,-448 1268.71,-448"/>
<text text-anchor="middle" x="1122.25" y="-430.7" font-family="Arial" font-size="14.00" fill="#c6c5fe">app/edit/components/selectedTopicViewer.tsx</text>
</g>
<!-- app/edit/components/selectedTopicViewer.tsx&#45;&gt;app/items/property/nameItem.tsx -->
<g id="edge9" class="edge">
<title>app/edit/components/selectedTopicViewer.tsx&#45;&gt;app/items/property/nameItem.tsx</title>
<path fill="none" stroke="#757575" d="M1050.06,-423.05C990.89,-413.46 907.06,-399.88 844.95,-389.81"/>
<polygon fill="#757575" stroke="#757575" points="845.54,-386.36 835.11,-388.22 844.43,-393.27 845.54,-386.36"/>
</g>
<!-- app/edit/components/selectedTopicViewer.tsx&#45;&gt;gestalt/editor/editorContext.ts -->
<g id="edge11" class="edge">
<title>app/edit/components/selectedTopicViewer.tsx&#45;&gt;gestalt/editor/editorContext.ts</title>
<path fill="none" stroke="#757575" d="M1072.16,-423.01C1039.47,-414.67 996.15,-402.34 959.25,-387.5 920.59,-371.96 878.46,-348.89 851.27,-333.14"/>
<polygon fill="#757575" stroke="#757575" points="853.33,-330.29 842.93,-328.25 849.79,-336.33 853.33,-330.29"/>
</g>
<!-- app/edit/components/selectedTopicViewer.tsx&#45;&gt;app/edit/components/itemInsertLine.tsx -->
<g id="edge8" class="edge">
<title>app/edit/components/selectedTopicViewer.tsx&#45;&gt;app/edit/components/itemInsertLine.tsx</title>
<path fill="none" stroke="#757575" d="M1117.9,-423.19C1115.25,-416.14 1111.77,-406.89 1108.61,-398.47"/>
<polygon fill="#757575" stroke="#757575" points="1111.92,-397.33 1105.12,-389.2 1105.36,-399.79 1111.92,-397.33"/>
</g>
<!-- app/edit/components/selectedTopicViewer.tsx&#45;&gt;gestalt/item/item.ts -->
<g id="edge12" class="edge">
<title>app/edit/components/selectedTopicViewer.tsx&#45;&gt;gestalt/item/item.ts</title>
<path fill="none" stroke="#757575" d="M1176.98,-423.02C1203.61,-415.62 1235.19,-404.24 1260.25,-387.5 1409.38,-287.91 1463.82,-252.73 1527.25,-85 1531.1,-74.82 1534.4,-68.72 1527.25,-60.5 1494.37,-22.71 1357.47,-14.22 1268.3,-12.82"/>
<polygon fill="#757575" stroke="#757575" points="1268.42,-9.32 1258.38,-12.7 1268.33,-16.32 1268.42,-9.32"/>
</g>
<!-- app/items/property/texMacrosItem.tsx -->
<g id="node10" class="node">
<title>app/items/property/texMacrosItem.tsx</title>
<path fill="none" stroke="#c6c5fe" d="M1300.96,-266.5C1300.96,-266.5 1063.54,-266.5 1063.54,-266.5 1059.46,-266.5 1055.38,-262.42 1055.38,-258.33 1055.38,-258.33 1055.38,-250.17 1055.38,-250.17 1055.38,-246.08 1059.46,-242 1063.54,-242 1063.54,-242 1300.96,-242 1300.96,-242 1305.04,-242 1309.12,-246.08 1309.12,-250.17 1309.12,-250.17 1309.12,-258.33 1309.12,-258.33 1309.12,-262.42 1305.04,-266.5 1300.96,-266.5"/>
<text text-anchor="middle" x="1182.25" y="-249.2" font-family="Arial" font-size="14.00" fill="#c6c5fe">app/items/property/texMacrosItem.tsx</text>
</g>
<!-- app/edit/components/selectedTopicViewer.tsx&#45;&gt;app/items/property/texMacrosItem.tsx -->
<g id="edge10" class="edge">
<title>app/edit/components/selectedTopicViewer.tsx&#45;&gt;app/items/property/texMacrosItem.tsx</title>
<path fill="none" stroke="#757575" d="M1190.73,-423.05C1210.67,-416.12 1230.28,-405.08 1242.25,-387.5 1281.64,-329.65 1171.24,-365.66 1144.25,-327 1132.65,-310.38 1146.07,-289.8 1160.06,-274.94"/>
<polygon fill="#757575" stroke="#757575" points="1162.44,-277.51 1167.1,-268 1157.52,-272.53 1162.44,-277.51"/>
</g>
<!-- app/items/property/texMacrosItem.tsx&#45;&gt;gestalt/item/item.ts -->
<g id="edge35" class="edge">
<title>app/items/property/texMacrosItem.tsx&#45;&gt;gestalt/item/item.ts</title>
<path fill="none" stroke="#757575" d="M1203.19,-241.59C1231.2,-224.64 1279.62,-190.26 1299.25,-145.5 1320.16,-97.82 1261.58,-53.75 1222.08,-30.49"/>
<polygon fill="#757575" stroke="#757575" points="1224,-27.55 1213.58,-25.64 1220.53,-33.63 1224,-27.55"/>
</g>
<!-- app/items/property/texMacrosItem.tsx&#45;&gt;gestalt/item/propertyItem.ts -->
<g id="edge36" class="edge">
<title>app/items/property/texMacrosItem.tsx&#45;&gt;gestalt/item/propertyItem.ts</title>
<path fill="none" stroke="#757575" d="M1169.02,-241.72C1148.81,-223.37 1110.35,-185.5 1089.25,-145.5 1081.12,-130.1 1076.28,-110.96 1073.52,-96.32"/>
<polygon fill="#757575" stroke="#757575" points="1077.02,-96.04 1071.92,-86.76 1070.12,-97.2 1077.02,-96.04"/>
</g>
<!-- app/edit/page.tsx -->
<g id="node11" class="node">
<title>app/edit/page.tsx</title>
<path fill="none" stroke="#c6c5fe" d="M995.46,-569C995.46,-569 887.04,-569 887.04,-569 882.96,-569 878.88,-564.92 878.88,-560.83 878.88,-560.83 878.88,-552.67 878.88,-552.67 878.88,-548.58 882.96,-544.5 887.04,-544.5 887.04,-544.5 995.46,-544.5 995.46,-544.5 999.54,-544.5 1003.62,-548.58 1003.62,-552.67 1003.62,-552.67 1003.62,-560.83 1003.62,-560.83 1003.62,-564.92 999.54,-569 995.46,-569"/>
<text text-anchor="middle" x="941.25" y="-551.7" font-family="Arial" font-size="14.00" fill="#c6c5fe">app/edit/page.tsx</text>
</g>
<!-- app/edit/page.tsx&#45;&gt;app/edit/components/gestaltViewer.tsx -->
<g id="edge13" class="edge">
<title>app/edit/page.tsx&#45;&gt;app/edit/components/gestaltViewer.tsx</title>
<path fill="none" stroke="#757575" d="M905.26,-544.05C877.3,-534.97 838.3,-522.29 807.94,-512.42"/>
<polygon fill="#757575" stroke="#757575" points="809.21,-509.16 798.62,-509.4 807.05,-515.81 809.21,-509.16"/>
</g>
<!-- app/edit/page.tsx&#45;&gt;gestalt/editor/editorContext.ts -->
<g id="edge16" class="edge">
<title>app/edit/page.tsx&#45;&gt;gestalt/editor/editorContext.ts</title>
<path fill="none" stroke="#757575" d="M878.46,-555.75C795.12,-554.26 654.66,-546.07 622.25,-508.5 599.79,-482.47 523.34,-489.63 627.25,-363 639.6,-347.95 678.32,-337.04 718.04,-329.52"/>
<polygon fill="#757575" stroke="#757575" points="718.54,-332.99 727.76,-327.76 717.29,-326.1 718.54,-332.99"/>
</g>
<!-- app/edit/page.tsx&#45;&gt;gestalt/editor/gestaltEditor.ts -->
<g id="edge18" class="edge">
<title>app/edit/page.tsx&#45;&gt;gestalt/editor/gestaltEditor.ts</title>
<path fill="none" stroke="#757575" d="M878.6,-552.2C790.03,-546.38 633.27,-532.96 582.25,-508.5 540.65,-488.56 507.25,-482.88 507.25,-436.75 507.25,-436.75 507.25,-436.75 507.25,-374.25 507.25,-340.4 514.84,-301.8 520.43,-277.98"/>
<polygon fill="#757575" stroke="#757575" points="523.78,-278.99 522.75,-268.44 516.98,-277.33 523.78,-278.99"/>
</g>
<!-- app/edit/page.tsx&#45;&gt;app/edit/components/selectedTopicViewer.tsx -->
<g id="edge14" class="edge">
<title>app/edit/page.tsx&#45;&gt;app/edit/components/selectedTopicViewer.tsx</title>
<path fill="none" stroke="#757575" d="M958.93,-544.12C990.7,-523.24 1057.6,-479.26 1095.17,-454.55"/>
<polygon fill="#757575" stroke="#757575" points="1096.8,-457.67 1103.23,-449.26 1092.95,-451.82 1096.8,-457.67"/>
</g>
<!-- app/items/allItems.ts -->
<g id="node12" class="node">
<title>app/items/allItems.ts</title>
<path fill="none" stroke="#c6c5fe" d="M1503.33,-508.5C1503.33,-508.5 1373.17,-508.5 1373.17,-508.5 1369.08,-508.5 1365,-504.42 1365,-500.33 1365,-500.33 1365,-492.17 1365,-492.17 1365,-488.08 1369.08,-484 1373.17,-484 1373.17,-484 1503.33,-484 1503.33,-484 1507.42,-484 1511.5,-488.08 1511.5,-492.17 1511.5,-492.17 1511.5,-500.33 1511.5,-500.33 1511.5,-504.42 1507.42,-508.5 1503.33,-508.5"/>
<text text-anchor="middle" x="1438.25" y="-491.2" font-family="Arial" font-size="14.00" fill="#c6c5fe">app/items/allItems.ts</text>
</g>
<!-- app/edit/page.tsx&#45;&gt;app/items/allItems.ts -->
<g id="edge15" class="edge">
<title>app/edit/page.tsx&#45;&gt;app/items/allItems.ts</title>
<path fill="none" stroke="#757575" d="M1004.05,-545.75C1007.16,-545.32 1010.24,-544.9 1013.25,-544.5 1163.04,-524.83 1201.22,-526.19 1351.25,-508.5 1351.94,-508.42 1352.62,-508.34 1353.31,-508.26"/>
<polygon fill="#757575" stroke="#757575" points="1353.68,-511.74 1363.19,-507.06 1352.84,-504.79 1353.68,-511.74"/>
</g>
<!-- app/edit/page.tsx&#45;&gt;gestalt/editor/gestaltAccess.ts -->
<g id="edge17" class="edge">
<title>app/edit/page.tsx&#45;&gt;gestalt/editor/gestaltAccess.ts</title>
<path fill="none" stroke="#757575" d="M878.49,-551.5C708.4,-539.15 251.25,-500.08 251.25,-436.75 251.25,-436.75 251.25,-436.75 251.25,-313.75 251.25,-261.47 194.47,-228.3 151.25,-210.62"/>
<polygon fill="#757575" stroke="#757575" points="152.59,-207.39 142.01,-207.01 150.05,-213.91 152.59,-207.39"/>
</g>
<!-- gestalt/gestalt.ts -->
<g id="node14" class="node">
<title>gestalt/gestalt.ts</title>
<path fill="none" stroke="#c6c5fe" d="M1263.46,-327C1263.46,-327 1161.04,-327 1161.04,-327 1156.96,-327 1152.88,-322.92 1152.88,-318.83 1152.88,-318.83 1152.88,-310.67 1152.88,-310.67 1152.88,-306.58 1156.96,-302.5 1161.04,-302.5 1161.04,-302.5 1263.46,-302.5 1263.46,-302.5 1267.54,-302.5 1271.62,-306.58 1271.62,-310.67 1271.62,-310.67 1271.62,-318.83 1271.62,-318.83 1271.62,-322.92 1267.54,-327 1263.46,-327"/>
<text text-anchor="middle" x="1212.25" y="-309.7" font-family="Arial" font-size="14.00" fill="#c6c5fe">gestalt/gestalt.ts</text>
</g>
<!-- app/edit/page.tsx&#45;&gt;gestalt/gestalt.ts -->
<g id="edge19" class="edge">
<title>app/edit/page.tsx&#45;&gt;gestalt/gestalt.ts</title>
<path fill="none" stroke="#757575" d="M1004.07,-545.2C1094.08,-528.67 1252.61,-493.75 1286.25,-448 1314.05,-410.19 1267.18,-360.85 1236.2,-334.42"/>
<polygon fill="#757575" stroke="#757575" points="1238.68,-331.93 1228.74,-328.26 1234.22,-337.33 1238.68,-331.93"/>
</g>
<!-- localGestalt/privateGestaltAccess.ts -->
<g id="node15" class="node">
<title>localGestalt/privateGestaltAccess.ts</title>
<path fill="none" stroke="#c6c5fe" d="M2229.08,-508.5C2229.08,-508.5 2001.42,-508.5 2001.42,-508.5 1997.33,-508.5 1993.25,-504.42 1993.25,-500.33 1993.25,-500.33 1993.25,-492.17 1993.25,-492.17 1993.25,-488.08 1997.33,-484 2001.42,-484 2001.42,-484 2229.08,-484 2229.08,-484 2233.17,-484 2237.25,-488.08 2237.25,-492.17 2237.25,-492.17 2237.25,-500.33 2237.25,-500.33 2237.25,-504.42 2233.17,-508.5 2229.08,-508.5"/>
<text text-anchor="middle" x="2115.25" y="-491.2" font-family="Arial" font-size="14.00" fill="#c6c5fe">localGestalt/privateGestaltAccess.ts</text>
</g>
<!-- app/edit/page.tsx&#45;&gt;localGestalt/privateGestaltAccess.ts -->
<g id="edge20" class="edge">
<title>app/edit/page.tsx&#45;&gt;localGestalt/privateGestaltAccess.ts</title>
<path fill="none" stroke="#757575" d="M1004.03,-545.52C1007.14,-545.14 1010.23,-544.8 1013.25,-544.5 1361.52,-509.94 1774.18,-500.64 1981.79,-498.15"/>
<polygon fill="#757575" stroke="#757575" points="1981.57,-501.65 1991.53,-498.04 1981.49,-494.66 1981.57,-501.65"/>
</g>
<!-- app/items/allItems.ts&#45;&gt;app/items/property/nameItem.tsx -->
<g id="edge23" class="edge">
<title>app/items/allItems.ts&#45;&gt;app/items/property/nameItem.tsx</title>
<path fill="none" stroke="#757575" d="M1364.55,-493.72C1269.54,-490.45 1099.71,-480.18 958.25,-448 900.18,-434.79 835.87,-409.16 797.01,-392.38"/>
<polygon fill="#757575" stroke="#757575" points="798.71,-389.3 788.14,-388.5 795.9,-395.71 798.71,-389.3"/>
</g>
<!-- app/items/allItems.ts&#45;&gt;gestalt/item/contentItem.ts -->
<g id="edge25" class="edge">
<title>app/items/allItems.ts&#45;&gt;gestalt/item/contentItem.ts</title>
<path fill="none" stroke="#757575" d="M1511.93,-493.49C1641.9,-489.63 1900.83,-478.19 1928.25,-448 2082.4,-278.28 1641.29,-133.89 1482.11,-88.54"/>
<polygon fill="#757575" stroke="#757575" points="1483.18,-85.21 1472.61,-85.86 1481.28,-91.94 1483.18,-85.21"/>
</g>
<!-- app/items/allItems.ts&#45;&gt;app/items/property/texMacrosItem.tsx -->
<g id="edge24" class="edge">
<title>app/items/allItems.ts&#45;&gt;app/items/property/texMacrosItem.tsx</title>
<path fill="none" stroke="#757575" d="M1427.71,-483.66C1419.49,-474.37 1408.04,-460.8 1399.25,-448 1374.68,-412.24 1378.85,-396.47 1351.25,-363 1324.87,-331.01 1314.98,-325.13 1280.25,-302.5 1261.86,-290.52 1239.98,-279.68 1221.56,-271.41"/>
<polygon fill="#757575" stroke="#757575" points="1223.11,-268.28 1212.55,-267.46 1220.3,-274.69 1223.11,-268.28"/>
</g>
<!-- app/items/content/mathItem.tsx -->
<g id="node16" class="node">
<title>app/items/content/mathItem.tsx</title>
<path fill="none" stroke="#c6c5fe" d="M1910.71,-448C1910.71,-448 1713.79,-448 1713.79,-448 1709.71,-448 1705.62,-443.92 1705.62,-439.83 1705.62,-439.83 1705.62,-431.67 1705.62,-431.67 1705.62,-427.58 1709.71,-423.5 1713.79,-423.5 1713.79,-423.5 1910.71,-423.5 1910.71,-423.5 1914.79,-423.5 1918.88,-427.58 1918.88,-431.67 1918.88,-431.67 1918.88,-439.83 1918.88,-439.83 1918.88,-443.92 1914.79,-448 1910.71,-448"/>
<text text-anchor="middle" x="1812.25" y="-430.7" font-family="Arial" font-size="14.00" fill="#c6c5fe">app/items/content/mathItem.tsx</text>
</g>
<!-- app/items/allItems.ts&#45;&gt;app/items/content/mathItem.tsx -->
<g id="edge21" class="edge">
<title>app/items/allItems.ts&#45;&gt;app/items/content/mathItem.tsx</title>
<path fill="none" stroke="#757575" d="M1511.69,-483.76C1573.33,-474.12 1661.46,-460.34 1726.35,-450.19"/>
<polygon fill="#757575" stroke="#757575" points="1726.54,-453.7 1735.88,-448.7 1725.46,-446.78 1726.54,-453.7"/>
</g>
<!-- app/items/content/paragraphItem.tsx -->
<g id="node17" class="node">
<title>app/items/content/paragraphItem.tsx</title>
<path fill="none" stroke="#c6c5fe" d="M1679.21,-448C1679.21,-448 1449.29,-448 1449.29,-448 1445.21,-448 1441.12,-443.92 1441.12,-439.83 1441.12,-439.83 1441.12,-431.67 1441.12,-431.67 1441.12,-427.58 1445.21,-423.5 1449.29,-423.5 1449.29,-423.5 1679.21,-423.5 1679.21,-423.5 1683.29,-423.5 1687.38,-427.58 1687.38,-431.67 1687.38,-431.67 1687.38,-439.83 1687.38,-439.83 1687.38,-443.92 1683.29,-448 1679.21,-448"/>
<text text-anchor="middle" x="1564.25" y="-430.7" font-family="Arial" font-size="14.00" fill="#c6c5fe">app/items/content/paragraphItem.tsx</text>
</g>
<!-- app/items/allItems.ts&#45;&gt;app/items/content/paragraphItem.tsx -->
<g id="edge22" class="edge">
<title>app/items/allItems.ts&#45;&gt;app/items/content/paragraphItem.tsx</title>
<path fill="none" stroke="#757575" d="M1463.45,-483.55C1482.16,-474.86 1507.93,-462.9 1528.74,-453.24"/>
<polygon fill="#757575" stroke="#757575" points="1530.13,-456.45 1537.73,-449.06 1527.18,-450.1 1530.13,-456.45"/>
</g>
<!-- app/items/allItems.ts&#45;&gt;gestalt/item/propertyItem.ts -->
<g id="edge26" class="edge">
<title>app/items/allItems.ts&#45;&gt;gestalt/item/propertyItem.ts</title>
<path fill="none" stroke="#757575" d="M1434.12,-483.6C1427.02,-462.48 1413.25,-416.36 1413.25,-376.25 1413.25,-376.25 1413.25,-376.25 1413.25,-313.75 1413.25,-214.22 1380.25,-178.84 1299.25,-121 1279.09,-106.61 1226.13,-95.2 1176.2,-87.2"/>
<polygon fill="#757575" stroke="#757575" points="1176.86,-83.76 1166.44,-85.68 1175.78,-90.68 1176.86,-83.76"/>
</g>
<!-- gestalt/gestalt.ts&#45;&gt;gestalt/topic/topic.ts -->
<g id="edge43" class="edge">
<title>gestalt/gestalt.ts&#45;&gt;gestalt/topic/topic.ts</title>
<path fill="none" stroke="#757575" d="M1152.65,-304.09C1119.73,-297.01 1079.01,-285.27 1046.25,-266.5 1022.99,-253.17 1001.43,-231.1 987.45,-214.95"/>
<polygon fill="#757575" stroke="#757575" points="990.22,-212.81 981.12,-207.39 984.86,-217.3 990.22,-212.81"/>
</g>
<!-- gestalt/editor/gestaltViewData.ts -->
<g id="node24" class="node">
<title>gestalt/editor/gestaltViewData.ts</title>
<path fill="none" stroke="#cfffac" d="M2484.33,-448C2484.33,-448 2282.17,-448 2282.17,-448 2278.08,-448 2274,-443.92 2274,-439.83 2274,-439.83 2274,-431.67 2274,-431.67 2274,-427.58 2278.08,-423.5 2282.17,-423.5 2282.17,-423.5 2484.33,-423.5 2484.33,-423.5 2488.42,-423.5 2492.5,-427.58 2492.5,-431.67 2492.5,-431.67 2492.5,-439.83 2492.5,-439.83 2492.5,-443.92 2488.42,-448 2484.33,-448"/>
<text text-anchor="middle" x="2383.25" y="-430.7" font-family="Arial" font-size="14.00" fill="#cfffac">gestalt/editor/gestaltViewData.ts</text>
</g>
<!-- localGestalt/privateGestaltAccess.ts&#45;&gt;gestalt/editor/gestaltViewData.ts -->
<g id="edge50" class="edge">
<title>localGestalt/privateGestaltAccess.ts&#45;&gt;gestalt/editor/gestaltViewData.ts</title>
<path fill="none" stroke="#757575" d="M2168.84,-483.55C2212.02,-474.13 2272.88,-460.84 2318.74,-450.83"/>
<polygon fill="#757575" stroke="#757575" points="2319.25,-454.3 2328.27,-448.75 2317.76,-447.46 2319.25,-454.3"/>
</g>
<!-- localGestalt/privateSharedTopicAccess.ts -->
<g id="node27" class="node">
<title>localGestalt/privateSharedTopicAccess.ts</title>
<path fill="none" stroke="#c6c5fe" d="M2247.46,-448C2247.46,-448 1983.04,-448 1983.04,-448 1978.96,-448 1974.88,-443.92 1974.88,-439.83 1974.88,-439.83 1974.88,-431.67 1974.88,-431.67 1974.88,-427.58 1978.96,-423.5 1983.04,-423.5 1983.04,-423.5 2247.46,-423.5 2247.46,-423.5 2251.54,-423.5 2255.62,-427.58 2255.62,-431.67 2255.62,-431.67 2255.62,-439.83 2255.62,-439.83 2255.62,-443.92 2251.54,-448 2247.46,-448"/>
<text text-anchor="middle" x="2115.25" y="-430.7" font-family="Arial" font-size="14.00" fill="#c6c5fe">localGestalt/privateSharedTopicAccess.ts</text>
</g>
<!-- localGestalt/privateGestaltAccess.ts&#45;&gt;localGestalt/privateSharedTopicAccess.ts -->
<g id="edge51" class="edge">
<title>localGestalt/privateGestaltAccess.ts&#45;&gt;localGestalt/privateSharedTopicAccess.ts</title>
<path fill="none" stroke="#757575" d="M2115.25,-483.69C2115.25,-476.8 2115.25,-467.81 2115.25,-459.55"/>
<polygon fill="#757575" stroke="#757575" points="2118.75,-459.8 2115.25,-449.8 2111.75,-459.8 2118.75,-459.8"/>
</g>
<!-- app/items/basicContentItem.tsx -->
<g id="node19" class="node">
<title>app/items/basicContentItem.tsx</title>
<path fill="none" stroke="#c6c5fe" d="M1663.83,-387.5C1663.83,-387.5 1464.67,-387.5 1464.67,-387.5 1460.58,-387.5 1456.5,-383.42 1456.5,-379.33 1456.5,-379.33 1456.5,-371.17 1456.5,-371.17 1456.5,-367.08 1460.58,-363 1464.67,-363 1464.67,-363 1663.83,-363 1663.83,-363 1667.92,-363 1672,-367.08 1672,-371.17 1672,-371.17 1672,-379.33 1672,-379.33 1672,-383.42 1667.92,-387.5 1663.83,-387.5"/>
<text text-anchor="middle" x="1564.25" y="-370.2" font-family="Arial" font-size="14.00" fill="#c6c5fe">app/items/basicContentItem.tsx</text>
</g>
<!-- app/items/content/mathItem.tsx&#45;&gt;app/items/basicContentItem.tsx -->
<g id="edge30" class="edge">
<title>app/items/content/mathItem.tsx&#45;&gt;app/items/basicContentItem.tsx</title>
<path fill="none" stroke="#757575" d="M1762.66,-423.05C1722.95,-413.69 1667.1,-400.51 1624.76,-390.52"/>
<polygon fill="#757575" stroke="#757575" points="1625.76,-387.16 1615.23,-388.27 1624.16,-393.98 1625.76,-387.16"/>
</g>
<!-- app/items/content/paragraphItem.tsx&#45;&gt;app/items/basicContentItem.tsx -->
<g id="edge31" class="edge">
<title>app/items/content/paragraphItem.tsx&#45;&gt;app/items/basicContentItem.tsx</title>
<path fill="none" stroke="#757575" d="M1564.25,-423.19C1564.25,-416.3 1564.25,-407.31 1564.25,-399.05"/>
<polygon fill="#757575" stroke="#757575" points="1567.75,-399.3 1564.25,-389.3 1560.75,-399.3 1567.75,-399.3"/>
</g>
<!-- gestalt/item/propertyItem.ts&#45;&gt;gestalt/item/item.ts -->
<g id="edge45" class="edge">
<title>gestalt/item/propertyItem.ts&#45;&gt;gestalt/item/item.ts</title>
<path fill="none" stroke="#757575" d="M1094.05,-60.05C1111.56,-51.44 1135.62,-39.62 1155.17,-30"/>
<polygon fill="#757575" stroke="#757575" points="1156.71,-33.15 1164.14,-25.6 1153.62,-26.87 1156.71,-33.15"/>
</g>
<!-- app/items/basicContentItem.tsx&#45;&gt;gestalt/editor/editorContext.ts -->
<g id="edge27" class="edge">
<title>app/items/basicContentItem.tsx&#45;&gt;gestalt/editor/editorContext.ts</title>
<path fill="none" stroke="#757575" d="M1456.36,-365.74C1317.04,-354.76 1075.74,-335.74 934.39,-324.59"/>
<polygon fill="#757575" stroke="#757575" points="934.88,-321.12 924.64,-323.82 934.33,-328.1 934.88,-321.12"/>
</g>
<!-- app/items/basicContentItem.tsx&#45;&gt;gestalt/item/contentItem.ts -->
<g id="edge28" class="edge">
<title>app/items/basicContentItem.tsx&#45;&gt;gestalt/item/contentItem.ts</title>
<path fill="none" stroke="#757575" d="M1546.13,-362.8C1518.81,-343.97 1470.25,-303.69 1470.25,-255.25 1470.25,-255.25 1470.25,-255.25 1470.25,-192.75 1470.25,-156.91 1452.78,-118.41 1440.11,-95.21"/>
<polygon fill="#757575" stroke="#757575" points="1443.27,-93.69 1435.29,-86.72 1437.19,-97.14 1443.27,-93.69"/>
</g>
<!-- app/items/basicContentItem.tsx&#45;&gt;gestalt/item/item.ts -->
<g id="edge29" class="edge">
<title>app/items/basicContentItem.tsx&#45;&gt;gestalt/item/item.ts</title>
<path fill="none" stroke="#757575" d="M1567.55,-362.54C1573.23,-341.32 1584.25,-295.05 1584.25,-255.25 1584.25,-255.25 1584.25,-255.25 1584.25,-132.25 1584.25,-98.62 1586.24,-81.83 1560.25,-60.5 1516.97,-24.97 1363.58,-15.87 1268.12,-13.71"/>
<polygon fill="#757575" stroke="#757575" points="1268.35,-10.22 1258.29,-13.51 1268.21,-17.21 1268.35,-10.22"/>
</g>
<!-- app/layout.tsx -->
<g id="node20" class="node">
<title>app/layout.tsx</title>
<path fill="none" stroke="#cfffac" d="M1116.21,-569C1116.21,-569 1030.29,-569 1030.29,-569 1026.21,-569 1022.12,-564.92 1022.12,-560.83 1022.12,-560.83 1022.12,-552.67 1022.12,-552.67 1022.12,-548.58 1026.21,-544.5 1030.29,-544.5 1030.29,-544.5 1116.21,-544.5 1116.21,-544.5 1120.29,-544.5 1124.38,-548.58 1124.38,-552.67 1124.38,-552.67 1124.38,-560.83 1124.38,-560.83 1124.38,-564.92 1120.29,-569 1116.21,-569"/>
<text text-anchor="middle" x="1073.25" y="-551.7" font-family="Arial" font-size="14.00" fill="#cfffac">app/layout.tsx</text>
</g>
<!-- app/page.tsx -->
<g id="node21" class="node">
<title>app/page.tsx</title>
<path fill="none" stroke="#cfffac" d="M1231.96,-569C1231.96,-569 1150.54,-569 1150.54,-569 1146.46,-569 1142.38,-564.92 1142.38,-560.83 1142.38,-560.83 1142.38,-552.67 1142.38,-552.67 1142.38,-548.58 1146.46,-544.5 1150.54,-544.5 1150.54,-544.5 1231.96,-544.5 1231.96,-544.5 1236.04,-544.5 1240.12,-548.58 1240.12,-552.67 1240.12,-552.67 1240.12,-560.83 1240.12,-560.83 1240.12,-564.92 1236.04,-569 1231.96,-569"/>
<text text-anchor="middle" x="1191.25" y="-551.7" font-family="Arial" font-size="14.00" fill="#cfffac">app/page.tsx</text>
</g>
<!-- gestalt/topic/topicContent.ts&#45;&gt;gestalt/item/contentItem.ts -->
<g id="edge48" class="edge">
<title>gestalt/topic/topicContent.ts&#45;&gt;gestalt/item/contentItem.ts</title>
<path fill="none" stroke="#757575" d="M1240.84,-120.55C1277.91,-111.25 1329.96,-98.18 1369.64,-88.21"/>
<polygon fill="#757575" stroke="#757575" points="1370.43,-91.63 1379.27,-85.8 1368.72,-84.84 1370.43,-91.63"/>
</g>
<!-- gestalt/topic/topicProperties.ts&#45;&gt;gestalt/item/propertyItem.ts -->
<g id="edge49" class="edge">
<title>gestalt/topic/topicProperties.ts&#45;&gt;gestalt/item/propertyItem.ts</title>
<path fill="none" stroke="#757575" d="M964.64,-120.55C984.43,-111.78 1011.75,-99.68 1033.64,-89.97"/>
<polygon fill="#757575" stroke="#757575" points="1034.79,-93.29 1042.52,-86.04 1031.96,-86.89 1034.79,-93.29"/>
</g>
<!-- localGestalt/privateItemWriteAccess.ts -->
<g id="node28" class="node">
<title>localGestalt/privateItemWriteAccess.ts</title>
<path fill="none" stroke="#cfffac" d="M2237.71,-387.5C2237.71,-387.5 1992.79,-387.5 1992.79,-387.5 1988.71,-387.5 1984.62,-383.42 1984.62,-379.33 1984.62,-379.33 1984.62,-371.17 1984.62,-371.17 1984.62,-367.08 1988.71,-363 1992.79,-363 1992.79,-363 2237.71,-363 2237.71,-363 2241.79,-363 2245.88,-367.08 2245.88,-371.17 2245.88,-371.17 2245.88,-379.33 2245.88,-379.33 2245.88,-383.42 2241.79,-387.5 2237.71,-387.5"/>
<text text-anchor="middle" x="2115.25" y="-370.2" font-family="Arial" font-size="14.00" fill="#cfffac">localGestalt/privateItemWriteAccess.ts</text>
</g>
<!-- localGestalt/privateSharedTopicAccess.ts&#45;&gt;localGestalt/privateItemWriteAccess.ts -->
<g id="edge52" class="edge">
<title>localGestalt/privateSharedTopicAccess.ts&#45;&gt;localGestalt/privateItemWriteAccess.ts</title>
<path fill="none" stroke="#757575" d="M2115.25,-423.19C2115.25,-416.3 2115.25,-407.31 2115.25,-399.05"/>
<polygon fill="#757575" stroke="#757575" points="2118.75,-399.3 2115.25,-389.3 2111.75,-399.3 2118.75,-399.3"/>
</g>
</g>
</svg>
