<?xml version="1.0" encoding="UTF-8" standalone="no"?>
<!DOCTYPE svg PUBLIC "-//W3C//DTD SVG 1.1//EN"
 "http://www.w3.org/Graphics/SVG/1.1/DTD/svg11.dtd">
<!-- Generated by graphviz version 11.0.0 (20240428.1522)
 -->
<!-- Title: G Pages: 1 -->
<svg width="2596pt" height="954pt"
 viewBox="0.00 0.00 2595.95 953.70" xmlns="http://www.w3.org/2000/svg" xmlns:xlink="http://www.w3.org/1999/xlink">
<g id="graph0" class="graph" transform="scale(1 1) rotate(0) translate(21.6 932.1)">
<title>G</title>
<polygon fill="#111111" stroke="none" points="-21.6,21.6 -21.6,-932.1 2574.35,-932.1 2574.35,21.6 -21.6,21.6"/>
<!-- app/edit/button&#45;style.css -->
<g id="node1" class="node">
<title>app/edit/button&#45;style.css</title>
<path fill="none" stroke="#cfffac" d="M439.71,-521.5C439.71,-521.5 286.29,-521.5 286.29,-521.5 282.21,-521.5 278.12,-517.42 278.12,-513.33 278.12,-513.33 278.12,-505.17 278.12,-505.17 278.12,-501.08 282.21,-497 286.29,-497 286.29,-497 439.71,-497 439.71,-497 443.79,-497 447.88,-501.08 447.88,-505.17 447.88,-505.17 447.88,-513.33 447.88,-513.33 447.88,-517.42 443.79,-521.5 439.71,-521.5"/>
<text text-anchor="middle" x="363" y="-504.2" font-family="Arial" font-size="14.00" fill="#cfffac">app/edit/button&#45;style.css</text>
</g>
<!-- app/edit/components/gestaltViewer.tsx -->
<g id="node2" class="node">
<title>app/edit/components/gestaltViewer.tsx</title>
<path fill="none" stroke="#c6c5fe" d="M877.96,-242.5C877.96,-242.5 633.79,-242.5 633.79,-242.5 629.71,-242.5 625.62,-238.42 625.62,-234.33 625.62,-234.33 625.62,-226.17 625.62,-226.17 625.62,-222.08 629.71,-218 633.79,-218 633.79,-218 877.96,-218 877.96,-218 882.04,-218 886.12,-222.08 886.12,-226.17 886.12,-226.17 886.12,-234.33 886.12,-234.33 886.12,-238.42 882.04,-242.5 877.96,-242.5"/>
<text text-anchor="middle" x="755.88" y="-225.2" font-family="Arial" font-size="14.00" fill="#c6c5fe">app/edit/components/gestaltViewer.tsx</text>
</g>
<!-- app/items/property/nameItem.tsx -->
<g id="node3" class="node">
<title>app/items/property/nameItem.tsx</title>
<path fill="none" stroke="#c6c5fe" d="M1745.08,-592.5C1745.08,-592.5 1537.67,-592.5 1537.67,-592.5 1533.58,-592.5 1529.5,-588.42 1529.5,-584.33 1529.5,-584.33 1529.5,-576.17 1529.5,-576.17 1529.5,-572.08 1533.58,-568 1537.67,-568 1537.67,-568 1745.08,-568 1745.08,-568 1749.17,-568 1753.25,-572.08 1753.25,-576.17 1753.25,-576.17 1753.25,-584.33 1753.25,-584.33 1753.25,-588.42 1749.17,-592.5 1745.08,-592.5"/>
<text text-anchor="middle" x="1641.38" y="-575.2" font-family="Arial" font-size="14.00" fill="#c6c5fe">app/items/property/nameItem.tsx</text>
</g>
<!-- app/edit/components/gestaltViewer.tsx&#45;&gt;app/items/property/nameItem.tsx -->
<g id="edge1" class="edge">
<title>app/edit/components/gestaltViewer.tsx&#45;&gt;app/items/property/nameItem.tsx</title>
<path fill="none" stroke="#757575" d="M777.66,-242.94C811.98,-263.57 883.04,-304.93 946.5,-333.25 1178.67,-436.87 1468.78,-528.53 1586.76,-564.3"/>
<polygon fill="#757575" stroke="#757575" points="1585.6,-567.61 1596.19,-567.15 1587.63,-560.91 1585.6,-567.61"/>
</g>
<!-- gestalt/editor/gestaltEditor.ts -->
<g id="node4" class="node">
<title>gestalt/editor/gestaltEditor.ts</title>
<path fill="none" stroke="#c6c5fe" d="M1260.33,-273.5C1260.33,-273.5 1080.67,-273.5 1080.67,-273.5 1076.58,-273.5 1072.5,-269.42 1072.5,-265.33 1072.5,-265.33 1072.5,-257.17 1072.5,-257.17 1072.5,-253.08 1076.58,-249 1080.67,-249 1080.67,-249 1260.33,-249 1260.33,-249 1264.42,-249 1268.5,-253.08 1268.5,-257.17 1268.5,-257.17 1268.5,-265.33 1268.5,-265.33 1268.5,-269.42 1264.42,-273.5 1260.33,-273.5"/>
<text text-anchor="middle" x="1170.5" y="-256.2" font-family="Arial" font-size="14.00" fill="#c6c5fe">gestalt/editor/gestaltEditor.ts</text>
</g>
<!-- app/edit/components/gestaltViewer.tsx&#45;&gt;gestalt/editor/gestaltEditor.ts -->
<g id="edge2" class="edge">
<title>app/edit/components/gestaltViewer.tsx&#45;&gt;gestalt/editor/gestaltEditor.ts</title>
<path fill="none" stroke="#757575" d="M886.58,-239.99C942.61,-244.2 1007.43,-249.07 1060.88,-253.09"/>
<polygon fill="#757575" stroke="#757575" points="1060.36,-256.56 1070.59,-253.82 1060.88,-249.58 1060.36,-256.56"/>
</g>
<!-- gestalt/topic/topic.ts -->
<g id="node5" class="node">
<title>gestalt/topic/topic.ts</title>
<path fill="none" stroke="#c6c5fe" d="M1704.21,-124.5C1704.21,-124.5 1578.54,-124.5 1578.54,-124.5 1574.46,-124.5 1570.38,-120.42 1570.38,-116.33 1570.38,-116.33 1570.38,-108.17 1570.38,-108.17 1570.38,-104.08 1574.46,-100 1578.54,-100 1578.54,-100 1704.21,-100 1704.21,-100 1708.29,-100 1712.38,-104.08 1712.38,-108.17 1712.38,-108.17 1712.38,-116.33 1712.38,-116.33 1712.38,-120.42 1708.29,-124.5 1704.21,-124.5"/>
<text text-anchor="middle" x="1641.38" y="-107.2" font-family="Arial" font-size="14.00" fill="#c6c5fe">gestalt/topic/topic.ts</text>
</g>
<!-- app/edit/components/gestaltViewer.tsx&#45;&gt;gestalt/topic/topic.ts -->
<g id="edge3" class="edge">
<title>app/edit/components/gestaltViewer.tsx&#45;&gt;gestalt/topic/topic.ts</title>
<path fill="none" stroke="#757575" d="M886.42,-237.84C1018.87,-240.94 1228.19,-232.78 1394.5,-166.25 1413.32,-158.72 1411.77,-146 1430.5,-138.25 1470.73,-121.61 1518.72,-114.81 1558.65,-112.3"/>
<polygon fill="#757575" stroke="#757575" points="1558.64,-115.8 1568.44,-111.77 1558.27,-108.82 1558.64,-115.8"/>
</g>
<!-- gestalt/item/item.ts -->
<g id="node9" class="node">
<title>gestalt/item/item.ts</title>
<path fill="none" stroke="#cfffac" d="M2544.58,-377.5C2544.58,-377.5 2426.42,-377.5 2426.42,-377.5 2422.33,-377.5 2418.25,-373.42 2418.25,-369.33 2418.25,-369.33 2418.25,-361.17 2418.25,-361.17 2418.25,-357.08 2422.33,-353 2426.42,-353 2426.42,-353 2544.58,-353 2544.58,-353 2548.67,-353 2552.75,-357.08 2552.75,-361.17 2552.75,-361.17 2552.75,-369.33 2552.75,-369.33 2552.75,-373.42 2548.67,-377.5 2544.58,-377.5"/>
<text text-anchor="middle" x="2485.5" y="-360.2" font-family="Arial" font-size="14.00" fill="#cfffac">gestalt/item/item.ts</text>
</g>
<!-- app/items/property/nameItem.tsx&#45;&gt;gestalt/item/item.ts -->
<g id="edge33" class="edge">
<title>app/items/property/nameItem.tsx&#45;&gt;gestalt/item/item.ts</title>
<path fill="none" stroke="#757575" d="M1753.61,-579.83C1859.47,-576.83 2022.27,-565.37 2157.75,-526.25 2274.72,-492.47 2400.55,-418.45 2455.76,-383.81"/>
<polygon fill="#757575" stroke="#757575" points="2457.38,-386.93 2463.96,-378.63 2453.63,-381.02 2457.38,-386.93"/>
</g>
<!-- gestalt/item/propertyItem.ts -->
<g id="node22" class="node">
<title>gestalt/item/propertyItem.ts</title>
<path fill="none" stroke="#c6c5fe" d="M2374.08,-377.5C2374.08,-377.5 2201.92,-377.5 2201.92,-377.5 2197.83,-377.5 2193.75,-373.42 2193.75,-369.33 2193.75,-369.33 2193.75,-361.17 2193.75,-361.17 2193.75,-357.08 2197.83,-353 2201.92,-353 2201.92,-353 2374.08,-353 2374.08,-353 2378.17,-353 2382.25,-357.08 2382.25,-361.17 2382.25,-361.17 2382.25,-369.33 2382.25,-369.33 2382.25,-373.42 2378.17,-377.5 2374.08,-377.5"/>
<text text-anchor="middle" x="2288" y="-360.2" font-family="Arial" font-size="14.00" fill="#c6c5fe">gestalt/item/propertyItem.ts</text>
</g>
<!-- app/items/property/nameItem.tsx&#45;&gt;gestalt/item/propertyItem.ts -->
<g id="edge34" class="edge">
<title>app/items/property/nameItem.tsx&#45;&gt;gestalt/item/propertyItem.ts</title>
<path fill="none" stroke="#757575" d="M1753.6,-585.98C1787.76,-582.85 1823.8,-574.11 1852.25,-554.25 1880.93,-534.22 1861.33,-506.6 1888.25,-484.25 1901.7,-473.08 2122.97,-410.72 2229.95,-381"/>
<polygon fill="#757575" stroke="#757575" points="2230.71,-384.42 2239.41,-378.38 2228.84,-377.68 2230.71,-384.42"/>
</g>
<!-- app/items/property/nameItem.css -->
<g id="node25" class="node">
<title>app/items/property/nameItem.css</title>
<path fill="none" stroke="#cfffac" d="M2128.96,-517.5C2128.96,-517.5 1917.04,-517.5 1917.04,-517.5 1912.96,-517.5 1908.88,-513.42 1908.88,-509.33 1908.88,-509.33 1908.88,-501.17 1908.88,-501.17 1908.88,-497.08 1912.96,-493 1917.04,-493 1917.04,-493 2128.96,-493 2128.96,-493 2133.04,-493 2137.12,-497.08 2137.12,-501.17 2137.12,-501.17 2137.12,-509.33 2137.12,-509.33 2137.12,-513.42 2133.04,-517.5 2128.96,-517.5"/>
<text text-anchor="middle" x="2023" y="-500.2" font-family="Arial" font-size="14.00" fill="#cfffac">app/items/property/nameItem.css</text>
</g>
<!-- app/items/property/nameItem.tsx&#45;&gt;app/items/property/nameItem.css -->
<g id="edge32" class="edge">
<title>app/items/property/nameItem.tsx&#45;&gt;app/items/property/nameItem.css</title>
<path fill="none" stroke="#757575" d="M1753.73,-575.73C1786.19,-571.96 1821.25,-565.42 1852.25,-554.25 1870.11,-547.81 1870.62,-538.3 1888.25,-531.25 1898.55,-527.13 1909.56,-523.65 1920.67,-520.71"/>
<polygon fill="#757575" stroke="#757575" points="1921.47,-524.12 1930.33,-518.32 1919.79,-517.33 1921.47,-524.12"/>
</g>
<!-- gestalt/editor/gestaltEditor.ts&#45;&gt;gestalt/topic/topic.ts -->
<g id="edge40" class="edge">
<title>gestalt/editor/gestaltEditor.ts&#45;&gt;gestalt/topic/topic.ts</title>
<path fill="none" stroke="#757575" d="M1268.86,-265.91C1311.38,-263.16 1359.44,-252.99 1394.5,-225.25 1427.32,-199.29 1397.21,-163.6 1430.5,-138.25 1466.49,-110.84 1516.45,-103.79 1558.59,-103.86"/>
<polygon fill="#757575" stroke="#757575" points="1558.4,-107.35 1568.46,-104.02 1558.52,-100.35 1558.4,-107.35"/>
</g>
<!-- gestalt/editor/gestaltEditor.ts&#45;&gt;gestalt/item/item.ts -->
<g id="edge39" class="edge">
<title>gestalt/editor/gestaltEditor.ts&#45;&gt;gestalt/item/item.ts</title>
<path fill="none" stroke="#757575" d="M1200.57,-248.5C1245.14,-228.14 1331.75,-185.21 1394.5,-133.25 1413.44,-117.57 1408.18,-101.55 1430.5,-91.25 1478.51,-69.1 2339.18,-66.58 2382.25,-97.25 2463.73,-155.26 2480.3,-287.22 2483.65,-341.38"/>
<polygon fill="#757575" stroke="#757575" points="2480.14,-341.22 2484.14,-351.03 2487.13,-340.87 2480.14,-341.22"/>
</g>
<!-- gestalt/editor/topicAccess.ts -->
<g id="node12" class="node">
<title>gestalt/editor/topicAccess.ts</title>
<path fill="none" stroke="#c6c5fe" d="M2112.46,-357.5C2112.46,-357.5 1933.54,-357.5 1933.54,-357.5 1929.46,-357.5 1925.38,-353.42 1925.38,-349.33 1925.38,-349.33 1925.38,-341.17 1925.38,-341.17 1925.38,-337.08 1929.46,-333 1933.54,-333 1933.54,-333 2112.46,-333 2112.46,-333 2116.54,-333 2120.62,-337.08 2120.62,-341.17 2120.62,-341.17 2120.62,-349.33 2120.62,-349.33 2120.62,-353.42 2116.54,-357.5 2112.46,-357.5"/>
<text text-anchor="middle" x="2023" y="-340.2" font-family="Arial" font-size="14.00" fill="#c6c5fe">gestalt/editor/topicAccess.ts</text>
</g>
<!-- gestalt/editor/gestaltEditor.ts&#45;&gt;gestalt/editor/topicAccess.ts -->
<g id="edge38" class="edge">
<title>gestalt/editor/gestaltEditor.ts&#45;&gt;gestalt/editor/topicAccess.ts</title>
<path fill="none" stroke="#757575" d="M1268.9,-272.47C1317.43,-277.88 1377.02,-284.27 1430.5,-289.25 1617.71,-306.69 1665.3,-302.29 1852.25,-322.25 1875.5,-324.73 1900.49,-327.86 1923.94,-331"/>
<polygon fill="#757575" stroke="#757575" points="1923.44,-334.47 1933.82,-332.34 1924.38,-327.53 1923.44,-334.47"/>
</g>
<!-- gestalt/editor/gestaltAccess.ts -->
<g id="node16" class="node">
<title>gestalt/editor/gestaltAccess.ts</title>
<path fill="none" stroke="#cfffac" d="M1736.46,-474.5C1736.46,-474.5 1546.29,-474.5 1546.29,-474.5 1542.21,-474.5 1538.12,-470.42 1538.12,-466.33 1538.12,-466.33 1538.12,-458.17 1538.12,-458.17 1538.12,-454.08 1542.21,-450 1546.29,-450 1546.29,-450 1736.46,-450 1736.46,-450 1740.54,-450 1744.62,-454.08 1744.62,-458.17 1744.62,-458.17 1744.62,-466.33 1744.62,-466.33 1744.62,-470.42 1740.54,-474.5 1736.46,-474.5"/>
<text text-anchor="middle" x="1641.38" y="-457.2" font-family="Arial" font-size="14.00" fill="#cfffac">gestalt/editor/gestaltAccess.ts</text>
</g>
<!-- gestalt/editor/gestaltEditor.ts&#45;&gt;gestalt/editor/gestaltAccess.ts -->
<g id="edge36" class="edge">
<title>gestalt/editor/gestaltEditor.ts&#45;&gt;gestalt/editor/gestaltAccess.ts</title>
<path fill="none" stroke="#757575" d="M1268.95,-262.28C1309.26,-265.73 1355.57,-273.76 1394.5,-291.25 1413.76,-299.9 1413.69,-309.48 1430.5,-322.25 1492.04,-369 1568.46,-417.81 1610,-443.64"/>
<polygon fill="#757575" stroke="#757575" points="1607.91,-446.46 1618.25,-448.75 1611.59,-440.51 1607.91,-446.46"/>
</g>
<!-- gestalt/editor/itemWriteAccess.ts -->
<g id="node28" class="node">
<title>gestalt/editor/itemWriteAccess.ts</title>
<path fill="none" stroke="#cfffac" d="M2127.46,-277.5C2127.46,-277.5 1918.54,-277.5 1918.54,-277.5 1914.46,-277.5 1910.38,-273.42 1910.38,-269.33 1910.38,-269.33 1910.38,-261.17 1910.38,-261.17 1910.38,-257.08 1914.46,-253 1918.54,-253 1918.54,-253 2127.46,-253 2127.46,-253 2131.54,-253 2135.62,-257.08 2135.62,-261.17 2135.62,-261.17 2135.62,-269.33 2135.62,-269.33 2135.62,-273.42 2131.54,-277.5 2127.46,-277.5"/>
<text text-anchor="middle" x="2023" y="-260.2" font-family="Arial" font-size="14.00" fill="#cfffac">gestalt/editor/itemWriteAccess.ts</text>
</g>
<!-- gestalt/editor/gestaltEditor.ts&#45;&gt;gestalt/editor/itemWriteAccess.ts -->
<g id="edge37" class="edge">
<title>gestalt/editor/gestaltEditor.ts&#45;&gt;gestalt/editor/itemWriteAccess.ts</title>
<path fill="none" stroke="#757575" d="M1268.65,-248.51C1307.96,-242.59 1353.63,-234.75 1394.5,-225.25 1410.8,-221.46 1413.95,-216.72 1430.5,-214.25 1615.89,-186.56 1666.8,-186.99 1852.25,-214.25 1896.75,-220.79 1945.78,-236.49 1979.66,-248.76"/>
<polygon fill="#757575" stroke="#757575" points="1978.08,-251.91 1988.68,-252.08 1980.5,-245.34 1978.08,-251.91"/>
</g>
<!-- gestalt/item/contentItem.ts -->
<g id="node8" class="node">
<title>gestalt/item/contentItem.ts</title>
<path fill="none" stroke="#c6c5fe" d="M2106.08,-635.5C2106.08,-635.5 1939.92,-635.5 1939.92,-635.5 1935.83,-635.5 1931.75,-631.42 1931.75,-627.33 1931.75,-627.33 1931.75,-619.17 1931.75,-619.17 1931.75,-615.08 1935.83,-611 1939.92,-611 1939.92,-611 2106.08,-611 2106.08,-611 2110.17,-611 2114.25,-615.08 2114.25,-619.17 2114.25,-619.17 2114.25,-627.33 2114.25,-627.33 2114.25,-631.42 2110.17,-635.5 2106.08,-635.5"/>
<text text-anchor="middle" x="2023" y="-618.2" font-family="Arial" font-size="14.00" fill="#c6c5fe">gestalt/item/contentItem.ts</text>
</g>
<!-- gestalt/topic/topic.ts&#45;&gt;gestalt/item/contentItem.ts -->
<g id="edge69" class="edge">
<title>gestalt/topic/topic.ts&#45;&gt;gestalt/item/contentItem.ts</title>
<path fill="none" stroke="#757575" d="M1679.94,-125C1728.54,-143.61 1811.74,-183.17 1852.25,-247.25 1919.06,-352.93 1824.42,-418.75 1888.25,-526.25 1909.96,-562.81 1951.38,-589.56 1982.4,-605.59"/>
<polygon fill="#757575" stroke="#757575" points="1980.61,-608.61 1991.12,-609.94 1983.73,-602.35 1980.61,-608.61"/>
</g>
<!-- gestalt/topic/topic.ts&#45;&gt;gestalt/item/item.ts -->
<g id="edge70" class="edge">
<title>gestalt/topic/topic.ts&#45;&gt;gestalt/item/item.ts</title>
<path fill="none" stroke="#757575" d="M1712.76,-106.32C1876.27,-93.97 2275.93,-72.51 2382.25,-147.25 2448.66,-193.94 2473.16,-295.24 2481.11,-341.43"/>
<polygon fill="#757575" stroke="#757575" points="2477.63,-341.84 2482.66,-351.17 2484.55,-340.74 2477.63,-341.84"/>
</g>
<!-- gestalt/topic/topic.ts&#45;&gt;gestalt/item/propertyItem.ts -->
<g id="edge71" class="edge">
<title>gestalt/topic/topic.ts&#45;&gt;gestalt/item/propertyItem.ts</title>
<path fill="none" stroke="#757575" d="M1698.35,-124.93C1823.28,-153.46 2117.11,-221.96 2157.75,-244.25 2204.76,-270.03 2247.72,-316.86 2270.32,-344.08"/>
<polygon fill="#757575" stroke="#757575" points="2267.45,-346.1 2276.48,-351.65 2272.88,-341.68 2267.45,-346.1"/>
</g>
<!-- gestalt/topic/topicContent.ts -->
<g id="node32" class="node">
<title>gestalt/topic/topicContent.ts</title>
<path fill="none" stroke="#cfffac" d="M2110.58,-24.5C2110.58,-24.5 1935.42,-24.5 1935.42,-24.5 1931.33,-24.5 1927.25,-20.42 1927.25,-16.33 1927.25,-16.33 1927.25,-8.17 1927.25,-8.17 1927.25,-4.08 1931.33,0 1935.42,0 1935.42,0 2110.58,0 2110.58,0 2114.67,0 2118.75,-4.08 2118.75,-8.17 2118.75,-8.17 2118.75,-16.33 2118.75,-16.33 2118.75,-20.42 2114.67,-24.5 2110.58,-24.5"/>
<text text-anchor="middle" x="2023" y="-7.2" font-family="Arial" font-size="14.00" fill="#cfffac">gestalt/topic/topicContent.ts</text>
</g>
<!-- gestalt/topic/topic.ts&#45;&gt;gestalt/topic/topicContent.ts -->
<g id="edge72" class="edge">
<title>gestalt/topic/topic.ts&#45;&gt;gestalt/topic/topicContent.ts</title>
<path fill="none" stroke="#757575" d="M1690.45,-99.58C1759.72,-81.34 1887.49,-47.68 1962.58,-27.9"/>
<polygon fill="#757575" stroke="#757575" points="1963.47,-31.29 1972.25,-25.36 1961.69,-24.52 1963.47,-31.29"/>
</g>
<!-- gestalt/topic/topicProperties.ts -->
<g id="node33" class="node">
<title>gestalt/topic/topicProperties.ts</title>
<path fill="none" stroke="#c6c5fe" d="M2118.83,-159.5C2118.83,-159.5 1927.17,-159.5 1927.17,-159.5 1923.08,-159.5 1919,-155.42 1919,-151.33 1919,-151.33 1919,-143.17 1919,-143.17 1919,-139.08 1923.08,-135 1927.17,-135 1927.17,-135 2118.83,-135 2118.83,-135 2122.92,-135 2127,-139.08 2127,-143.17 2127,-143.17 2127,-151.33 2127,-151.33 2127,-155.42 2122.92,-159.5 2118.83,-159.5"/>
<text text-anchor="middle" x="2023" y="-142.2" font-family="Arial" font-size="14.00" fill="#c6c5fe">gestalt/topic/topicProperties.ts</text>
</g>
<!-- gestalt/topic/topic.ts&#45;&gt;gestalt/topic/topicProperties.ts -->
<g id="edge73" class="edge">
<title>gestalt/topic/topic.ts&#45;&gt;gestalt/topic/topicProperties.ts</title>
<path fill="none" stroke="#757575" d="M1712.45,-118.71C1767.01,-123.74 1843.9,-130.83 1907.39,-136.68"/>
<polygon fill="#757575" stroke="#757575" points="1906.89,-140.15 1917.17,-137.58 1907.53,-133.18 1906.89,-140.15"/>
</g>
<!-- app/edit/components/itemInsertLine.css -->
<g id="node6" class="node">
<title>app/edit/components/itemInsertLine.css</title>
<path fill="none" stroke="#cfffac" d="M2149.58,-749.5C2149.58,-749.5 1896.42,-749.5 1896.42,-749.5 1892.33,-749.5 1888.25,-745.42 1888.25,-741.33 1888.25,-741.33 1888.25,-733.17 1888.25,-733.17 1888.25,-729.08 1892.33,-725 1896.42,-725 1896.42,-725 2149.58,-725 2149.58,-725 2153.67,-725 2157.75,-729.08 2157.75,-733.17 2157.75,-733.17 2157.75,-741.33 2157.75,-741.33 2157.75,-745.42 2153.67,-749.5 2149.58,-749.5"/>
<text text-anchor="middle" x="2023" y="-732.2" font-family="Arial" font-size="14.00" fill="#cfffac">app/edit/components/itemInsertLine.css</text>
</g>
<!-- app/edit/components/itemInsertLine.tsx -->
<g id="node7" class="node">
<title>app/edit/components/itemInsertLine.tsx</title>
<path fill="none" stroke="#c6c5fe" d="M1765.71,-791.5C1765.71,-791.5 1517.04,-791.5 1517.04,-791.5 1512.96,-791.5 1508.88,-787.42 1508.88,-783.33 1508.88,-783.33 1508.88,-775.17 1508.88,-775.17 1508.88,-771.08 1512.96,-767 1517.04,-767 1517.04,-767 1765.71,-767 1765.71,-767 1769.79,-767 1773.88,-771.08 1773.88,-775.17 1773.88,-775.17 1773.88,-783.33 1773.88,-783.33 1773.88,-787.42 1769.79,-791.5 1765.71,-791.5"/>
<text text-anchor="middle" x="1641.38" y="-774.2" font-family="Arial" font-size="14.00" fill="#c6c5fe">app/edit/components/itemInsertLine.tsx</text>
</g>
<!-- app/edit/components/itemInsertLine.tsx&#45;&gt;app/edit/components/itemInsertLine.css -->
<g id="edge4" class="edge">
<title>app/edit/components/itemInsertLine.tsx&#45;&gt;app/edit/components/itemInsertLine.css</title>
<path fill="none" stroke="#757575" d="M1757.56,-766.51C1801.21,-761.68 1851.12,-756.16 1895.73,-751.22"/>
<polygon fill="#757575" stroke="#757575" points="1895.9,-754.72 1905.45,-750.14 1895.13,-747.77 1895.9,-754.72"/>
</g>
<!-- app/edit/components/itemInsertLine.tsx&#45;&gt;gestalt/item/contentItem.ts -->
<g id="edge5" class="edge">
<title>app/edit/components/itemInsertLine.tsx&#45;&gt;gestalt/item/contentItem.ts</title>
<path fill="none" stroke="#757575" d="M1774.27,-776.63C1801.06,-772.37 1828.33,-765.14 1852.25,-753.25 1872.8,-743.04 1870.75,-731.09 1888.25,-716.25 1921.68,-687.9 1963.65,-659.8 1991.57,-642.03"/>
<polygon fill="#757575" stroke="#757575" points="1993.3,-645.07 1999.9,-636.77 1989.57,-639.15 1993.3,-645.07"/>
</g>
<!-- app/edit/components/itemInsertLine.tsx&#45;&gt;gestalt/item/item.ts -->
<g id="edge6" class="edge">
<title>app/edit/components/itemInsertLine.tsx&#45;&gt;gestalt/item/item.ts</title>
<path fill="none" stroke="#757575" d="M1774.19,-784.86C1879.09,-786.7 2029.12,-783.45 2157.75,-758.25 2261.84,-737.85 2308.36,-753.36 2382.25,-677.25 2462.72,-594.36 2479.86,-447.17 2483.51,-389.44"/>
<polygon fill="#757575" stroke="#757575" points="2487.01,-389.62 2484.05,-379.45 2480.02,-389.25 2487.01,-389.62"/>
</g>
<!-- gestalt/item/contentItem.ts&#45;&gt;gestalt/item/item.ts -->
<g id="edge67" class="edge">
<title>gestalt/item/contentItem.ts&#45;&gt;gestalt/item/item.ts</title>
<path fill="none" stroke="#757575" d="M2114.57,-628.21C2192.59,-627.9 2304.59,-616.02 2382.25,-559.25 2440.59,-516.6 2468.63,-430.54 2479.23,-388.89"/>
<polygon fill="#757575" stroke="#757575" points="2482.63,-389.73 2481.57,-379.19 2475.82,-388.09 2482.63,-389.73"/>
</g>
<!-- app/edit/components/selectedTopicViewer.css -->
<g id="node10" class="node">
<title>app/edit/components/selectedTopicViewer.css</title>
<path fill="none" stroke="#cfffac" d="M1319.21,-635.5C1319.21,-635.5 1021.79,-635.5 1021.79,-635.5 1017.71,-635.5 1013.62,-631.42 1013.62,-627.33 1013.62,-627.33 1013.62,-619.17 1013.62,-619.17 1013.62,-615.08 1017.71,-611 1021.79,-611 1021.79,-611 1319.21,-611 1319.21,-611 1323.29,-611 1327.38,-615.08 1327.38,-619.17 1327.38,-619.17 1327.38,-627.33 1327.38,-627.33 1327.38,-631.42 1323.29,-635.5 1319.21,-635.5"/>
<text text-anchor="middle" x="1170.5" y="-618.2" font-family="Arial" font-size="14.00" fill="#cfffac">app/edit/components/selectedTopicViewer.css</text>
</g>
<!-- app/edit/components/selectedTopicViewer.tsx -->
<g id="node11" class="node">
<title>app/edit/components/selectedTopicViewer.tsx</title>
<path fill="none" stroke="#c6c5fe" d="M902.33,-597.5C902.33,-597.5 609.42,-597.5 609.42,-597.5 605.33,-597.5 601.25,-593.42 601.25,-589.33 601.25,-589.33 601.25,-581.17 601.25,-581.17 601.25,-577.08 605.33,-573 609.42,-573 609.42,-573 902.33,-573 902.33,-573 906.42,-573 910.5,-577.08 910.5,-581.17 910.5,-581.17 910.5,-589.33 910.5,-589.33 910.5,-593.42 906.42,-597.5 902.33,-597.5"/>
<text text-anchor="middle" x="755.88" y="-580.2" font-family="Arial" font-size="14.00" fill="#c6c5fe">app/edit/components/selectedTopicViewer.tsx</text>
</g>
<!-- app/edit/components/selectedTopicViewer.tsx&#45;&gt;app/items/property/nameItem.tsx -->
<g id="edge9" class="edge">
<title>app/edit/components/selectedTopicViewer.tsx&#45;&gt;app/items/property/nameItem.tsx</title>
<path fill="none" stroke="#757575" d="M910.77,-584.38C1083.25,-583.4 1359.44,-581.84 1517.91,-580.94"/>
<polygon fill="#757575" stroke="#757575" points="1517.62,-584.44 1527.6,-580.89 1517.58,-577.44 1517.62,-584.44"/>
</g>
<!-- app/edit/components/selectedTopicViewer.tsx&#45;&gt;gestalt/editor/gestaltEditor.ts -->
<g id="edge10" class="edge">
<title>app/edit/components/selectedTopicViewer.tsx&#45;&gt;gestalt/editor/gestaltEditor.ts</title>
<path fill="none" stroke="#757575" d="M760.68,-572.75C775.54,-526.27 834.47,-362.4 946.5,-291.25 980.11,-269.9 1022.32,-260.8 1060.94,-257.57"/>
<polygon fill="#757575" stroke="#757575" points="1061.02,-261.08 1070.75,-256.89 1060.53,-254.09 1061.02,-261.08"/>
</g>
<!-- app/edit/components/selectedTopicViewer.tsx&#45;&gt;app/edit/components/itemInsertLine.tsx -->
<g id="edge7" class="edge">
<title>app/edit/components/selectedTopicViewer.tsx&#45;&gt;app/edit/components/itemInsertLine.tsx</title>
<path fill="none" stroke="#757575" d="M777.61,-597.96C811.59,-618.15 881.81,-657.32 946.5,-677.25 1131.74,-734.31 1354.91,-759.85 1497.2,-771"/>
<polygon fill="#757575" stroke="#757575" points="1496.84,-774.49 1507.08,-771.76 1497.37,-767.51 1496.84,-774.49"/>
</g>
<!-- app/edit/components/selectedTopicViewer.tsx&#45;&gt;gestalt/item/item.ts -->
<g id="edge12" class="edge">
<title>app/edit/components/selectedTopicViewer.tsx&#45;&gt;gestalt/item/item.ts</title>
<path fill="none" stroke="#757575" d="M788.1,-597.88C825.17,-612.19 889.19,-634.74 946.5,-644.25 1250.84,-694.77 1331.87,-663.25 1640.38,-663.25 1640.38,-663.25 1640.38,-663.25 2024,-663.25 2088.12,-663.25 2378.53,-607.21 2382.25,-604.25 2451.65,-549.11 2474.75,-437.9 2481.74,-389.11"/>
<polygon fill="#757575" stroke="#757575" points="2485.19,-389.74 2483.02,-379.37 2478.25,-388.83 2485.19,-389.74"/>
</g>
<!-- app/edit/components/selectedTopicViewer.tsx&#45;&gt;app/edit/components/selectedTopicViewer.css -->
<g id="edge8" class="edge">
<title>app/edit/components/selectedTopicViewer.tsx&#45;&gt;app/edit/components/selectedTopicViewer.css</title>
<path fill="none" stroke="#757575" d="M895.13,-597.98C935.17,-601.67 979.05,-605.71 1019.75,-609.46"/>
<polygon fill="#757575" stroke="#757575" points="1019.35,-612.94 1029.63,-610.37 1019.99,-605.97 1019.35,-612.94"/>
</g>
<!-- app/edit/components/selectedTopicViewer.tsx&#45;&gt;gestalt/editor/topicAccess.ts -->
<g id="edge11" class="edge">
<title>app/edit/components/selectedTopicViewer.tsx&#45;&gt;gestalt/editor/topicAccess.ts</title>
<path fill="none" stroke="#757575" d="M911,-577.8C1208.41,-563.12 1834.02,-530.62 1852.25,-516.25 1894.98,-482.57 1851.45,-439.32 1888.25,-399.25 1904.41,-381.65 1927.09,-369.67 1949.2,-361.57"/>
<polygon fill="#757575" stroke="#757575" points="1950.21,-364.92 1958.54,-358.38 1947.95,-358.3 1950.21,-364.92"/>
</g>
<!-- gestalt/editor/topicAccess.ts&#45;&gt;gestalt/item/propertyItem.ts -->
<g id="edge62" class="edge">
<title>gestalt/editor/topicAccess.ts&#45;&gt;gestalt/item/propertyItem.ts</title>
<path fill="none" stroke="#757575" d="M2120.81,-352.61C2140.74,-354.13 2161.81,-355.73 2182.01,-357.27"/>
<polygon fill="#757575" stroke="#757575" points="2181.71,-360.75 2191.95,-358.02 2182.24,-353.77 2181.71,-360.75"/>
</g>
<!-- app/edit/page.tsx -->
<g id="node13" class="node">
<title>app/edit/page.tsx</title>
<path fill="none" stroke="#c6c5fe" d="M116.58,-365.5C116.58,-365.5 8.17,-365.5 8.17,-365.5 4.08,-365.5 0,-361.42 0,-357.33 0,-357.33 0,-349.17 0,-349.17 0,-345.08 4.08,-341 8.17,-341 8.17,-341 116.58,-341 116.58,-341 120.67,-341 124.75,-345.08 124.75,-349.17 124.75,-349.17 124.75,-357.33 124.75,-357.33 124.75,-361.42 120.67,-365.5 116.58,-365.5"/>
<text text-anchor="middle" x="62.38" y="-348.2" font-family="Arial" font-size="14.00" fill="#c6c5fe">app/edit/page.tsx</text>
</g>
<!-- app/edit/page.tsx&#45;&gt;app/edit/button&#45;style.css -->
<g id="edge13" class="edge">
<title>app/edit/page.tsx&#45;&gt;app/edit/button&#45;style.css</title>
<path fill="none" stroke="#757575" d="M68.68,-365.91C80.65,-392.73 112.53,-455.11 160.75,-483.25 192.33,-501.67 231.37,-509.43 266.64,-512.15"/>
<polygon fill="#757575" stroke="#757575" points="266.23,-515.63 276.43,-512.76 266.67,-508.64 266.23,-515.63"/>
</g>
<!-- app/edit/page.tsx&#45;&gt;app/edit/components/gestaltViewer.tsx -->
<g id="edge14" class="edge">
<title>app/edit/page.tsx&#45;&gt;app/edit/components/gestaltViewer.tsx</title>
<path fill="none" stroke="#757575" d="M71.41,-340.52C86.06,-318.61 119.45,-274.38 160.75,-256.25 239.03,-221.89 464.66,-221.1 614.24,-224.83"/>
<polygon fill="#757575" stroke="#757575" points="613.72,-228.32 623.81,-225.08 613.9,-221.32 613.72,-228.32"/>
</g>
<!-- app/edit/page.tsx&#45;&gt;gestalt/editor/gestaltEditor.ts -->
<g id="edge19" class="edge">
<title>app/edit/page.tsx&#45;&gt;gestalt/editor/gestaltEditor.ts</title>
<path fill="none" stroke="#757575" d="M76.92,-340.74C94.63,-325.28 127.36,-299.75 160.75,-289.25 244.66,-262.87 817.63,-260.65 1060.77,-260.91"/>
<polygon fill="#757575" stroke="#757575" points="1060.58,-264.41 1070.58,-260.93 1060.59,-257.41 1060.58,-264.41"/>
</g>
<!-- app/edit/page.tsx&#45;&gt;app/edit/components/selectedTopicViewer.tsx -->
<g id="edge15" class="edge">
<title>app/edit/page.tsx&#45;&gt;app/edit/components/selectedTopicViewer.tsx</title>
<path fill="none" stroke="#757575" d="M81.07,-365.85C99.87,-378.56 130.95,-397.63 160.75,-407.25 246.89,-435.06 494.74,-398.48 565.25,-455.25 603.35,-485.92 563.92,-527.64 601.25,-559.25 604.69,-562.17 608.34,-564.81 612.15,-567.21"/>
<polygon fill="#757575" stroke="#757575" points="610.17,-570.11 620.61,-571.94 613.59,-564.01 610.17,-570.11"/>
</g>
<!-- app/edit/style.css -->
<g id="node14" class="node">
<title>app/edit/style.css</title>
<path fill="none" stroke="#cfffac" d="M417.96,-365.5C417.96,-365.5 308.04,-365.5 308.04,-365.5 303.96,-365.5 299.88,-361.42 299.88,-357.33 299.88,-357.33 299.88,-349.17 299.88,-349.17 299.88,-345.08 303.96,-341 308.04,-341 308.04,-341 417.96,-341 417.96,-341 422.04,-341 426.12,-345.08 426.12,-349.17 426.12,-349.17 426.12,-357.33 426.12,-357.33 426.12,-361.42 422.04,-365.5 417.96,-365.5"/>
<text text-anchor="middle" x="363" y="-348.2" font-family="Arial" font-size="14.00" fill="#cfffac">app/edit/style.css</text>
</g>
<!-- app/edit/page.tsx&#45;&gt;app/edit/style.css -->
<g id="edge16" class="edge">
<title>app/edit/page.tsx&#45;&gt;app/edit/style.css</title>
<path fill="none" stroke="#757575" d="M124.89,-353.25C172.25,-353.25 237.89,-353.25 288.1,-353.25"/>
<polygon fill="#757575" stroke="#757575" points="288.03,-356.75 298.03,-353.25 288.03,-349.75 288.03,-356.75"/>
</g>
<!-- app/items/allItems.ts -->
<g id="node15" class="node">
<title>app/items/allItems.ts</title>
<path fill="none" stroke="#c6c5fe" d="M820.96,-808.5C820.96,-808.5 690.79,-808.5 690.79,-808.5 686.71,-808.5 682.62,-804.42 682.62,-800.33 682.62,-800.33 682.62,-792.17 682.62,-792.17 682.62,-788.08 686.71,-784 690.79,-784 690.79,-784 820.96,-784 820.96,-784 825.04,-784 829.12,-788.08 829.12,-792.17 829.12,-792.17 829.12,-800.33 829.12,-800.33 829.12,-804.42 825.04,-808.5 820.96,-808.5"/>
<text text-anchor="middle" x="755.88" y="-791.2" font-family="Arial" font-size="14.00" fill="#c6c5fe">app/items/allItems.ts</text>
</g>
<!-- app/edit/page.tsx&#45;&gt;app/items/allItems.ts -->
<g id="edge17" class="edge">
<title>app/edit/page.tsx&#45;&gt;app/items/allItems.ts</title>
<path fill="none" stroke="#757575" d="M72.17,-365.73C87.5,-386.36 121.24,-427.06 160.75,-445.25 242.86,-483.05 495.55,-430.69 565.25,-488.25 607.53,-523.16 575.54,-557.82 601.25,-606.25 637.77,-675.04 700.92,-742.88 733.72,-775.76"/>
<polygon fill="#757575" stroke="#757575" points="731.11,-778.09 740.67,-782.64 736.03,-773.12 731.11,-778.09"/>
</g>
<!-- app/edit/page.tsx&#45;&gt;gestalt/editor/gestaltAccess.ts -->
<g id="edge18" class="edge">
<title>app/edit/page.tsx&#45;&gt;gestalt/editor/gestaltAccess.ts</title>
<path fill="none" stroke="#757575" d="M115.17,-365.96C129.82,-369.13 145.84,-372.21 160.75,-374.25 294.49,-392.54 1202.99,-439.97 1526.38,-456.48"/>
<polygon fill="#757575" stroke="#757575" points="1525.96,-459.96 1536.12,-456.98 1526.31,-452.97 1525.96,-459.96"/>
</g>
<!-- gestalt/editor/implementations/private/privateGestaltAccess.ts -->
<g id="node17" class="node">
<title>gestalt/editor/implementations/private/privateGestaltAccess.ts</title>
<path fill="none" stroke="#c6c5fe" d="M557.08,-322.5C557.08,-322.5 168.92,-322.5 168.92,-322.5 164.83,-322.5 160.75,-318.42 160.75,-314.33 160.75,-314.33 160.75,-306.17 160.75,-306.17 160.75,-302.08 164.83,-298 168.92,-298 168.92,-298 557.08,-298 557.08,-298 561.17,-298 565.25,-302.08 565.25,-306.17 565.25,-306.17 565.25,-314.33 565.25,-314.33 565.25,-318.42 561.17,-322.5 557.08,-322.5"/>
<text text-anchor="middle" x="363" y="-305.2" font-family="Arial" font-size="14.00" fill="#c6c5fe">gestalt/editor/implementations/private/privateGestaltAccess.ts</text>
</g>
<!-- app/edit/page.tsx&#45;&gt;gestalt/editor/implementations/private/privateGestaltAccess.ts -->
<g id="edge20" class="edge">
<title>app/edit/page.tsx&#45;&gt;gestalt/editor/implementations/private/privateGestaltAccess.ts</title>
<path fill="none" stroke="#757575" d="M117.52,-340.53C131.55,-337.52 146.67,-334.53 160.75,-332.25 178.65,-329.35 197.5,-326.73 216.21,-324.38"/>
<polygon fill="#757575" stroke="#757575" points="216.5,-327.87 226,-323.18 215.65,-320.92 216.5,-327.87"/>
</g>
<!-- gestalt/gestalt.ts -->
<g id="node18" class="node">
<title>gestalt/gestalt.ts</title>
<path fill="none" stroke="#c6c5fe" d="M1221.71,-124.5C1221.71,-124.5 1119.29,-124.5 1119.29,-124.5 1115.21,-124.5 1111.12,-120.42 1111.12,-116.33 1111.12,-116.33 1111.12,-108.17 1111.12,-108.17 1111.12,-104.08 1115.21,-100 1119.29,-100 1119.29,-100 1221.71,-100 1221.71,-100 1225.79,-100 1229.88,-104.08 1229.88,-108.17 1229.88,-108.17 1229.88,-116.33 1229.88,-116.33 1229.88,-120.42 1225.79,-124.5 1221.71,-124.5"/>
<text text-anchor="middle" x="1170.5" y="-107.2" font-family="Arial" font-size="14.00" fill="#c6c5fe">gestalt/gestalt.ts</text>
</g>
<!-- app/edit/page.tsx&#45;&gt;gestalt/gestalt.ts -->
<g id="edge21" class="edge">
<title>app/edit/page.tsx&#45;&gt;gestalt/gestalt.ts</title>
<path fill="none" stroke="#757575" d="M68.8,-340.63C80.99,-313.83 113.29,-251.2 160.75,-220.25 462.15,-23.73 924.88,-72.08 1099.54,-99.63"/>
<polygon fill="#757575" stroke="#757575" points="1098.94,-103.08 1109.37,-101.21 1100.05,-96.17 1098.94,-103.08"/>
</g>
<!-- app/items/allItems.ts&#45;&gt;app/items/property/nameItem.tsx -->
<g id="edge24" class="edge">
<title>app/items/allItems.ts&#45;&gt;app/items/property/nameItem.tsx</title>
<path fill="none" stroke="#757575" d="M811.98,-783.52C922.59,-757.87 1179.46,-697.86 1394.5,-644.25 1458.76,-628.23 1532.22,-608.99 1581.98,-595.81"/>
<polygon fill="#757575" stroke="#757575" points="1582.62,-599.26 1591.39,-593.32 1580.83,-592.5 1582.62,-599.26"/>
</g>
<!-- app/items/allItems.ts&#45;&gt;gestalt/item/contentItem.ts -->
<g id="edge25" class="edge">
<title>app/items/allItems.ts&#45;&gt;gestalt/item/contentItem.ts</title>
<path fill="none" stroke="#757575" d="M829.45,-802.14C974.23,-812.85 1293.68,-830.92 1394.5,-791.25 1414.7,-783.3 1410.7,-767.14 1430.5,-758.25 1602.4,-681.12 1672.2,-770.77 1852.25,-715.25 1906.53,-698.51 1963.34,-663.62 1995.53,-641.94"/>
<polygon fill="#757575" stroke="#757575" points="1997.18,-645.06 2003.46,-636.53 1993.23,-639.28 1997.18,-645.06"/>
</g>
<!-- app/items/content/mathItem.tsx -->
<g id="node20" class="node">
<title>app/items/content/mathItem.tsx</title>
<path fill="none" stroke="#c6c5fe" d="M1268.96,-910.5C1268.96,-910.5 1072.04,-910.5 1072.04,-910.5 1067.96,-910.5 1063.88,-906.42 1063.88,-902.33 1063.88,-902.33 1063.88,-894.17 1063.88,-894.17 1063.88,-890.08 1067.96,-886 1072.04,-886 1072.04,-886 1268.96,-886 1268.96,-886 1273.04,-886 1277.12,-890.08 1277.12,-894.17 1277.12,-894.17 1277.12,-902.33 1277.12,-902.33 1277.12,-906.42 1273.04,-910.5 1268.96,-910.5"/>
<text text-anchor="middle" x="1170.5" y="-893.2" font-family="Arial" font-size="14.00" fill="#c6c5fe">app/items/content/mathItem.tsx</text>
</g>
<!-- app/items/allItems.ts&#45;&gt;app/items/content/mathItem.tsx -->
<g id="edge22" class="edge">
<title>app/items/allItems.ts&#45;&gt;app/items/content/mathItem.tsx</title>
<path fill="none" stroke="#757575" d="M780.32,-808.88C815.36,-827.11 883.99,-860.37 946.5,-876.25 980.35,-884.85 1017.89,-890.12 1052.36,-893.35"/>
<polygon fill="#757575" stroke="#757575" points="1051.66,-896.8 1061.93,-894.19 1052.28,-889.83 1051.66,-896.8"/>
</g>
<!-- app/items/content/paragraphItem.tsx -->
<g id="node21" class="node">
<title>app/items/content/paragraphItem.tsx</title>
<path fill="none" stroke="#c6c5fe" d="M1285.46,-867.5C1285.46,-867.5 1055.54,-867.5 1055.54,-867.5 1051.46,-867.5 1047.38,-863.42 1047.38,-859.33 1047.38,-859.33 1047.38,-851.17 1047.38,-851.17 1047.38,-847.08 1051.46,-843 1055.54,-843 1055.54,-843 1285.46,-843 1285.46,-843 1289.54,-843 1293.62,-847.08 1293.62,-851.17 1293.62,-851.17 1293.62,-859.33 1293.62,-859.33 1293.62,-863.42 1289.54,-867.5 1285.46,-867.5"/>
<text text-anchor="middle" x="1170.5" y="-850.2" font-family="Arial" font-size="14.00" fill="#c6c5fe">app/items/content/paragraphItem.tsx</text>
</g>
<!-- app/items/allItems.ts&#45;&gt;app/items/content/paragraphItem.tsx -->
<g id="edge23" class="edge">
<title>app/items/allItems.ts&#45;&gt;app/items/content/paragraphItem.tsx</title>
<path fill="none" stroke="#757575" d="M824.3,-808.93C860.46,-815.5 905.83,-823.34 946.5,-829.25 976.22,-833.56 1008.24,-837.64 1038.5,-841.22"/>
<polygon fill="#757575" stroke="#757575" points="1037.71,-844.65 1048.05,-842.34 1038.53,-837.7 1037.71,-844.65"/>
</g>
<!-- app/items/allItems.ts&#45;&gt;gestalt/item/propertyItem.ts -->
<g id="edge26" class="edge">
<title>app/items/allItems.ts&#45;&gt;gestalt/item/propertyItem.ts</title>
<path fill="none" stroke="#757575" d="M829.44,-788.85C948.16,-776.2 1191.06,-748.09 1394.5,-710.25 1437.38,-702.27 2120.97,-549.7 2157.75,-526.25 2213.63,-490.63 2256.21,-422.49 2275.55,-387.38"/>
<polygon fill="#757575" stroke="#757575" points="2278.43,-389.41 2280.08,-378.95 2272.27,-386.1 2278.43,-389.41"/>
</g>
<!-- gestalt/editor/implementations/private/privateGestaltAccess.ts&#45;&gt;app/items/property/nameItem.tsx -->
<g id="edge43" class="edge">
<title>gestalt/editor/implementations/private/privateGestaltAccess.ts&#45;&gt;app/items/property/nameItem.tsx</title>
<path fill="none" stroke="#757575" d="M552.75,-322.76C557.11,-325.61 561.3,-328.76 565.25,-332.25 616.99,-377.89 549.15,-438.02 601.25,-483.25 669.25,-542.28 1258.25,-568.12 1518.09,-576.73"/>
<polygon fill="#757575" stroke="#757575" points="1517.83,-580.22 1527.94,-577.05 1518.06,-573.22 1517.83,-580.22"/>
</g>
<!-- gestalt/editor/implementations/private/privateGestaltAccess.ts&#45;&gt;gestalt/editor/topicAccess.ts -->
<g id="edge47" class="edge">
<title>gestalt/editor/implementations/private/privateGestaltAccess.ts&#45;&gt;gestalt/editor/topicAccess.ts</title>
<path fill="none" stroke="#757575" d="M526.73,-322.99C539.88,-325.55 552.86,-328.6 565.25,-332.25 582.41,-337.3 584.22,-344.77 601.25,-350.25 734.31,-393.07 1735.55,-560.2 1852.25,-483.25 1886.16,-460.89 1859.23,-427.67 1888.25,-399.25 1906.09,-381.78 1930.32,-369.73 1953.26,-361.52"/>
<polygon fill="#757575" stroke="#757575" points="1954.23,-364.89 1962.6,-358.39 1952.01,-358.25 1954.23,-364.89"/>
</g>
<!-- gestalt/editor/implementations/private/privateGestaltAccess.ts&#45;&gt;gestalt/editor/gestaltAccess.ts -->
<g id="edge44" class="edge">
<title>gestalt/editor/implementations/private/privateGestaltAccess.ts&#45;&gt;gestalt/editor/gestaltAccess.ts</title>
<path fill="none" stroke="#757575" d="M562.55,-323C860.72,-342.21 1390.05,-376.65 1394.5,-379.25 1419.72,-394 1405.78,-418.68 1430.5,-434.25 1458.87,-452.11 1493.66,-460.8 1526.69,-464.59"/>
<polygon fill="#757575" stroke="#757575" points="1526.01,-468.04 1536.31,-465.54 1526.7,-461.07 1526.01,-468.04"/>
</g>
<!-- gestalt/editor/implementations/private/privateGestaltAccess.ts&#45;&gt;gestalt/gestalt.ts -->
<g id="edge48" class="edge">
<title>gestalt/editor/implementations/private/privateGestaltAccess.ts&#45;&gt;gestalt/gestalt.ts</title>
<path fill="none" stroke="#757575" d="M379.18,-297.68C415.1,-268.71 509.28,-197.36 601.25,-166.25 691.81,-135.62 968.61,-120.49 1099.51,-114.89"/>
<polygon fill="#757575" stroke="#757575" points="1099.59,-118.39 1109.44,-114.47 1099.3,-111.4 1099.59,-118.39"/>
</g>
<!-- gestalt/editor/gestaltViewData.ts -->
<g id="node29" class="node">
<title>gestalt/editor/gestaltViewData.ts</title>
<path fill="none" stroke="#c6c5fe" d="M856.96,-199.5C856.96,-199.5 654.79,-199.5 654.79,-199.5 650.71,-199.5 646.62,-195.42 646.62,-191.33 646.62,-191.33 646.62,-183.17 646.62,-183.17 646.62,-179.08 650.71,-175 654.79,-175 654.79,-175 856.96,-175 856.96,-175 861.04,-175 865.12,-179.08 865.12,-183.17 865.12,-183.17 865.12,-191.33 865.12,-191.33 865.12,-195.42 861.04,-199.5 856.96,-199.5"/>
<text text-anchor="middle" x="755.88" y="-182.2" font-family="Arial" font-size="14.00" fill="#c6c5fe">gestalt/editor/gestaltViewData.ts</text>
</g>
<!-- gestalt/editor/implementations/private/privateGestaltAccess.ts&#45;&gt;gestalt/editor/gestaltViewData.ts -->
<g id="edge45" class="edge">
<title>gestalt/editor/implementations/private/privateGestaltAccess.ts&#45;&gt;gestalt/editor/gestaltViewData.ts</title>
<path fill="none" stroke="#757575" d="M387.83,-297.62C429.76,-275.98 519.98,-231.95 601.25,-209.25 612.16,-206.2 623.64,-203.56 635.19,-201.28"/>
<polygon fill="#757575" stroke="#757575" points="635.61,-204.76 644.8,-199.47 634.32,-197.88 635.61,-204.76"/>
</g>
<!-- gestalt/editor/implementations/private/privateSharedTopicAccess.tsx -->
<g id="node30" class="node">
<title>gestalt/editor/implementations/private/privateSharedTopicAccess.tsx</title>
<path fill="none" stroke="#c6c5fe" d="M1386.33,-324.5C1386.33,-324.5 954.67,-324.5 954.67,-324.5 950.58,-324.5 946.5,-320.42 946.5,-316.33 946.5,-316.33 946.5,-308.17 946.5,-308.17 946.5,-304.08 950.58,-300 954.67,-300 954.67,-300 1386.33,-300 1386.33,-300 1390.42,-300 1394.5,-304.08 1394.5,-308.17 1394.5,-308.17 1394.5,-316.33 1394.5,-316.33 1394.5,-320.42 1390.42,-324.5 1386.33,-324.5"/>
<text text-anchor="middle" x="1170.5" y="-307.2" font-family="Arial" font-size="14.00" fill="#c6c5fe">gestalt/editor/implementations/private/privateSharedTopicAccess.tsx</text>
</g>
<!-- gestalt/editor/implementations/private/privateGestaltAccess.ts&#45;&gt;gestalt/editor/implementations/private/privateSharedTopicAccess.tsx -->
<g id="edge46" class="edge">
<title>gestalt/editor/implementations/private/privateGestaltAccess.ts&#45;&gt;gestalt/editor/implementations/private/privateSharedTopicAccess.tsx</title>
<path fill="none" stroke="#757575" d="M565.7,-310.75C677.89,-311.03 818.06,-311.38 935.1,-311.67"/>
<polygon fill="#757575" stroke="#757575" points="934.83,-315.17 944.84,-311.69 934.85,-308.17 934.83,-315.17"/>
</g>
<!-- gestalt/gestalt.ts&#45;&gt;app/items/property/nameItem.tsx -->
<g id="edge63" class="edge">
<title>gestalt/gestalt.ts&#45;&gt;app/items/property/nameItem.tsx</title>
<path fill="none" stroke="#757575" d="M1216.54,-124.95C1268.43,-142.1 1352,-177.92 1394.5,-240.25 1456,-330.46 1365.08,-395.84 1430.5,-483.25 1462.67,-526.24 1518.53,-550.79 1564.54,-564.43"/>
<polygon fill="#757575" stroke="#757575" points="1563.36,-567.73 1573.94,-567.09 1565.27,-561 1563.36,-567.73"/>
</g>
<!-- gestalt/gestalt.ts&#45;&gt;gestalt/topic/topic.ts -->
<g id="edge64" class="edge">
<title>gestalt/gestalt.ts&#45;&gt;gestalt/topic/topic.ts</title>
<path fill="none" stroke="#757575" d="M1229.94,-112.25C1312.77,-112.25 1464.69,-112.25 1558.66,-112.25"/>
<polygon fill="#757575" stroke="#757575" points="1558.59,-115.75 1568.59,-112.25 1558.59,-108.75 1558.59,-115.75"/>
</g>
<!-- gestalt/gestalt.ts&#45;&gt;gestalt/topic/topicContent.ts -->
<g id="edge65" class="edge">
<title>gestalt/gestalt.ts&#45;&gt;gestalt/topic/topicContent.ts</title>
<path fill="none" stroke="#757575" d="M1230.25,-101.96C1282.66,-93.02 1361.53,-80.14 1430.5,-71.25 1599.68,-49.44 1796.99,-31.2 1915.56,-21.01"/>
<polygon fill="#757575" stroke="#757575" points="1915.62,-24.52 1925.28,-20.18 1915.02,-17.54 1915.62,-24.52"/>
</g>
<!-- gestalt/gestalt.ts&#45;&gt;gestalt/topic/topicProperties.ts -->
<g id="edge66" class="edge">
<title>gestalt/gestalt.ts&#45;&gt;gestalt/topic/topicProperties.ts</title>
<path fill="none" stroke="#757575" d="M1230.26,-103.01C1348.78,-86 1624.6,-54.67 1852.25,-91.25 1898.28,-98.65 1948.75,-116.65 1982.59,-130.26"/>
<polygon fill="#757575" stroke="#757575" points="1980.99,-133.39 1991.57,-133.93 1983.64,-126.91 1980.99,-133.39"/>
</g>
<!-- app/globals.css -->
<g id="node19" class="node">
<title>app/globals.css</title>
<path fill="none" stroke="#cfffac" d="M412.71,-564.5C412.71,-564.5 313.29,-564.5 313.29,-564.5 309.21,-564.5 305.12,-560.42 305.12,-556.33 305.12,-556.33 305.12,-548.17 305.12,-548.17 305.12,-544.08 309.21,-540 313.29,-540 313.29,-540 412.71,-540 412.71,-540 416.79,-540 420.88,-544.08 420.88,-548.17 420.88,-548.17 420.88,-556.33 420.88,-556.33 420.88,-560.42 416.79,-564.5 412.71,-564.5"/>
<text text-anchor="middle" x="363" y="-547.2" font-family="Arial" font-size="14.00" fill="#cfffac">app/globals.css</text>
</g>
<!-- app/items/basicContentItem.tsx -->
<g id="node23" class="node">
<title>app/items/basicContentItem.tsx</title>
<path fill="none" stroke="#c6c5fe" d="M1740.96,-867.5C1740.96,-867.5 1541.79,-867.5 1541.79,-867.5 1537.71,-867.5 1533.62,-863.42 1533.62,-859.33 1533.62,-859.33 1533.62,-851.17 1533.62,-851.17 1533.62,-847.08 1537.71,-843 1541.79,-843 1541.79,-843 1740.96,-843 1740.96,-843 1745.04,-843 1749.12,-847.08 1749.12,-851.17 1749.12,-851.17 1749.12,-859.33 1749.12,-859.33 1749.12,-863.42 1745.04,-867.5 1740.96,-867.5"/>
<text text-anchor="middle" x="1641.38" y="-850.2" font-family="Arial" font-size="14.00" fill="#c6c5fe">app/items/basicContentItem.tsx</text>
</g>
<!-- app/items/content/mathItem.tsx&#45;&gt;app/items/basicContentItem.tsx -->
<g id="edge30" class="edge">
<title>app/items/content/mathItem.tsx&#45;&gt;app/items/basicContentItem.tsx</title>
<path fill="none" stroke="#757575" d="M1277.6,-888.52C1350.32,-881.85 1446.85,-873 1522.05,-866.1"/>
<polygon fill="#757575" stroke="#757575" points="1522.31,-869.59 1531.95,-865.19 1521.67,-862.62 1522.31,-869.59"/>
</g>
<!-- app/items/content/paragraphItem.tsx&#45;&gt;app/items/basicContentItem.tsx -->
<g id="edge31" class="edge">
<title>app/items/content/paragraphItem.tsx&#45;&gt;app/items/basicContentItem.tsx</title>
<path fill="none" stroke="#757575" d="M1294.08,-855.25C1364.38,-855.25 1452.2,-855.25 1521.81,-855.25"/>
<polygon fill="#757575" stroke="#757575" points="1521.75,-858.75 1531.75,-855.25 1521.75,-851.75 1521.75,-858.75"/>
</g>
<!-- gestalt/item/propertyItem.ts&#45;&gt;gestalt/item/item.ts -->
<g id="edge68" class="edge">
<title>gestalt/item/propertyItem.ts&#45;&gt;gestalt/item/item.ts</title>
<path fill="none" stroke="#757575" d="M2382.74,-365.25C2390.71,-365.25 2398.71,-365.25 2406.54,-365.25"/>
<polygon fill="#757575" stroke="#757575" points="2406.34,-368.75 2416.34,-365.25 2406.34,-361.75 2406.34,-368.75"/>
</g>
<!-- app/items/basicContentItem.tsx&#45;&gt;gestalt/item/contentItem.ts -->
<g id="edge28" class="edge">
<title>app/items/basicContentItem.tsx&#45;&gt;gestalt/item/contentItem.ts</title>
<path fill="none" stroke="#757575" d="M1749.4,-846.26C1785.44,-838.6 1823.71,-824.83 1852.25,-800.25 1883.02,-773.74 1862.58,-747.73 1888.25,-716.25 1914.95,-683.51 1956.03,-657.31 1985.62,-641.17"/>
<polygon fill="#757575" stroke="#757575" points="1987.04,-644.38 1994.23,-636.59 1983.76,-638.2 1987.04,-644.38"/>
</g>
<!-- app/items/basicContentItem.tsx&#45;&gt;gestalt/item/item.ts -->
<g id="edge29" class="edge">
<title>app/items/basicContentItem.tsx&#45;&gt;gestalt/item/item.ts</title>
<path fill="none" stroke="#757575" d="M1706.65,-868C1853.62,-892.96 2214.41,-929.6 2382.25,-728.25 2468.73,-624.5 2482.23,-452.25 2484.21,-389.26"/>
<polygon fill="#757575" stroke="#757575" points="2487.71,-389.45 2484.44,-379.37 2480.71,-389.29 2487.71,-389.45"/>
</g>
<!-- app/items/basicContentItemEditor.tsx -->
<g id="node24" class="node">
<title>app/items/basicContentItemEditor.tsx</title>
<path fill="none" stroke="#cfffac" d="M2141.33,-829.5C2141.33,-829.5 1904.67,-829.5 1904.67,-829.5 1900.58,-829.5 1896.5,-825.42 1896.5,-821.33 1896.5,-821.33 1896.5,-813.17 1896.5,-813.17 1896.5,-809.08 1900.58,-805 1904.67,-805 1904.67,-805 2141.33,-805 2141.33,-805 2145.42,-805 2149.5,-809.08 2149.5,-813.17 2149.5,-813.17 2149.5,-821.33 2149.5,-821.33 2149.5,-825.42 2145.42,-829.5 2141.33,-829.5"/>
<text text-anchor="middle" x="2023" y="-812.2" font-family="Arial" font-size="14.00" fill="#cfffac">app/items/basicContentItemEditor.tsx</text>
</g>
<!-- app/items/basicContentItem.tsx&#45;&gt;app/items/basicContentItemEditor.tsx -->
<g id="edge27" class="edge">
<title>app/items/basicContentItem.tsx&#45;&gt;app/items/basicContentItemEditor.tsx</title>
<path fill="none" stroke="#757575" d="M1749.38,-844.54C1791.43,-840.33 1840.22,-835.45 1884.81,-830.98"/>
<polygon fill="#757575" stroke="#757575" points="1884.94,-834.49 1894.54,-830.01 1884.24,-827.52 1884.94,-834.49"/>
</g>
<!-- app/layout.tsx -->
<g id="node26" class="node">
<title>app/layout.tsx</title>
<path fill="none" stroke="#c6c5fe" d="M105.33,-564.5C105.33,-564.5 19.42,-564.5 19.42,-564.5 15.33,-564.5 11.25,-560.42 11.25,-556.33 11.25,-556.33 11.25,-548.17 11.25,-548.17 11.25,-544.08 15.33,-540 19.42,-540 19.42,-540 105.33,-540 105.33,-540 109.42,-540 113.5,-544.08 113.5,-548.17 113.5,-548.17 113.5,-556.33 113.5,-556.33 113.5,-560.42 109.42,-564.5 105.33,-564.5"/>
<text text-anchor="middle" x="62.38" y="-547.2" font-family="Arial" font-size="14.00" fill="#c6c5fe">app/layout.tsx</text>
</g>
<!-- app/layout.tsx&#45;&gt;app/globals.css -->
<g id="edge35" class="edge">
<title>app/layout.tsx&#45;&gt;app/globals.css</title>
<path fill="none" stroke="#757575" d="M113.69,-552.25C163.04,-552.25 238.65,-552.25 293.47,-552.25"/>
<polygon fill="#757575" stroke="#757575" points="293.32,-555.75 303.32,-552.25 293.32,-548.75 293.32,-555.75"/>
</g>
<!-- app/page.tsx -->
<g id="node27" class="node">
<title>app/page.tsx</title>
<path fill="none" stroke="#cfffac" d="M103.08,-607.5C103.08,-607.5 21.67,-607.5 21.67,-607.5 17.58,-607.5 13.5,-603.42 13.5,-599.33 13.5,-599.33 13.5,-591.17 13.5,-591.17 13.5,-587.08 17.58,-583 21.67,-583 21.67,-583 103.08,-583 103.08,-583 107.17,-583 111.25,-587.08 111.25,-591.17 111.25,-591.17 111.25,-599.33 111.25,-599.33 111.25,-603.42 107.17,-607.5 103.08,-607.5"/>
<text text-anchor="middle" x="62.38" y="-590.2" font-family="Arial" font-size="14.00" fill="#cfffac">app/page.tsx</text>
</g>
<!-- gestalt/editor/gestaltViewData.ts&#45;&gt;gestalt/topic/topic.ts -->
<g id="edge42" class="edge">
<title>gestalt/editor/gestaltViewData.ts&#45;&gt;gestalt/topic/topic.ts</title>
<path fill="none" stroke="#757575" d="M865.47,-178.08C992.37,-167.35 1208.67,-149.05 1394.5,-133.25 1449.23,-128.59 1510.82,-123.33 1558.67,-119.24"/>
<polygon fill="#757575" stroke="#757575" points="1558.72,-122.75 1568.39,-118.41 1558.13,-115.78 1558.72,-122.75"/>
</g>
<!-- gestalt/editor/gestaltViewData.ts&#45;&gt;gestalt/gestalt.ts -->
<g id="edge41" class="edge">
<title>gestalt/editor/gestaltViewData.ts&#45;&gt;gestalt/gestalt.ts</title>
<path fill="none" stroke="#757575" d="M834.3,-174.52C858.71,-170.41 885.75,-165.75 910.5,-161.25 926.54,-158.33 930.49,-157.31 946.5,-154.25 997.76,-144.44 1055.68,-133.54 1099.64,-125.3"/>
<polygon fill="#757575" stroke="#757575" points="1100.12,-128.77 1109.3,-123.49 1098.83,-121.89 1100.12,-128.77"/>
</g>
<!-- gestalt/editor/implementations/private/privateSharedTopicAccess.tsx&#45;&gt;app/items/property/nameItem.tsx -->
<g id="edge53" class="edge">
<title>gestalt/editor/implementations/private/privateSharedTopicAccess.tsx&#45;&gt;app/items/property/nameItem.tsx</title>
<path fill="none" stroke="#757575" d="M1218.76,-324.95C1267.68,-340.11 1343.89,-369.56 1394.5,-417.25 1418.82,-440.17 1406.1,-460.42 1430.5,-483.25 1473.28,-523.28 1535.51,-549.2 1581.1,-564.08"/>
<polygon fill="#757575" stroke="#757575" points="1579.98,-567.4 1590.57,-567.08 1582.09,-560.73 1579.98,-567.4"/>
</g>
<!-- gestalt/editor/implementations/private/privateSharedTopicAccess.tsx&#45;&gt;gestalt/topic/topic.ts -->
<g id="edge61" class="edge">
<title>gestalt/editor/implementations/private/privateSharedTopicAccess.tsx&#45;&gt;gestalt/topic/topic.ts</title>
<path fill="none" stroke="#757575" d="M1369.74,-299.51C1378.6,-294.73 1386.93,-289.02 1394.5,-282.25 1443.67,-238.27 1381.1,-181.97 1430.5,-138.25 1464.82,-107.87 1515.58,-100.94 1558.58,-101.81"/>
<polygon fill="#757575" stroke="#757575" points="1558.28,-105.3 1568.4,-102.16 1558.53,-98.3 1558.28,-105.3"/>
</g>
<!-- gestalt/editor/implementations/private/privateSharedTopicAccess.tsx&#45;&gt;gestalt/item/contentItem.ts -->
<g id="edge58" class="edge">
<title>gestalt/editor/implementations/private/privateSharedTopicAccess.tsx&#45;&gt;gestalt/item/contentItem.ts</title>
<path fill="none" stroke="#757575" d="M1364.37,-324.96C1374.92,-329.15 1385.06,-334.2 1394.5,-340.25 1420.04,-356.62 1404.77,-382.17 1430.5,-398.25 1590.29,-498.09 1700.66,-329.35 1852.25,-441.25 1885.26,-465.62 1862.71,-494.14 1888.25,-526.25 1915.33,-560.29 1957.25,-588.03 1986.93,-605"/>
<polygon fill="#757575" stroke="#757575" points="1985.11,-607.99 1995.55,-609.81 1988.52,-601.88 1985.11,-607.99"/>
</g>
<!-- gestalt/editor/implementations/private/privateSharedTopicAccess.tsx&#45;&gt;gestalt/item/item.ts -->
<g id="edge59" class="edge">
<title>gestalt/editor/implementations/private/privateSharedTopicAccess.tsx&#45;&gt;gestalt/item/item.ts</title>
<path fill="none" stroke="#757575" d="M1358.68,-299.57C1371.26,-294.98 1383.35,-289.28 1394.5,-282.25 1419.21,-266.67 1404.8,-241.14 1430.5,-227.25 1714.91,-73.49 1839.6,-186.71 2157.75,-244.25 2260.6,-262.85 2285.29,-275.24 2382.25,-314.25 2406.12,-323.85 2432.05,-336.81 2451.82,-347.27"/>
<polygon fill="#757575" stroke="#757575" points="2450.03,-350.28 2460.5,-351.91 2453.34,-344.11 2450.03,-350.28"/>
</g>
<!-- gestalt/editor/implementations/private/privateSharedTopicAccess.tsx&#45;&gt;gestalt/editor/topicAccess.ts -->
<g id="edge57" class="edge">
<title>gestalt/editor/implementations/private/privateSharedTopicAccess.tsx&#45;&gt;gestalt/editor/topicAccess.ts</title>
<path fill="none" stroke="#757575" d="M1394.96,-320.92C1562.34,-327.41 1784.01,-336.02 1914.01,-341.06"/>
<polygon fill="#757575" stroke="#757575" points="1913.5,-344.54 1923.62,-341.43 1913.77,-337.55 1913.5,-344.54"/>
</g>
<!-- gestalt/editor/implementations/private/privateSharedTopicAccess.tsx&#45;&gt;gestalt/editor/gestaltAccess.ts -->
<g id="edge54" class="edge">
<title>gestalt/editor/implementations/private/privateSharedTopicAccess.tsx&#45;&gt;gestalt/editor/gestaltAccess.ts</title>
<path fill="none" stroke="#757575" d="M1370.36,-324.99C1378.89,-329.28 1387,-334.33 1394.5,-340.25 1430.26,-368.49 1394.72,-408.04 1430.5,-436.25 1457.38,-457.44 1492.5,-466.64 1526.31,-469.78"/>
<polygon fill="#757575" stroke="#757575" points="1525.97,-473.27 1536.2,-470.51 1526.49,-466.29 1525.97,-473.27"/>
</g>
<!-- gestalt/editor/implementations/private/privateSharedTopicAccess.tsx&#45;&gt;gestalt/item/propertyItem.ts -->
<g id="edge60" class="edge">
<title>gestalt/editor/implementations/private/privateSharedTopicAccess.tsx&#45;&gt;gestalt/item/propertyItem.ts</title>
<path fill="none" stroke="#757575" d="M1275.07,-324.97C1312.69,-329.66 1355.53,-335.1 1394.5,-340.25 1410.51,-342.37 1414.41,-343.77 1430.5,-345.25 1633.3,-363.94 1684.65,-361.58 1888.25,-366.25 2008,-369 2037.97,-366.71 2157.75,-366.25 2165.7,-366.22 2173.91,-366.18 2182.18,-366.13"/>
<polygon fill="#757575" stroke="#757575" points="2181.97,-369.63 2191.95,-366.07 2181.93,-362.63 2181.97,-369.63"/>
</g>
<!-- gestalt/editor/implementations/private/privateSharedTopicAccess.tsx&#45;&gt;gestalt/editor/itemWriteAccess.ts -->
<g id="edge56" class="edge">
<title>gestalt/editor/implementations/private/privateSharedTopicAccess.tsx&#45;&gt;gestalt/editor/itemWriteAccess.ts</title>
<path fill="none" stroke="#757575" d="M1347.24,-299.52C1363.64,-295.12 1379.66,-289.47 1394.5,-282.25 1414.57,-272.49 1409.82,-255.64 1430.5,-247.25 1517.34,-211.99 1758.66,-242.3 1852.25,-247.25 1870.02,-248.19 1888.79,-249.68 1907.11,-251.41"/>
<polygon fill="#757575" stroke="#757575" points="1906.66,-254.88 1916.95,-252.37 1907.33,-247.91 1906.66,-254.88"/>
</g>
<!-- gestalt/editor/implementations/private/privateItemWriteAccess.ts -->
<g id="node31" class="node">
<title>gestalt/editor/implementations/private/privateItemWriteAccess.ts</title>
<path fill="none" stroke="#c6c5fe" d="M1844.08,-280.5C1844.08,-280.5 1438.67,-280.5 1438.67,-280.5 1434.58,-280.5 1430.5,-276.42 1430.5,-272.33 1430.5,-272.33 1430.5,-264.17 1430.5,-264.17 1430.5,-260.08 1434.58,-256 1438.67,-256 1438.67,-256 1844.08,-256 1844.08,-256 1848.17,-256 1852.25,-260.08 1852.25,-264.17 1852.25,-264.17 1852.25,-272.33 1852.25,-272.33 1852.25,-276.42 1848.17,-280.5 1844.08,-280.5"/>
<text text-anchor="middle" x="1641.38" y="-263.2" font-family="Arial" font-size="14.00" fill="#c6c5fe">gestalt/editor/implementations/private/privateItemWriteAccess.ts</text>
</g>
<!-- gestalt/editor/implementations/private/privateSharedTopicAccess.tsx&#45;&gt;gestalt/editor/implementations/private/privateItemWriteAccess.ts -->
<g id="edge55" class="edge">
<title>gestalt/editor/implementations/private/privateSharedTopicAccess.tsx&#45;&gt;gestalt/editor/implementations/private/privateItemWriteAccess.ts</title>
<path fill="none" stroke="#757575" d="M1307.12,-299.52C1365.43,-294.05 1433.73,-287.64 1493.26,-282.06"/>
<polygon fill="#757575" stroke="#757575" points="1493.52,-285.55 1503.15,-281.13 1492.87,-278.58 1493.52,-285.55"/>
</g>
<!-- gestalt/editor/implementations/private/privateItemWriteAccess.ts&#45;&gt;gestalt/item/contentItem.ts -->
<g id="edge51" class="edge">
<title>gestalt/editor/implementations/private/privateItemWriteAccess.ts&#45;&gt;gestalt/item/contentItem.ts</title>
<path fill="none" stroke="#757575" d="M1673.68,-280.88C1719.62,-300.99 1804.95,-344.63 1852.25,-408.25 1884.96,-452.25 1856.4,-481.62 1888.25,-526.25 1913.21,-561.24 1954.77,-588.5 1984.95,-605.09"/>
<polygon fill="#757575" stroke="#757575" points="1983.3,-608.18 1993.77,-609.8 1986.59,-602 1983.3,-608.18"/>
</g>
<!-- gestalt/editor/implementations/private/privateItemWriteAccess.ts&#45;&gt;gestalt/item/item.ts -->
<g id="edge52" class="edge">
<title>gestalt/editor/implementations/private/privateItemWriteAccess.ts&#45;&gt;gestalt/item/item.ts</title>
<path fill="none" stroke="#757575" d="M1805.69,-281C1821.43,-282.37 1837.15,-283.8 1852.25,-285.25 2088.17,-307.93 2148.14,-307.26 2382.25,-344.25 2393.26,-345.99 2404.88,-348.11 2416.18,-350.32"/>
<polygon fill="#757575" stroke="#757575" points="2415.37,-353.72 2425.86,-352.25 2416.74,-346.86 2415.37,-353.72"/>
</g>
<!-- gestalt/editor/implementations/private/privateItemWriteAccess.ts&#45;&gt;gestalt/editor/topicAccess.ts -->
<g id="edge50" class="edge">
<title>gestalt/editor/implementations/private/privateItemWriteAccess.ts&#45;&gt;gestalt/editor/topicAccess.ts</title>
<path fill="none" stroke="#757575" d="M1807.52,-280.96C1822.88,-284.45 1838.02,-288.81 1852.25,-294.25 1870.45,-301.21 1870.3,-311.67 1888.25,-319.25 1897.95,-323.35 1908.33,-326.81 1918.85,-329.72"/>
<polygon fill="#757575" stroke="#757575" points="1917.82,-333.07 1928.38,-332.19 1919.57,-326.3 1917.82,-333.07"/>
</g>
<!-- gestalt/editor/implementations/private/privateItemWriteAccess.ts&#45;&gt;gestalt/editor/itemWriteAccess.ts -->
<g id="edge49" class="edge">
<title>gestalt/editor/implementations/private/privateItemWriteAccess.ts&#45;&gt;gestalt/editor/itemWriteAccess.ts</title>
<path fill="none" stroke="#757575" d="M1852.73,-266.59C1868.4,-266.46 1883.89,-266.34 1898.76,-266.22"/>
<polygon fill="#757575" stroke="#757575" points="1898.51,-269.73 1908.48,-266.15 1898.45,-262.73 1898.51,-269.73"/>
</g>
<!-- gestalt/topic/topicProperties.ts&#45;&gt;gestalt/item/item.ts -->
<g id="edge74" class="edge">
<title>gestalt/topic/topicProperties.ts&#45;&gt;gestalt/item/item.ts</title>
<path fill="none" stroke="#757575" d="M2127.23,-144.66C2203.42,-147.47 2306.58,-161.6 2382.25,-211.25 2431.19,-243.36 2462.29,-307.88 2476.14,-342.34"/>
<polygon fill="#757575" stroke="#757575" points="2472.76,-343.3 2479.63,-351.37 2479.29,-340.78 2472.76,-343.3"/>
</g>
<!-- gestalt/topic/topicProperties.ts&#45;&gt;gestalt/item/propertyItem.ts -->
<g id="edge75" class="edge">
<title>gestalt/topic/topicProperties.ts&#45;&gt;gestalt/item/propertyItem.ts</title>
<path fill="none" stroke="#757575" d="M2127.35,-158.66C2138.11,-162.35 2148.48,-167.11 2157.75,-173.25 2221.61,-215.56 2262.03,-301.32 2278.51,-342.36"/>
<polygon fill="#757575" stroke="#757575" points="2275.18,-343.44 2282.06,-351.49 2281.7,-340.9 2275.18,-343.44"/>
</g>
</g>
</svg>
